<svg width="479" height="82" viewBox="0 0 479 82" fill="none" xmlns="http://www.w3.org/2000/svg">
<g clip-path="url(#clip0_737_6990)">
<path d="M5.27503 38.2393C10.7088 29.5654 26.9847 19.0149 36.9358 13.5626C47.6682 7.68222 55.8701 6.42343 58.8189 5.64744C63.9639 4.88864 73.2758 3.95749 75.115 11.2346C77.4076 20.3078 75.6039 39.343 74.1838 48.948C72.6307 59.4511 66.7574 75.6596 49.9724 76.4186C36.5167 77.0266 34.1656 75.1942 27.4479 73.7295L24.388 72.8661C20.9329 72.0688 -12.7533 60.1261 5.27503 38.2393Z" fill="url(#paint0_radial_737_6990)"/>
<path d="M21.3801 29.4588C21.3801 28.7822 21.7104 28.4438 22.3709 28.4438H32.1576C33.5752 28.4438 35.0251 28.5647 36.5072 28.8063C38.0054 29.048 39.3828 29.4829 40.6395 30.1112C41.9121 30.7234 42.9349 31.5933 43.7083 32.721C44.4976 33.8326 44.8924 35.2583 44.8924 36.9982C44.8924 38.5769 44.5542 39.9623 43.8776 41.1545C43.217 42.3305 42.2424 43.3535 40.9535 44.2234C40.9053 44.2556 40.8487 44.2959 40.7842 44.3442C40.72 44.3764 40.6877 44.4328 40.6877 44.5134C40.6877 44.5778 40.72 44.6342 40.7842 44.6825C40.865 44.7308 40.9292 44.7711 40.9778 44.8033C42.621 45.6251 43.9984 46.6399 45.11 47.848C46.2212 49.0564 46.7771 50.643 46.7771 52.6085C46.7771 54.4612 46.3906 56.0155 45.6172 57.2722C44.8438 58.5126 43.8131 59.5035 42.5241 60.2446C41.2515 60.9856 39.8339 61.5172 38.2712 61.8395C36.7247 62.1614 35.1701 62.3228 33.6074 62.3228H22.3467C21.6862 62.3228 21.356 61.9845 21.356 61.308C21.356 60.4055 21.3721 59.5035 21.4043 58.6014C21.4365 57.683 21.4607 56.773 21.4768 55.8709C21.5251 52.2459 21.5493 48.6214 21.5493 44.9968C21.5493 41.6136 21.5251 38.2305 21.4768 34.8475C21.4607 33.9453 21.4365 33.0432 21.4043 32.1411C21.3882 31.2389 21.3801 30.3448 21.3801 29.4588ZM27.5904 42.6043H33.2208C34.1068 42.6043 34.9607 42.4594 35.7823 42.1694C36.62 41.8633 37.3046 41.3881 37.8362 40.7437C38.3679 40.0993 38.6337 39.2777 38.6337 38.2789C38.6337 37.1673 38.3034 36.3296 37.643 35.7658C36.9824 35.1858 36.1769 34.7911 35.2265 34.5817C34.276 34.3723 33.3577 34.2676 32.4717 34.2676H27.5663C27.5824 35.653 27.5904 37.0465 27.5904 38.448C27.5904 39.8335 27.5904 41.2189 27.5904 42.6043ZM27.5663 56.6925H33.4624C34.1391 56.6925 34.8801 56.6359 35.6856 56.5232C36.4911 56.4104 37.2563 56.2008 37.9812 55.8948C38.7223 55.5888 39.3264 55.1621 39.7936 54.6142C40.2769 54.0505 40.5184 53.3333 40.5184 52.4635C40.5184 51.5614 40.2526 50.8446 39.7211 50.3127C39.1895 49.7653 38.5129 49.3545 37.6913 49.0804C36.8858 48.8066 36.0481 48.6293 35.1781 48.5488C34.3082 48.452 33.543 48.4038 32.8825 48.4038H27.5904C27.5904 49.7732 27.5904 51.1506 27.5904 52.536C27.5904 53.9214 27.5824 55.3067 27.5663 56.6925Z" fill="white"/>
<path d="M44.9515 29.4588C44.9515 28.7822 45.2819 28.4438 45.9421 28.4438H66.4341C67.0943 28.4438 67.4246 28.7822 67.4246 29.4588C67.4246 30.087 67.4246 30.7314 67.4246 31.392C67.441 32.0364 67.4246 32.6727 67.3764 33.3009C67.3282 33.9453 66.9979 34.2676 66.3855 34.2676H59.3778C59.1845 34.2676 59.0877 34.3642 59.0877 34.5575C59.0877 36.2652 59.0798 37.9728 59.0638 39.6804C59.0638 41.372 59.0638 43.0715 59.0638 44.7792C59.0638 47.534 59.0718 50.2968 59.0877 53.0675C59.1041 55.8223 59.112 58.5771 59.112 61.3319C59.112 61.9925 58.7817 62.3228 58.1211 62.3228H53.9407C53.2801 62.3228 52.9502 61.9925 52.9502 61.3319C52.9502 58.4966 52.9582 55.6613 52.9741 52.8261C53.0064 49.9908 53.0227 47.1635 53.0227 44.3442L52.9984 34.5575C52.9984 34.3642 52.8936 34.2676 52.684 34.2676H45.9907C45.3783 34.2676 45.048 33.9453 44.9998 33.3009C44.9516 32.6727 44.9272 32.0364 44.9272 31.392C44.9436 30.7314 44.9515 30.087 44.9515 29.4588Z" fill="white"/>
</g>
<path d="M106.045 64V17.4545H124.682C128.106 17.4545 130.962 17.9621 133.25 18.9773C135.538 19.9924 137.258 21.4015 138.409 23.2045C139.561 24.9924 140.136 27.053 140.136 29.3864C140.136 31.2045 139.773 32.803 139.045 34.1818C138.318 35.5455 137.318 36.6667 136.045 37.5455C134.788 38.4091 133.348 39.0227 131.727 39.3864V39.8409C133.5 39.9167 135.159 40.4167 136.705 41.3409C138.265 42.2652 139.53 43.5606 140.5 45.2273C141.47 46.8788 141.955 48.8485 141.955 51.1364C141.955 53.6061 141.341 55.8106 140.114 57.75C138.902 59.6742 137.106 61.197 134.727 62.3182C132.348 63.4394 129.417 64 125.932 64H106.045ZM115.886 55.9545H123.909C126.652 55.9545 128.652 55.4318 129.909 54.3864C131.167 53.3258 131.795 51.9167 131.795 50.1591C131.795 48.8712 131.485 47.7348 130.864 46.75C130.242 45.7652 129.356 44.9924 128.205 44.4318C127.068 43.8712 125.712 43.5909 124.136 43.5909H115.886V55.9545ZM115.886 36.9318H123.182C124.53 36.9318 125.727 36.697 126.773 36.2273C127.833 35.7424 128.667 35.0606 129.273 34.1818C129.894 33.303 130.205 32.25 130.205 31.0227C130.205 29.3409 129.606 27.9848 128.409 26.9545C127.227 25.9242 125.545 25.4091 123.364 25.4091H115.886V36.9318ZM157.858 17.4545V64H148.176V17.4545H157.858ZM165.614 64V29.0909H175.295V64H165.614ZM170.477 24.5909C169.038 24.5909 167.803 24.1136 166.773 23.1591C165.758 22.1894 165.25 21.0303 165.25 19.6818C165.25 18.3485 165.758 17.2045 166.773 16.25C167.803 15.2803 169.038 14.7955 170.477 14.7955C171.917 14.7955 173.144 15.2803 174.159 16.25C175.189 17.2045 175.705 18.3485 175.705 19.6818C175.705 21.0303 175.189 22.1894 174.159 23.1591C173.144 24.1136 171.917 24.5909 170.477 24.5909ZM201.619 29.0909V36.3636H180.597V29.0909H201.619ZM185.369 20.7273H195.051V53.2727C195.051 54.1667 195.188 54.8636 195.46 55.3636C195.733 55.8485 196.112 56.1894 196.597 56.3864C197.097 56.5833 197.672 56.6818 198.324 56.6818C198.778 56.6818 199.233 56.6439 199.688 56.5682C200.142 56.4773 200.491 56.4091 200.733 56.3636L202.256 63.5682C201.771 63.7197 201.089 63.8939 200.21 64.0909C199.331 64.303 198.263 64.4318 197.006 64.4773C194.672 64.5682 192.627 64.2576 190.869 63.5455C189.127 62.8333 187.771 61.7273 186.801 60.2273C185.831 58.7273 185.354 56.8333 185.369 54.5455V20.7273ZM207.744 64V58.2273L224.835 37.0682V36.8182H208.335V29.0909H236.494V35.3864L220.449 56.0227V56.2727H237.085V64H207.744ZM240.71 25.5682V17.4545H278.938V25.5682H264.688V64H254.96V25.5682H240.71ZM281.426 64V29.0909H290.812V35.1818H291.176C291.813 33.0152 292.881 31.3788 294.381 30.2727C295.881 29.1515 297.608 28.5909 299.562 28.5909C300.047 28.5909 300.57 28.6212 301.131 28.6818C301.691 28.7424 302.184 28.8258 302.608 28.9318V37.5227C302.153 37.3864 301.525 37.2652 300.722 37.1591C299.919 37.053 299.184 37 298.517 37C297.093 37 295.82 37.3106 294.699 37.9318C293.593 38.5379 292.714 39.3864 292.062 40.4773C291.426 41.5682 291.108 42.8258 291.108 44.25V64H281.426ZM316.568 64.6591C314.341 64.6591 312.356 64.2727 310.614 63.5C308.871 62.7121 307.492 61.553 306.477 60.0227C305.477 58.4773 304.977 56.553 304.977 54.25C304.977 52.3106 305.333 50.6818 306.045 49.3636C306.758 48.0455 307.727 46.9848 308.955 46.1818C310.182 45.3788 311.576 44.7727 313.136 44.3636C314.712 43.9545 316.364 43.6667 318.091 43.5C320.121 43.2879 321.758 43.0909 323 42.9091C324.242 42.7121 325.144 42.4242 325.705 42.0455C326.265 41.6667 326.545 41.1061 326.545 40.3636V40.2273C326.545 38.7879 326.091 37.6742 325.182 36.8864C324.288 36.0985 323.015 35.7045 321.364 35.7045C319.621 35.7045 318.235 36.0909 317.205 36.8636C316.174 37.6212 315.492 38.5758 315.159 39.7273L306.205 39C306.659 36.8788 307.553 35.0455 308.886 33.5C310.22 31.9394 311.939 30.7424 314.045 29.9091C316.167 29.0606 318.621 28.6364 321.409 28.6364C323.348 28.6364 325.205 28.8636 326.977 29.3182C328.765 29.7727 330.348 30.4773 331.727 31.4318C333.121 32.3864 334.22 33.6136 335.023 35.1136C335.826 36.5985 336.227 38.3788 336.227 40.4545V64H327.045V59.1591H326.773C326.212 60.25 325.462 61.2121 324.523 62.0455C323.583 62.8636 322.455 63.5076 321.136 63.9773C319.818 64.4318 318.295 64.6591 316.568 64.6591ZM319.341 57.9773C320.765 57.9773 322.023 57.697 323.114 57.1364C324.205 56.5606 325.061 55.7879 325.682 54.8182C326.303 53.8485 326.614 52.75 326.614 51.5227V47.8182C326.311 48.0152 325.894 48.197 325.364 48.3636C324.848 48.5152 324.265 48.6591 323.614 48.7955C322.962 48.9167 322.311 49.0303 321.659 49.1364C321.008 49.2273 320.417 49.3106 319.886 49.3864C318.75 49.553 317.758 49.8182 316.909 50.1818C316.061 50.5455 315.402 51.0379 314.932 51.6591C314.462 52.2652 314.227 53.0227 314.227 53.9318C314.227 55.25 314.705 56.2576 315.659 56.9545C316.629 57.6364 317.856 57.9773 319.341 57.9773ZM356.602 64.5682C353.951 64.5682 351.549 63.8864 349.398 62.5227C347.261 61.1439 345.564 59.1212 344.307 56.4545C343.064 53.7727 342.443 50.4848 342.443 46.5909C342.443 42.5909 343.087 39.2652 344.375 36.6136C345.663 33.947 347.375 31.9545 349.511 30.6364C351.663 29.303 354.019 28.6364 356.58 28.6364C358.534 28.6364 360.163 28.9697 361.466 29.6364C362.784 30.2879 363.845 31.1061 364.648 32.0909C365.466 33.0606 366.087 34.0152 366.511 34.9545H366.807V17.4545H376.466V64H366.92V58.4091H366.511C366.057 59.3788 365.413 60.3409 364.58 61.2955C363.761 62.2348 362.693 63.0152 361.375 63.6364C360.072 64.2576 358.481 64.5682 356.602 64.5682ZM359.67 56.8636C361.231 56.8636 362.549 56.4394 363.625 55.5909C364.716 54.7273 365.549 53.5227 366.125 51.9773C366.716 50.4318 367.011 48.6212 367.011 46.5455C367.011 44.4697 366.723 42.6667 366.148 41.1364C365.572 39.6061 364.739 38.4242 363.648 37.5909C362.557 36.7576 361.231 36.3409 359.67 36.3409C358.08 36.3409 356.739 36.7727 355.648 37.6364C354.557 38.5 353.731 39.697 353.17 41.2273C352.61 42.7576 352.33 44.5303 352.33 46.5455C352.33 48.5758 352.61 50.3712 353.17 51.9318C353.746 53.4773 354.572 54.6894 355.648 55.5682C356.739 56.4318 358.08 56.8636 359.67 56.8636ZM400.335 64.6818C396.744 64.6818 393.653 63.9545 391.062 62.5C388.487 61.0303 386.502 58.9545 385.108 56.2727C383.714 53.5758 383.017 50.3864 383.017 46.7045C383.017 43.1136 383.714 39.9621 385.108 37.25C386.502 34.5379 388.464 32.4242 390.994 30.9091C393.54 29.3939 396.525 28.6364 399.949 28.6364C402.252 28.6364 404.396 29.0076 406.381 29.75C408.381 30.4773 410.123 31.5758 411.608 33.0455C413.108 34.5152 414.275 36.3636 415.108 38.5909C415.941 40.803 416.358 43.3939 416.358 46.3636V49.0227H386.881V43.0227H407.244C407.244 41.6288 406.941 40.3939 406.335 39.3182C405.729 38.2424 404.888 37.4015 403.812 36.7955C402.752 36.1742 401.517 35.8636 400.108 35.8636C398.638 35.8636 397.335 36.2045 396.199 36.8864C395.078 37.553 394.199 38.4545 393.562 39.5909C392.926 40.7121 392.6 41.9621 392.585 43.3409V49.0455C392.585 50.7727 392.903 52.2652 393.54 53.5227C394.191 54.7803 395.108 55.75 396.29 56.4318C397.472 57.1136 398.873 57.4545 400.494 57.4545C401.57 57.4545 402.555 57.303 403.449 57C404.343 56.697 405.108 56.2424 405.744 55.6364C406.381 55.0303 406.866 54.2879 407.199 53.4091L416.153 54C415.699 56.1515 414.767 58.0303 413.358 59.6364C411.964 61.2273 410.161 62.4697 407.949 63.3636C405.752 64.2424 403.214 64.6818 400.335 64.6818ZM422.676 64V29.0909H432.062V35.1818H432.426C433.063 33.0152 434.131 31.3788 435.631 30.2727C437.131 29.1515 438.858 28.5909 440.812 28.5909C441.297 28.5909 441.82 28.6212 442.381 28.6818C442.941 28.7424 443.434 28.8258 443.858 28.9318V37.5227C443.403 37.3864 442.775 37.2652 441.972 37.1591C441.169 37.053 440.434 37 439.767 37C438.343 37 437.07 37.3106 435.949 37.9318C434.843 38.5379 433.964 39.3864 433.312 40.4773C432.676 41.5682 432.358 42.8258 432.358 44.25V64H422.676Z" fill="#202223"/>
<defs>
<radialGradient id="paint0_radial_737_6990" cx="0" cy="0" r="1" gradientUnits="userSpaceOnUse" gradientTransform="translate(38.1046 40.8394) rotate(8.90007) scale(48.2731 51.5262)">
<stop stop-color="#24A2E7"/>
<stop offset="1" stop-color="#305EFF"/>
</radialGradient>
<clipPath id="clip0_737_6990">
<rect width="102" height="71.7187" fill="white" transform="translate(0 5.14062)"/>
</clipPath>
</defs>
</svg>
