<svg width="403" height="266" viewBox="0 0 403 266" fill="none" xmlns="http://www.w3.org/2000/svg">
<path d="M231.399 72.6821H103.281C51.1563 72.6821 8.90161 110.08 8.90161 156.212C8.90161 202.345 51.1563 239.742 103.281 239.742H231.399C283.523 239.742 325.778 202.345 325.778 156.212C325.778 110.08 283.523 72.6821 231.399 72.6821Z" fill="#E7E2F9"/>
<path d="M256.084 220.91L251.631 238.893H280.072L273.533 221.368L256.084 220.91Z" fill="#00233C" stroke="#00233C" stroke-width="1.5517" stroke-miterlimit="10"/>
<path d="M259.665 49.0221C251.358 48.6815 249.738 64.2496 257.061 65.9517L283.268 66.5669L268.941 54.0499L259.665 49.0221Z" fill="#00233C" stroke="#00233C" stroke-width="1.5517" stroke-linecap="round" stroke-linejoin="round"/>
<path d="M230.994 132.184H86.8142C82.117 132.184 78.3375 128.812 78.3743 124.655L79.262 33.4544C79.2988 29.2973 83.1379 25.9258 87.8351 25.9258H232.015C236.712 25.9258 240.492 29.2973 240.455 33.4544L239.567 124.655C239.53 128.812 235.691 132.184 230.994 132.184Z" fill="#FF5F02" stroke="black" stroke-width="1.5" stroke-miterlimit="10"/>
<path d="M237.134 132.184H92.9539C88.2571 132.184 84.4771 128.812 84.5139 124.655L85.4017 33.4542C85.4389 29.2971 89.2779 25.9255 93.9747 25.9255H238.155C242.852 25.9255 246.632 29.2971 246.594 33.4542L245.707 124.655C245.67 128.812 241.831 132.184 237.134 132.184Z" fill="white" stroke="black" stroke-width="1.5" stroke-miterlimit="10"/>
<path d="M93.0129 125.388C92.554 125.388 92.1842 125.061 92.1915 124.655L93.0792 33.4544C93.0792 33.0485 93.4568 32.7212 93.9152 32.7212H238.095C238.554 32.7212 238.924 33.0485 238.916 33.4544L238.029 124.655C238.029 125.061 237.651 125.388 237.193 125.388H93.0129Z" fill="white" stroke="black" stroke-width="1.5" stroke-miterlimit="10"/>
<path d="M117.393 116.911H222.347" stroke="black" stroke-width="1.5517" stroke-miterlimit="10" stroke-linecap="round"/>
<path d="M142.106 103.686H123.71V112.066H142.106V103.686Z" stroke="black" stroke-width="1.5" stroke-miterlimit="10"/>
<path d="M167.366 91.1689H148.97V112.066H167.366V91.1689Z" stroke="black" stroke-width="1.5" stroke-miterlimit="10"/>
<path d="M192.634 72.8125H174.238V112.066H192.634V72.8125Z" fill="#E7E2F9"/>
<path d="M217.894 63.4636H199.498V112.066H217.894V63.4636Z" fill="#D0C5F4" stroke="#D0C5F4" stroke-width="1.5517" stroke-miterlimit="10"/>
<path d="M104.323 42.9727C104.155 42.9727 104.019 43.093 104.019 43.2412C104.019 43.3899 104.155 43.5098 104.323 43.5098V42.9727ZM104.323 43.5098H162.225V42.9727H104.323V43.5098Z" fill="black"/>
<path d="M104.323 49.5C104.155 49.5 104.019 49.62 104.019 49.7686C104.019 49.9168 104.155 50.0372 104.323 50.0372V49.5ZM104.323 50.0372H162.225V49.5H104.323V50.0372Z" fill="black"/>
<path d="M104.323 56.0203C104.155 56.0203 104.019 56.1402 104.019 56.2888C104.019 56.4371 104.155 56.5574 104.323 56.5574V56.0203ZM104.323 56.5574H124.516V56.0203H104.323V56.5574Z" fill="black"/>
<path d="M118.812 88.5766L134.39 78.9138L157.52 77.5848L182.455 60.5704L192.663 54.9861" stroke="#FF5F02" stroke-width="3" stroke-linecap="round" stroke-linejoin="round"/>
<path d="M185.296 53.5784L193.27 54.724L190.903 61.2967" stroke="#FF5F02" stroke-width="3" stroke-linecap="round" stroke-linejoin="round"/>
<path d="M115.559 92.3842C116.453 92.3842 117.177 91.7431 117.177 90.9517C117.177 90.1607 116.453 89.5193 115.559 89.5193C114.665 89.5193 113.94 90.1607 113.94 90.9517C113.94 91.7431 114.665 92.3842 115.559 92.3842Z" fill="#FF5F02"/>
<path d="M102.894 110.881L107.658 117.689C108.25 118.54 107.865 119.653 106.83 120.066L102.902 121.618L102.887 110.888L102.894 110.881Z" fill="#D0C5F4"/>
<path d="M86.4434 163.649C86.4434 163.649 86.4657 144.164 86.3398 138.685C97.1836 139.051 106.304 137.467 103.922 117.199C102.265 103.15 99.4839 94.3247 99.4839 94.3247L71.5385 92.9302C65.3328 92.6226 62.4111 98.6521 63.3725 104.21L59.8665 146.979" fill="white"/>
<path d="M86.4434 163.649C86.4434 163.649 86.4657 144.164 86.3398 138.685C97.1836 139.051 106.304 137.467 103.922 117.199C102.265 103.15 99.4839 94.3247 99.4839 94.3247L71.5385 92.9302C65.3328 92.6226 62.4111 98.6521 63.3725 104.21L59.8665 146.979" stroke="#00233C" stroke-width="1.5" stroke-linejoin="round"/>
<path fill-rule="evenodd" clip-rule="evenodd" d="M90.8818 109.473L90.9781 117.644C90.9854 118.482 91.7619 119.189 92.7014 119.222C93.6037 119.254 94.3434 118.645 94.3879 117.84L94.8022 109.526L90.8818 109.467V109.473Z" fill="#5975F6"/>
<path d="M98.5076 127.693C98.5076 127.693 99.8687 128.446 103.308 128.655" stroke="#00233C" stroke-width="1.5" stroke-linecap="round" stroke-linejoin="round"/>
<path fill-rule="evenodd" clip-rule="evenodd" d="M105.276 109.984C107.924 110.076 108.457 108.727 108.509 107.732C108.605 106.004 104.869 105.742 104.869 105.742C104.869 105.742 110.084 104.819 110.055 102.469C110.018 99.6731 102.798 100.236 102.798 100.236C102.798 100.236 110.802 99.6996 110.772 97.1725C110.742 94.9597 100.439 82.2723 80.4227 82.4034C76.5837 82.4295 72.4194 83.5031 71.1028 88.2624C69.9783 86.3117 65.2297 86.8485 63.3952 88.112C61.5534 89.3689 57.7216 92.5242 58.3876 112.74C58.7647 124.256 59.4453 129.46 66.9752 131.005C76.7836 133.015 84.9864 126.888 87.457 122.377C89.3729 119.928 91.2443 109.997 91.2443 109.997L105.269 109.978L105.276 109.984Z" fill="#5975F6"/>
<path fill-rule="evenodd" clip-rule="evenodd" d="M90.6227 112.74C90.2084 112.635 89.7868 112.57 89.3433 112.557C86.3399 112.459 83.9287 114.547 83.9583 117.231C83.9878 119.915 86.4511 122.167 89.4615 122.272C89.9054 122.285 90.327 122.252 90.7336 122.174" fill="white"/>
<path d="M90.6227 112.74C90.2084 112.635 89.7868 112.57 89.3433 112.557C86.3399 112.459 83.9287 114.547 83.9583 117.231C83.9878 119.915 86.4511 122.167 89.4615 122.272C89.9054 122.285 90.327 122.252 90.7336 122.174" stroke="#00233C" stroke-width="1.5" stroke-linecap="round" stroke-linejoin="round"/>
<path d="M100.963 113.99C100.986 113.47 100.713 113.038 100.354 113.026C99.9944 113.014 99.6853 113.426 99.6626 113.946C99.6404 114.466 99.9135 114.898 100.273 114.91C100.632 114.922 100.941 114.51 100.963 113.99Z" fill="#00233C"/>
<path d="M89.9653 160.569L54.0069 153.383C35.1579 161.596 27.3276 180.332 22.1081 194.191C16.8886 208.05 16.8883 221.91 16.0183 229.609C15.3224 235.769 19.7882 238.335 22.1081 238.849H99.825L126.214 227.043C119.448 211.387 105.567 179.151 104.175 175.455C102.783 171.759 94.1219 163.991 89.9653 160.569Z" fill="white"/>
<path d="M54.5494 152.727C54.5494 152.727 43.7424 157.977 36.5527 166.907C25.3686 180.812 15.9819 203.784 15.9819 230.965C15.9819 234.54 19.0517 238.887 23.0829 238.887H99.6704V220.412C99.6704 220.412 53.0033 212.785 36.0053 212.785" stroke="#00233C" stroke-width="1.5" stroke-linejoin="round"/>
<path d="M92.8429 235.496C94.1623 235.496 95.2322 234.549 95.2322 233.381C95.2322 232.213 94.1623 231.267 92.8429 231.267C91.5234 231.267 90.4536 232.213 90.4536 233.381C90.4536 234.549 91.5234 235.496 92.8429 235.496Z" fill="#FF5F02" stroke="black" stroke-width="1.5" stroke-miterlimit="10"/>
<path d="M86.0081 217.951V238.894" stroke="#00233C" stroke-width="1.5" stroke-linejoin="round"/>
<path d="M63.6992 178.455L50.4216 213.702" stroke="#00233C" stroke-width="1.5" stroke-linejoin="round"/>
<path d="M61.7913 184.216C61.7913 184.216 65.4304 182.023 68.0637 178.455" stroke="#00233C" stroke-width="1.5" stroke-linejoin="round"/>
<path d="M89.4993 160.157C89.4993 160.157 97.3031 165.244 102.895 174.043C110.381 185.814 116.838 204.989 123.436 219.66C131.358 237.257 122.312 238.894 115.499 238.894H102.318" stroke="#00233C" stroke-width="1.5" stroke-linejoin="round"/>
<path d="M80.9556 171.902L84.5506 163.07L58.3289 145.984L53.0029 151.607L80.9556 171.902Z" fill="white" stroke="#00233C" stroke-width="1.5" stroke-linejoin="round"/>
<path d="M84.5508 163.071L91.193 169.853L89.4993 161.604C88.9963 159.169 87.9605 156.852 86.4444 154.77L86.4517 160.727L84.5508 163.071Z" stroke="#00233C" stroke-width="1.5" stroke-linejoin="round"/>
<path d="M38.365 209.27C38.365 209.27 45.1923 210.678 48.2917 213.506" stroke="#00233C" stroke-width="1.5" stroke-linejoin="round"/>
<path d="M86.3411 138.691V134.167" stroke="#00233C" stroke-width="1.5" stroke-linejoin="round"/>
<path d="M84.5508 163.071L90.7418 219.018" stroke="#00233C" stroke-width="1.5" stroke-linejoin="round"/>
<path d="M114.434 221.938L106.49 217.395C105.795 216.995 104.929 216.904 104.145 217.133C102.658 217.578 101.896 219.038 102.488 220.328L102.54 220.432" fill="white"/>
<path d="M114.434 221.938L106.49 217.395C105.795 216.995 104.929 216.904 104.145 217.133C102.658 217.578 101.896 219.038 102.488 220.328L102.54 220.432" stroke="#00233C" stroke-width="1.5" stroke-linejoin="round"/>
<path d="M99.677 220.419V238.894H123.022C125.699 238.894 127.342 234.651 125.929 232.635L122.223 227.764C118.769 223.227 113.014 220.491 106.83 220.458L99.677 220.419Z" fill="white" stroke="#00233C" stroke-width="1.5" stroke-linejoin="round"/>
<path d="M115.861 228.949L121.143 227.987C122.43 227.751 123.251 226.638 122.992 225.506L122.8 224.687C122.504 223.411 120.973 222.678 119.597 223.156L114.508 224.943C113.435 225.316 112.821 226.324 113.058 227.319C113.324 228.458 114.582 229.185 115.861 228.956V228.949Z" fill="white" stroke="#00233C" stroke-width="1.5" stroke-linejoin="round"/>
<path d="M120.019 233.08L125.3 232.118C126.587 231.882 127.408 230.769 127.149 229.637L126.957 228.818C126.661 227.542 125.13 226.809 123.754 227.287L118.665 229.074C117.593 229.447 116.978 230.455 117.215 231.45C117.481 232.589 118.739 233.316 120.019 233.087V233.08Z" fill="white" stroke="#00233C" stroke-width="1.5" stroke-linejoin="round"/>
<path d="M124.176 237.211L129.457 236.249C130.744 236.013 131.565 234.9 131.306 233.767L131.114 232.949C130.818 231.672 129.287 230.939 127.911 231.417L122.822 233.204C121.75 233.578 121.136 234.586 121.372 235.581C121.639 236.72 122.896 237.447 124.176 237.218V237.211Z" fill="white" stroke="#00233C" stroke-width="1.5" stroke-linejoin="round"/>
<path d="M96.6748 179.43L104.146 217.132" stroke="#00233C" stroke-width="1.5" stroke-linejoin="round"/>
<path d="M210.956 130.737L208.071 125.676C207.257 124.256 206.147 122.985 204.794 121.931L194.135 113.683C192.863 112.57 190.844 112.472 189.438 113.454C187.5 114.816 187.064 117.264 188.432 119.084L192.596 122.75L178.394 123.221C178.394 123.221 160.45 124.04 159.185 124.838L159.2 124.917C160.154 125.277 161.123 125.591 162.092 125.905C163.157 126.246 164.237 126.573 165.309 126.901C166.448 127.247 167.58 127.607 168.704 127.981C169.851 128.36 170.99 128.76 172.107 129.198C173.194 129.624 174.267 130.082 175.303 130.593C176.294 131.084 177.255 131.62 178.15 132.236C178.986 132.812 179.778 133.454 180.451 134.18C180.991 134.763 181.265 135.254 181.634 135.928L193.765 137.951L210.956 130.73V130.737Z" fill="#5975F6"/>
<path d="M180.429 131.81L160.761 128.95C159.185 128.721 158.046 127.483 158.12 126.069C158.194 124.551 159.629 123.366 161.345 123.398L180.022 123.176" fill="#5975F6"/>
<path d="M182.47 134.521L162.802 131.66C161.226 131.431 160.087 130.194 160.161 128.779C160.235 127.261 161.67 126.076 163.386 126.109L181.656 126.455" fill="#5975F6"/>
<path d="M182.47 134.521L162.802 131.66C161.226 131.431 160.087 130.194 160.161 128.779C160.235 127.261 161.67 126.076 163.386 126.109L181.656 126.455" stroke="#00233C" stroke-width="1.5" stroke-linecap="round" stroke-linejoin="round"/>
<path d="M187.626 136.93L167.913 133.611C166.338 133.382 165.199 132.145 165.272 130.73C165.346 129.212 166.782 128.027 168.498 128.059L186.768 128.406" fill="#5975F6"/>
<path d="M187.626 136.93L167.913 133.611C166.338 133.382 165.199 132.145 165.272 130.73C165.346 129.212 166.782 128.027 168.498 128.059L186.768 128.406" stroke="#00233C" stroke-width="1.5" stroke-linecap="round" stroke-linejoin="round"/>
<path d="M267.148 117.708L235.54 135.674L248.841 177.763L264.539 220.37L297.307 223.193L309.487 200.864C309.39 176.396 308.617 126.845 306.297 124.381C303.977 121.917 299.337 118.906 297.307 117.708H267.148Z" fill="white"/>
<path d="M235.779 135.751C225.394 152.825 226.392 157.984 223.84 164.694L210.704 129.755L185.895 138.056C185.895 138.056 195.94 174.468 206.621 190.226C212.183 198.435 226.637 199.313 232.14 194.868C237.673 190.396 243.346 180.026 247.178 172" fill="white"/>
<path d="M235.779 135.751C225.394 152.825 226.392 157.984 223.84 164.694L210.704 129.755L185.895 138.056C185.895 138.056 195.94 174.468 206.621 190.226C212.183 198.435 226.637 199.313 232.14 194.868C237.673 190.396 243.346 180.026 247.178 172" stroke="#00233C" stroke-width="1.5" stroke-linecap="round" stroke-linejoin="round"/>
<path d="M248.347 152.511C247.111 166.913 246.202 195.156 245.861 209.074C245.743 213.964 249.057 218.409 254.183 220.236L256.084 220.91H268.215" fill="white"/>
<path d="M248.347 152.511C247.111 166.913 246.202 195.156 245.861 209.074C245.743 213.964 249.057 218.409 254.183 220.236L256.084 220.91H268.215" stroke="#00233C" stroke-width="1.5" stroke-linecap="round" stroke-linejoin="round"/>
<path d="M235.78 135.752C246.424 116.878 267.483 117.761 267.483 117.761L235.78 135.752Z" fill="white"/>
<path d="M235.78 135.752C246.424 116.878 267.483 117.761 267.483 117.761" stroke="#00233C" stroke-width="1.5" stroke-linecap="round" stroke-linejoin="round"/>
<path d="M226.467 169.853L223.833 164.694C223.833 164.694 227.769 165.342 229.226 168.052" stroke="#00233C" stroke-width="1.5" stroke-linecap="round" stroke-linejoin="round"/>
<path d="M281.441 56.917H274.377C262.749 56.917 257.712 59.2608 256.321 69.6108L254.923 77.4473C253.466 91.1102 261.795 94.1871 273.711 94.1871H271.951L267.638 118.455L277.128 132.439L296.849 118.089L295.184 91.83C299.511 83.2802 298.402 73.5651 297.707 66.5669C297.707 66.5669 293.076 56.917 281.448 56.917H281.441Z" fill="#5975F6"/>
<path d="M284.932 74.8616C269.931 74.8616 266.491 49.3625 258.192 49.0219C258.192 49.0219 275.508 42.2265 299.244 62.3772C299.244 62.3772 306.982 72.95 295.184 91.8302V79.6405L288.815 74.8616H284.932Z" fill="#00233C" stroke="#00233C" stroke-width="1.5" stroke-linecap="round" stroke-linejoin="round"/>
<path d="M271.951 94.1873L270.981 99.6534L283.268 94.1873H271.951Z" fill="#00233C"/>
<path d="M261.787 77.3947C262.452 77.3947 262.992 76.917 262.992 76.3275C262.992 75.7385 262.452 75.2607 261.787 75.2607C261.121 75.2607 260.581 75.7385 260.581 76.3275C260.581 76.917 261.121 77.3947 261.787 77.3947Z" fill="#00233C"/>
<path d="M272.675 77.3947C273.341 77.3947 273.881 76.917 273.881 76.3275C273.881 75.7385 273.341 75.2607 272.675 75.2607C272.009 75.2607 271.47 75.7385 271.47 76.3275C271.47 76.917 272.009 77.3947 272.675 77.3947Z" fill="#00233C"/>
<path d="M265.959 72.0332C265.685 73.7353 263.392 78.3244 263.392 78.3244C262.43 79.9875 263.437 81.0414 265.042 81.2445L266.477 81.4475" stroke="#00233C" stroke-width="1.5" stroke-linecap="round" stroke-linejoin="round"/>
<path d="M264.258 84.3016C264.258 84.3016 266.225 85.5847 268.57 85.1725C270.915 84.76 271.129 83.2803 271.129 83.2803" stroke="#00233C" stroke-width="1.5" stroke-linecap="round" stroke-linejoin="round"/>
<path d="M291.745 84.2755C292.211 84.3869 292.691 84.4524 293.194 84.4524C296.19 84.4524 298.609 82.3048 298.609 79.6534C298.609 77.0023 296.183 74.8616 293.194 74.8616C292.691 74.8616 292.203 74.9267 291.745 75.0381" fill="#5975F6"/>
<path d="M291.745 84.2755C292.211 84.3869 292.691 84.4524 293.194 84.4524C296.19 84.4524 298.609 82.3048 298.609 79.6534C298.609 77.0023 296.183 74.8616 293.194 74.8616C292.691 74.8616 292.203 74.9267 291.745 75.0381" stroke="#00233C" stroke-width="1.5" stroke-linecap="round" stroke-linejoin="round"/>
<path d="M193.181 122.979H198.677" stroke="#00233C" stroke-width="1.5" stroke-linecap="round" stroke-linejoin="round"/>
<path d="M326.243 151.66C315.333 152.027 297.95 150.442 304.208 130.174C306.087 124.092 307.988 118.986 309.541 115.156C311.465 110.409 316.405 107.13 322.094 106.848L341.222 105.899C347.487 105.591 349.262 111.621 347.236 117.179L342.576 159.948" fill="white"/>
<path d="M326.243 151.66C315.333 152.027 297.95 150.442 304.208 130.174C306.087 124.092 307.988 118.986 309.541 115.156C311.465 110.409 316.405 107.13 322.094 106.848L341.222 105.899C347.487 105.591 349.262 111.621 347.236 117.179L342.576 159.948" stroke="#00233C" stroke-width="1.5" stroke-linejoin="round"/>
<path d="M331.636 153.094C331.636 153.094 353.442 158.999 357.947 167.928C364.952 181.833 367.437 204.805 359.264 231.987C358.191 235.561 354.234 238.893 350.195 238.893H299.09V221.434" stroke="#00233C" stroke-width="1.5" stroke-linejoin="round"/>
<path d="M317.678 151.66L318.544 147.143" stroke="#00233C" stroke-width="1.5" stroke-linejoin="round"/>
<path d="M321.739 103.464C301.19 107.3 312.648 125.532 313.964 125.532C313.964 125.532 321.791 137.257 316.028 144.302C310.266 151.345 311.864 155.64 307.529 164.092C303.195 172.543 310.932 186.213 306.087 192.065C301.242 197.918 307.226 202.206 307.226 202.206C307.226 202.206 320.089 182.108 323.307 176.648C337.65 152.321 357.643 165.25 360.447 179.227C363.25 193.204 365.861 199.817 363.472 212.537C363.472 212.537 370.277 206.848 370.247 202.311C370.218 197.774 382.386 188.321 382.141 182.697C381.897 177.074 374.634 171.142 371.682 159.09C369.552 150.409 363.435 141.637 363.317 135.83C363.198 130.023 363.768 94.9202 321.739 103.464Z" fill="#D0C5F4" stroke="#D0C5F4" stroke-width="1.5" stroke-miterlimit="10"/>
<path fill-rule="evenodd" clip-rule="evenodd" d="M314.439 126.298C314.868 126.194 315.312 126.128 315.755 126.115C318.781 126.017 320.793 128.106 320.245 130.79C319.698 133.474 316.806 135.726 313.781 135.83C313.337 135.844 312.922 135.811 312.523 135.732" fill="white"/>
<path d="M314.439 126.298C314.868 126.194 315.312 126.128 315.755 126.115C318.781 126.017 320.793 128.106 320.245 130.79C319.698 133.474 316.806 135.726 313.781 135.83C313.337 135.844 312.922 135.811 312.523 135.732" stroke="#00233C" stroke-width="1.5" stroke-linecap="round" stroke-linejoin="round"/>
<path d="M320.297 180.779L298.403 216.786L284.482 217.885C279.57 218.272 275.48 221.381 274.304 225.624C272.514 232.059 278.024 238.893 285.51 238.893H309.261C315.948 238.893 322.065 234.959 325.098 229.689L340.373 203.195C344.596 195.751 347.436 187.869 348.812 179.83L349.493 175.843" fill="white"/>
<path d="M320.297 180.779L298.403 216.786L284.482 217.885C279.57 218.272 275.48 221.381 274.304 225.624C272.514 232.059 278.024 238.893 285.51 238.893H309.261C315.948 238.893 322.065 234.959 325.098 229.689L340.373 203.195C344.596 195.751 347.436 187.869 348.812 179.83L349.493 175.843" stroke="#00233C" stroke-width="1.5" stroke-linejoin="round"/>
<path d="M298.402 216.785L295.377 220.91" stroke="#00233C" stroke-width="1.5" stroke-linejoin="round"/>
<path d="M279.4 221.604L277.24 223.614C276.671 224.334 275.547 224.504 274.733 224C274.015 223.555 273.771 222.717 274.141 222.023L281.197 213.152C284.474 208.759 290.074 208.707 291.886 208.759H303.299L298.418 216.805L291.361 218.939C285.458 220.74 285.362 220.164 284.859 219.208C284.415 218.37 285.259 217.735 286.508 217.041L296.805 212.137L300.2 210.749" fill="white"/>
<path d="M279.4 221.604L277.24 223.614C276.671 224.334 275.547 224.504 274.733 224C274.015 223.555 273.771 222.717 274.141 222.023L281.197 213.152C284.474 208.759 290.074 208.707 291.886 208.759H303.299L298.418 216.805L291.361 218.939C285.458 220.74 285.362 220.164 284.859 219.208C284.415 218.37 285.259 217.735 286.508 217.041L296.805 212.137L300.2 210.749" stroke="#00233C" stroke-width="1.5" stroke-linejoin="round"/>
<path d="M285.325 219.869C281.494 222.102 280.162 222.082 279.46 221.375C278.772 220.681 279.385 219.862 280.362 218.887L284.43 215.365C286.412 213.65 288.676 212.203 291.139 211.084L291.879 210.743" stroke="#00233C" stroke-width="1.5" stroke-linejoin="round"/>
<path d="M290.569 81.3233H289.237C288.668 81.3233 288.18 80.9566 288.083 80.4591L286.057 70.1023H291.745V80.2822C291.745 80.8584 291.22 81.3233 290.569 81.3233Z" fill="#00233C" stroke="#00233C" stroke-width="1.5517" stroke-miterlimit="10"/>
<path d="M277.128 61.5981C277.128 61.5981 273.245 74.8614 288.823 74.8614L293.172 70.1021L277.128 61.5981Z" fill="#00233C" stroke="#00233C" stroke-width="1.5517" stroke-miterlimit="10"/>
<path d="M343.814 239.012H121.32" stroke="#00233C" stroke-width="1.5517" stroke-linejoin="round"/>
<path d="M277.128 132.439L268.215 222.023" stroke="#00233C" stroke-width="1.5517" stroke-linecap="round" stroke-linejoin="round"/>
<path d="M245.174 158.174C245.174 158.174 246.017 164.838 247.385 167.273" stroke="#00233C" stroke-width="1.5517" stroke-linecap="round" stroke-linejoin="round"/>
<path d="M365.409 180.197C356.643 180.197 348.736 184.851 345.341 192L323.069 238.894H315.413L337.685 192C341.08 184.851 348.988 180.197 357.753 180.197H365.409Z" fill="#5975F6" stroke="#00233C" stroke-width="1.5" stroke-miterlimit="10"/>
<path d="M371.691 238.86H322.136L344.247 192.108C347.618 184.981 355.469 180.34 364.171 180.34H382.779C390.659 180.34 395.99 187.474 392.943 193.929L371.698 238.854L371.691 238.86Z" fill="#00233C" stroke="#00233C" stroke-width="1.5" stroke-miterlimit="10"/>
</svg>
