<svg width="489" height="379" viewBox="0 0 489 379" fill="none" xmlns="http://www.w3.org/2000/svg">
<path d="M286.957 379C375.619 379 447.494 374.804 447.494 369.627C447.494 364.451 375.619 360.255 286.957 360.255C198.295 360.255 126.42 364.451 126.42 369.627C126.42 374.804 198.295 379 286.957 379Z" fill="#F5F5F5"/>
<path d="M246.758 105.659H231.54C221.95 105.658 212.572 108.485 204.581 113.787C196.59 119.089 190.34 126.63 186.614 135.466H174.5C168.966 135.388 163.471 136.411 158.335 138.475C153.2 140.539 148.525 143.603 144.584 147.49C140.643 151.376 137.513 156.007 135.377 161.113C133.241 166.219 132.141 171.699 132.141 177.234C132.141 182.769 133.241 188.249 135.377 193.355C137.513 198.461 140.643 203.092 144.584 206.978C148.525 210.864 153.2 213.928 158.335 215.992C163.471 218.056 168.966 219.079 174.5 219.001H246.758V105.659Z" fill="#3D23A7"/>
<path d="M210.791 108.003L210.451 107.249C212.359 106.397 214.316 105.661 216.313 105.047L216.553 105.875C214.592 106.468 212.667 107.179 210.791 108.003Z" fill="#3D23A7"/>
<path d="M191.884 122.6L191.238 122.078C195.044 117.324 199.664 113.284 204.883 110.147L205.314 110.859C200.176 113.945 195.629 117.92 191.884 122.6Z" fill="#3D23A7"/>
<path opacity="0.2" d="M246.758 105.659H231.54C221.95 105.658 212.572 108.485 204.581 113.787C196.59 119.089 190.34 126.63 186.614 135.466H174.5C168.966 135.388 163.471 136.411 158.335 138.475C153.2 140.539 148.525 143.603 144.584 147.49C140.643 151.376 137.513 156.007 135.377 161.113C133.241 166.219 132.141 171.699 132.141 177.234C132.141 182.769 133.241 188.249 135.377 193.355C137.513 198.461 140.643 203.092 144.584 206.978C148.525 210.864 153.2 213.928 158.335 215.992C163.471 218.056 168.966 219.079 174.5 219.001H246.758V105.659Z" fill="black"/>
<path opacity="0.5" d="M189.506 129.729H211.348L227.494 115.38H202.34C197.154 119.266 192.792 124.143 189.506 129.729Z" fill="#3D23A7"/>
<path opacity="0.5" d="M139.867 153.881C136.922 158.23 134.832 163.099 133.707 168.229H158.629V153.881H139.867Z" fill="#3D23A7"/>
<path opacity="0.5" d="M242.112 109.004H213.762C210.733 110.188 207.832 111.675 205.102 113.442H225.967L242.112 109.004Z" fill="#3D23A7"/>
<path d="M329.901 167.592C327.826 158.858 322.993 151.026 316.118 145.253C309.243 139.48 300.693 136.075 291.732 135.541C287.956 126.557 281.576 118.91 273.415 113.585C265.253 108.261 255.683 105.503 245.939 105.668C236.196 105.833 226.725 108.913 218.748 114.51C210.771 120.108 204.653 127.966 201.184 137.073C195.441 135.437 189.413 135.051 183.508 135.943C177.604 136.834 171.959 138.981 166.954 142.24C161.95 145.498 157.702 149.792 154.498 154.831C151.294 159.871 149.208 165.539 148.381 171.453C147.554 177.367 148.005 183.39 149.703 189.115C151.401 194.84 154.308 200.135 158.226 204.641C162.144 209.148 166.984 212.761 172.417 215.238C177.851 217.716 183.753 218.999 189.725 219.001H322.748C329.068 218.996 335.174 216.706 339.939 212.554C344.705 208.402 347.809 202.668 348.68 196.407C349.551 190.147 348.131 183.783 344.68 178.488C341.229 173.193 335.98 169.323 329.901 167.592Z" fill="#3D23A7"/>
<path opacity="0.2" d="M329.004 170.78L327.124 170.25L326.677 168.354C324.741 160.327 320.284 153.131 313.961 147.82C307.637 142.51 299.779 139.364 291.538 138.845L289.476 138.729L288.648 136.824C285.191 128.562 279.365 121.508 271.905 116.551C264.445 111.595 255.684 108.957 246.728 108.971C246.14 108.971 245.56 108.971 244.98 108.971C253.629 109.295 262.005 112.087 269.119 117.016C276.233 121.946 281.788 128.807 285.129 136.791L285.957 138.696L288.019 138.812C296.26 139.331 304.118 142.477 310.442 147.787C316.765 153.098 321.222 160.294 323.158 168.321L323.605 170.217L325.485 170.747C330.819 172.237 335.433 175.611 338.47 180.243C341.507 184.875 342.762 190.451 342.001 195.938C341.241 201.424 338.518 206.449 334.336 210.081C330.154 213.713 324.797 215.705 319.258 215.689H322.777C328.298 215.683 333.63 213.682 337.792 210.055C341.953 206.428 344.664 201.42 345.426 195.952C346.187 190.485 344.946 184.926 341.933 180.3C338.92 175.675 334.337 172.294 329.029 170.78H329.004Z" fill="black"/>
<path d="M325.479 170.78L323.6 170.25L323.153 168.354C321.216 160.327 316.76 153.131 310.436 147.82C304.113 142.51 296.254 139.365 288.013 138.845L285.952 138.729L285.124 136.825C281.782 128.841 276.227 121.979 269.113 117.05C261.999 112.12 253.624 109.329 244.975 109.004H244.917C236.028 109.394 227.445 112.368 220.221 117.562C212.997 122.757 207.446 129.946 204.247 138.249L203.17 141.089L200.248 140.261L199.991 140.194C196.637 139.261 193.172 138.788 189.691 138.787C189.086 138.787 188.49 138.787 187.886 138.787C177.88 139.294 168.467 143.687 161.65 151.029C154.833 158.371 151.15 168.084 151.386 178.1C151.621 188.116 155.755 197.645 162.909 204.659C170.063 211.673 179.672 215.619 189.691 215.656H319.253C324.773 215.65 330.105 213.649 334.267 210.022C338.429 206.395 341.14 201.387 341.901 195.919C342.662 190.451 341.422 184.893 338.409 180.267C335.396 175.642 330.813 172.261 325.504 170.747L325.479 170.78Z" fill="white"/>
<path d="M230.132 166.342V199.204H263.251V166.342H273.717L246.691 135.963L219.666 166.342H230.132Z" fill="#3D23A7"/>
<path d="M219.162 241.374H229.462V258.397C229.462 259.539 229.009 260.634 228.201 261.441C227.394 262.249 226.299 262.702 225.157 262.702H223.501C222.359 262.702 221.264 262.249 220.456 261.441C219.649 260.634 219.195 259.539 219.195 258.397V241.374H219.162Z" fill="#3D23A7"/>
<path opacity="0.2" d="M219.162 241.374H229.462V258.397C229.462 259.539 229.009 260.634 228.201 261.441C227.394 262.249 226.299 262.702 225.157 262.702H223.501C222.359 262.702 221.264 262.249 220.456 261.441C219.649 260.634 219.195 259.539 219.195 258.397V241.374H219.162Z" fill="black"/>
<path d="M214.568 219.001H234.076V238.525C234.076 240.686 233.217 242.758 231.689 244.286C230.161 245.814 228.089 246.673 225.928 246.673H222.716C220.555 246.673 218.483 245.814 216.955 244.286C215.427 242.758 214.568 240.686 214.568 238.525V219.001Z" fill="#3D23A7"/>
<path opacity="0.2" d="M234.067 223.887L214.568 226.834V219.001H234.067V223.887Z" fill="black"/>
<path d="M229.976 236.298C231.408 236.298 232.568 235.138 232.568 233.707C232.568 232.275 231.408 231.115 229.976 231.115C228.545 231.115 227.385 232.275 227.385 233.707C227.385 235.138 228.545 236.298 229.976 236.298Z" fill="white"/>
<path opacity="0.5" d="M223.07 236.298C224.501 236.298 225.662 235.138 225.662 233.707C225.662 232.275 224.501 231.115 223.07 231.115C221.639 231.115 220.479 232.275 220.479 233.707C220.479 235.138 221.639 236.298 223.07 236.298Z" fill="white"/>
<path d="M289.269 291.325H245.842C239.586 291.317 233.589 288.828 229.165 284.404C224.742 279.981 222.253 273.984 222.244 267.728V262.694H226.384V267.728C226.393 272.886 228.446 277.83 232.093 281.477C235.74 285.124 240.684 287.177 245.842 287.185H289.269V291.325Z" fill="#3D23A7"/>
<path d="M390.614 187.546H319.449C313.486 187.546 308.652 192.38 308.652 198.343V358.822C308.652 364.785 313.486 369.619 319.449 369.619H390.614C396.577 369.619 401.411 364.785 401.411 358.822V198.343C401.411 192.38 396.577 187.546 390.614 187.546Z" fill="#3D23A7"/>
<path opacity="0.2" d="M390.614 187.546H319.449C313.486 187.546 308.652 192.38 308.652 198.343V358.822C308.652 364.785 313.486 369.619 319.449 369.619H390.614C396.577 369.619 401.411 364.785 401.411 358.822V198.343C401.411 192.38 396.577 187.546 390.614 187.546Z" fill="black"/>
<path d="M371.223 187.546H300.059C294.096 187.546 289.262 192.38 289.262 198.343V358.822C289.262 364.785 294.096 369.619 300.059 369.619H371.223C377.186 369.619 382.02 364.785 382.02 358.822V198.343C382.02 192.38 377.186 187.546 371.223 187.546Z" fill="#3D23A7"/>
<path opacity="0.2" d="M378.418 358.83V198.343C378.418 194.369 375.197 191.148 371.223 191.148H300.058C296.084 191.148 292.863 194.369 292.863 198.343V358.83C292.863 362.804 296.084 366.025 300.058 366.025H371.223C375.197 366.025 378.418 362.804 378.418 358.83Z" fill="black"/>
<path d="M378.418 358.83V198.343C378.418 194.369 375.197 191.148 371.223 191.148H303.403C299.429 191.148 296.208 194.369 296.208 198.343V358.83C296.208 362.804 299.429 366.025 303.403 366.025H371.223C375.197 366.025 378.418 362.804 378.418 358.83Z" fill="white"/>
<path opacity="0.3" d="M367.215 212.204H307.402C305.919 212.197 304.5 211.605 303.451 210.557C302.403 209.509 301.811 208.089 301.805 206.606C301.809 205.123 302.4 203.701 303.448 202.651C304.497 201.6 305.918 201.008 307.402 201.001H367.215C368.7 201.005 370.124 201.597 371.174 202.648C372.224 203.698 372.816 205.121 372.82 206.606C372.814 208.09 372.221 209.511 371.171 210.56C370.121 211.608 368.699 212.199 367.215 212.204Z" fill="#3D23A7"/>
<path d="M347.502 207.823H306.509C306.348 207.825 306.189 207.794 306.04 207.733C305.892 207.672 305.757 207.583 305.643 207.47C305.529 207.357 305.438 207.222 305.377 207.074C305.315 206.926 305.283 206.767 305.283 206.606C305.283 206.281 305.412 205.97 305.642 205.74C305.872 205.51 306.184 205.381 306.509 205.381H347.502C347.662 205.381 347.821 205.413 347.97 205.474C348.118 205.536 348.252 205.626 348.365 205.74C348.479 205.854 348.568 205.989 348.629 206.138C348.689 206.287 348.72 206.446 348.719 206.606C348.719 206.929 348.591 207.239 348.362 207.467C348.134 207.695 347.825 207.823 347.502 207.823Z" fill="white"/>
<path d="M362.298 207.832C362.974 207.832 363.523 207.283 363.523 206.607C363.523 205.93 362.974 205.381 362.298 205.381C361.621 205.381 361.072 205.93 361.072 206.607C361.072 207.283 361.621 207.832 362.298 207.832Z" fill="#3D23A7"/>
<path d="M367.698 207.832C368.375 207.832 368.923 207.283 368.923 206.606C368.923 205.93 368.375 205.381 367.698 205.381C367.021 205.381 366.473 205.93 366.473 206.606C366.473 207.283 367.021 207.832 367.698 207.832Z" fill="#3D23A7"/>
<path d="M356.901 207.832C357.578 207.832 358.127 207.283 358.127 206.606C358.127 205.93 357.578 205.381 356.901 205.381C356.224 205.381 355.676 205.93 355.676 206.606C355.676 207.283 356.224 207.832 356.901 207.832Z" fill="#3D23A7"/>
<path opacity="0.3" d="M367.215 230.195H307.402C305.919 230.191 304.498 229.6 303.449 228.551C302.4 227.502 301.809 226.081 301.805 224.598C301.809 223.115 302.4 221.694 303.449 220.645C304.498 219.596 305.919 219.005 307.402 219.001H367.215C368.699 219.005 370.121 219.596 371.171 220.645C372.221 221.693 372.814 223.114 372.82 224.598C372.814 226.082 372.221 227.503 371.171 228.552C370.121 229.6 368.699 230.191 367.215 230.195Z" fill="#3D23A7"/>
<path d="M347.502 225.824H306.509C306.184 225.824 305.872 225.695 305.642 225.465C305.412 225.235 305.283 224.923 305.283 224.598C305.283 224.273 305.412 223.962 305.642 223.732C305.872 223.502 306.184 223.373 306.509 223.373H347.502C347.825 223.375 348.135 223.505 348.363 223.735C348.591 223.964 348.719 224.275 348.719 224.598C348.719 224.922 348.591 225.232 348.363 225.462C348.135 225.692 347.825 225.822 347.502 225.824Z" fill="white"/>
<path d="M362.298 225.824C362.974 225.824 363.523 225.275 363.523 224.598C363.523 223.922 362.974 223.373 362.298 223.373C361.621 223.373 361.072 223.922 361.072 224.598C361.072 225.275 361.621 225.824 362.298 225.824Z" fill="#3D23A7"/>
<path d="M367.698 225.824C368.375 225.824 368.923 225.275 368.923 224.598C368.923 223.922 368.375 223.373 367.698 223.373C367.021 223.373 366.473 223.922 366.473 224.598C366.473 225.275 367.021 225.824 367.698 225.824Z" fill="#3D23A7"/>
<path opacity="0.3" d="M356.901 225.824C357.578 225.824 358.127 225.275 358.127 224.598C358.127 223.922 357.578 223.373 356.901 223.373C356.224 223.373 355.676 223.922 355.676 224.598C355.676 225.275 356.224 225.824 356.901 225.824Z" fill="#3D23A7"/>
<path opacity="0.3" d="M367.215 248.195H307.402C305.919 248.189 304.5 247.597 303.451 246.549C302.403 245.501 301.811 244.081 301.805 242.598C301.809 241.114 302.4 239.692 303.448 238.642C304.497 237.592 305.918 236.999 307.402 236.993H367.215C368.7 236.997 370.124 237.589 371.174 238.64C372.224 239.69 372.816 241.113 372.82 242.598C372.814 244.082 372.221 245.503 371.171 246.552C370.121 247.6 368.699 248.191 367.215 248.195Z" fill="#3D23A7"/>
<path d="M347.502 243.816H306.509C306.348 243.817 306.189 243.786 306.04 243.725C305.892 243.665 305.757 243.575 305.643 243.462C305.529 243.349 305.438 243.214 305.377 243.066C305.315 242.918 305.283 242.759 305.283 242.598C305.283 242.273 305.412 241.962 305.642 241.732C305.872 241.502 306.184 241.373 306.509 241.373H347.502C347.662 241.373 347.821 241.405 347.97 241.466C348.118 241.528 348.252 241.619 348.365 241.732C348.479 241.846 348.568 241.982 348.629 242.13C348.689 242.279 348.72 242.438 348.719 242.598C348.719 242.921 348.591 243.231 348.362 243.459C348.134 243.687 347.825 243.816 347.502 243.816Z" fill="white"/>
<path d="M362.298 243.824C362.974 243.824 363.523 243.275 363.523 242.599C363.523 241.922 362.974 241.373 362.298 241.373C361.621 241.373 361.072 241.922 361.072 242.599C361.072 243.275 361.621 243.824 362.298 243.824Z" fill="#3D23A7"/>
<path d="M367.698 243.824C368.375 243.824 368.923 243.275 368.923 242.598C368.923 241.922 368.375 241.373 367.698 241.373C367.021 241.373 366.473 241.922 366.473 242.598C366.473 243.275 367.021 243.824 367.698 243.824Z" fill="#3D23A7"/>
<path opacity="0.6" d="M356.901 243.824C357.578 243.824 358.127 243.275 358.127 242.598C358.127 241.922 357.578 241.373 356.901 241.373C356.224 241.373 355.676 241.922 355.676 242.598C355.676 243.275 356.224 243.824 356.901 243.824Z" fill="#3D23A7"/>
<path opacity="0.3" d="M367.215 254.993H307.402C304.311 254.993 301.805 257.499 301.805 260.591C301.805 263.682 304.311 266.188 307.402 266.188H367.215C370.306 266.188 372.812 263.682 372.812 260.591C372.812 257.499 370.306 254.993 367.215 254.993Z" fill="#3D23A7"/>
<path d="M347.502 261.791H306.509C306.184 261.791 305.872 261.662 305.642 261.432C305.412 261.202 305.283 260.891 305.283 260.566C305.283 260.241 305.412 259.929 305.642 259.699C305.872 259.469 306.184 259.34 306.509 259.34H347.502C347.825 259.343 348.135 259.473 348.363 259.702C348.591 259.932 348.719 260.242 348.719 260.566C348.719 260.889 348.591 261.2 348.363 261.429C348.135 261.659 347.825 261.789 347.502 261.791Z" fill="white"/>
<path d="M362.298 261.816C362.974 261.816 363.523 261.267 363.523 260.59C363.523 259.914 362.974 259.365 362.298 259.365C361.621 259.365 361.072 259.914 361.072 260.59C361.072 261.267 361.621 261.816 362.298 261.816Z" fill="#3D23A7"/>
<path opacity="0.3" d="M367.698 261.816C368.375 261.816 368.923 261.267 368.923 260.591C368.923 259.914 368.375 259.365 367.698 259.365C367.021 259.365 366.473 259.914 366.473 260.591C366.473 261.267 367.021 261.816 367.698 261.816Z" fill="#3D23A7"/>
<path opacity="0.6" d="M356.901 261.816C357.578 261.816 358.127 261.267 358.127 260.591C358.127 259.914 357.578 259.365 356.901 259.365C356.224 259.365 355.676 259.914 355.676 260.591C355.676 261.267 356.224 261.816 356.901 261.816Z" fill="#3D23A7"/>
<path opacity="0.3" d="M367.215 284.188H307.402C305.919 284.182 304.5 283.59 303.451 282.542C302.403 281.493 301.811 280.073 301.805 278.591C301.809 277.107 302.4 275.685 303.448 274.635C304.497 273.585 305.918 272.992 307.402 272.986H367.215C368.7 272.99 370.124 273.582 371.174 274.632C372.224 275.683 372.816 277.106 372.82 278.591C372.814 280.075 372.221 281.496 371.171 282.544C370.121 283.593 368.699 284.184 367.215 284.188Z" fill="#3D23A7"/>
<path d="M347.502 279.808H306.509C306.348 279.809 306.189 279.778 306.04 279.718C305.892 279.657 305.757 279.567 305.643 279.454C305.529 279.341 305.438 279.207 305.377 279.058C305.315 278.91 305.283 278.751 305.283 278.591C305.283 278.43 305.315 278.27 305.376 278.122C305.438 277.973 305.528 277.838 305.642 277.724C305.756 277.61 305.891 277.52 306.04 277.459C306.188 277.397 306.348 277.365 306.509 277.365H347.502C347.662 277.365 347.821 277.397 347.97 277.459C348.118 277.52 348.252 277.611 348.365 277.725C348.479 277.839 348.568 277.974 348.629 278.122C348.689 278.271 348.72 278.43 348.719 278.591C348.719 278.913 348.591 279.223 348.362 279.451C348.134 279.68 347.825 279.808 347.502 279.808Z" fill="white"/>
<path d="M362.298 279.816C362.974 279.816 363.523 279.267 363.523 278.591C363.523 277.914 362.974 277.365 362.298 277.365C361.621 277.365 361.072 277.914 361.072 278.591C361.072 279.267 361.621 279.816 362.298 279.816Z" fill="#3D23A7"/>
<path opacity="0.6" d="M367.698 279.816C368.375 279.816 368.923 279.267 368.923 278.591C368.923 277.914 368.375 277.365 367.698 277.365C367.021 277.365 366.473 277.914 366.473 278.591C366.473 279.267 367.021 279.816 367.698 279.816Z" fill="#3D23A7"/>
<path d="M356.901 279.816C357.578 279.816 358.127 279.267 358.127 278.591C358.127 277.914 357.578 277.365 356.901 277.365C356.224 277.365 355.676 277.914 355.676 278.591C355.676 279.267 356.224 279.816 356.901 279.816Z" fill="#3D23A7"/>
<path opacity="0.3" d="M367.215 302.18H307.402C305.919 302.175 304.498 301.584 303.449 300.535C302.4 299.487 301.809 298.066 301.805 296.582C301.809 295.099 302.4 293.678 303.449 292.63C304.498 291.581 305.919 290.99 307.402 290.985H367.215C368.696 290.99 370.116 291.578 371.165 292.623C372.215 293.668 372.81 295.085 372.82 296.566C372.818 298.053 372.227 299.478 371.177 300.53C370.126 301.582 368.702 302.175 367.215 302.18Z" fill="#3D23A7"/>
<path d="M347.502 297.808H306.509C306.184 297.808 305.872 297.679 305.642 297.449C305.412 297.22 305.283 296.908 305.283 296.583C305.283 296.422 305.315 296.263 305.376 296.114C305.438 295.965 305.528 295.83 305.642 295.716C305.756 295.603 305.891 295.512 306.04 295.451C306.188 295.389 306.348 295.357 306.509 295.357H347.502C347.825 295.36 348.135 295.49 348.363 295.719C348.591 295.949 348.719 296.259 348.719 296.583C348.719 296.906 348.591 297.217 348.363 297.446C348.135 297.676 347.825 297.806 347.502 297.808Z" fill="white"/>
<path opacity="0.3" d="M362.298 297.808C362.974 297.808 363.523 297.26 363.523 296.583C363.523 295.906 362.974 295.357 362.298 295.357C361.621 295.357 361.072 295.906 361.072 296.583C361.072 297.26 361.621 297.808 362.298 297.808Z" fill="#3D23A7"/>
<path d="M367.698 297.808C368.375 297.808 368.923 297.26 368.923 296.583C368.923 295.906 368.375 295.357 367.698 295.357C367.021 295.357 366.473 295.906 366.473 296.583C366.473 297.26 367.021 297.808 367.698 297.808Z" fill="#3D23A7"/>
<path d="M356.901 297.808C357.578 297.808 358.127 297.26 358.127 296.583C358.127 295.906 357.578 295.357 356.901 295.357C356.224 295.357 355.676 295.906 355.676 296.583C355.676 297.26 356.224 297.808 356.901 297.808Z" fill="#3D23A7"/>
<path opacity="0.3" d="M367.215 320.18H307.402C305.919 320.176 304.498 319.585 303.449 318.536C302.4 317.487 301.809 316.066 301.805 314.583C301.809 313.099 302.4 311.677 303.448 310.627C304.497 309.577 305.918 308.984 307.402 308.978H367.215C368.7 308.982 370.124 309.574 371.174 310.624C372.224 311.675 372.816 313.098 372.82 314.583C372.814 316.067 372.221 317.488 371.171 318.537C370.121 319.585 368.699 320.176 367.215 320.18Z" fill="#3D23A7"/>
<path d="M347.502 315.808H306.509C306.184 315.808 305.872 315.679 305.642 315.45C305.412 315.22 305.283 314.908 305.283 314.583C305.283 314.258 305.412 313.946 305.642 313.717C305.872 313.487 306.184 313.358 306.509 313.358H347.502C347.662 313.358 347.821 313.389 347.97 313.451C348.118 313.513 348.252 313.603 348.365 313.717C348.479 313.831 348.568 313.966 348.629 314.115C348.689 314.263 348.72 314.423 348.719 314.583C348.719 314.907 348.591 315.217 348.363 315.447C348.135 315.676 347.825 315.806 347.502 315.808Z" fill="white"/>
<path opacity="0.3" d="M362.298 315.808C362.974 315.808 363.523 315.26 363.523 314.583C363.523 313.906 362.974 313.358 362.298 313.358C361.621 313.358 361.072 313.906 361.072 314.583C361.072 315.26 361.621 315.808 362.298 315.808Z" fill="#3D23A7"/>
<path d="M367.698 315.808C368.375 315.808 368.923 315.26 368.923 314.583C368.923 313.906 368.375 313.358 367.698 313.358C367.021 313.358 366.473 313.906 366.473 314.583C366.473 315.26 367.021 315.808 367.698 315.808Z" fill="#3D23A7"/>
<path opacity="0.3" d="M356.901 315.808C357.578 315.808 358.127 315.26 358.127 314.583C358.127 313.906 357.578 313.358 356.901 313.358C356.224 313.358 355.676 313.906 355.676 314.583C355.676 315.26 356.224 315.808 356.901 315.808Z" fill="#3D23A7"/>
<path opacity="0.3" d="M367.215 326.978H307.402C304.311 326.978 301.805 329.484 301.805 332.575C301.805 335.666 304.311 338.172 307.402 338.172H367.215C370.306 338.172 372.812 335.666 372.812 332.575C372.812 329.484 370.306 326.978 367.215 326.978Z" fill="#3D23A7"/>
<path d="M347.502 333.825H306.509C306.348 333.825 306.188 333.794 306.04 333.732C305.891 333.67 305.756 333.58 305.642 333.466C305.528 333.353 305.438 333.218 305.376 333.069C305.315 332.92 305.283 332.761 305.283 332.6C305.283 332.275 305.412 331.963 305.642 331.733C305.872 331.504 306.184 331.375 306.509 331.375H347.502C347.825 331.377 348.135 331.507 348.363 331.736C348.591 331.966 348.719 332.276 348.719 332.6C348.719 332.923 348.591 333.234 348.363 333.463C348.135 333.693 347.825 333.823 347.502 333.825Z" fill="white"/>
<path d="M362.298 333.801C362.974 333.801 363.523 333.252 363.523 332.575C363.523 331.898 362.974 331.35 362.298 331.35C361.621 331.35 361.072 331.898 361.072 332.575C361.072 333.252 361.621 333.801 362.298 333.801Z" fill="#3D23A7"/>
<path d="M367.698 333.801C368.375 333.801 368.923 333.252 368.923 332.575C368.923 331.898 368.375 331.35 367.698 331.35C367.021 331.35 366.473 331.898 366.473 332.575C366.473 333.252 367.021 333.801 367.698 333.801Z" fill="#3D23A7"/>
<path d="M356.901 333.801C357.578 333.801 358.127 333.252 358.127 332.575C358.127 331.898 357.578 331.35 356.901 331.35C356.224 331.35 355.676 331.898 355.676 332.575C355.676 333.252 356.224 333.801 356.901 333.801Z" fill="#3D23A7"/>
<path opacity="0.3" d="M367.215 356.181H307.402C305.919 356.176 304.498 355.585 303.449 354.537C302.4 353.488 301.809 352.067 301.805 350.584C301.809 349.1 302.4 347.678 303.448 346.628C304.497 345.578 305.918 344.985 307.402 344.978H367.215C368.7 344.983 370.124 345.575 371.174 346.625C372.224 347.675 372.816 349.098 372.82 350.584C372.814 352.068 372.221 353.489 371.171 354.537C370.121 355.586 368.699 356.176 367.215 356.181Z" fill="#3D23A7"/>
<path d="M347.502 351.8H306.509C306.184 351.8 305.872 351.671 305.642 351.442C305.412 351.212 305.283 350.9 305.283 350.575C305.283 350.25 305.412 349.938 305.642 349.709C305.872 349.479 306.184 349.35 306.509 349.35H347.502C347.662 349.35 347.821 349.381 347.97 349.443C348.118 349.505 348.252 349.595 348.365 349.709C348.479 349.823 348.568 349.958 348.629 350.107C348.689 350.255 348.72 350.414 348.719 350.575C348.719 350.899 348.591 351.209 348.363 351.439C348.135 351.668 347.825 351.798 347.502 351.8Z" fill="white"/>
<path d="M362.298 351.8C362.974 351.8 363.523 351.252 363.523 350.575C363.523 349.898 362.974 349.35 362.298 349.35C361.621 349.35 361.072 349.898 361.072 350.575C361.072 351.252 361.621 351.8 362.298 351.8Z" fill="#3D23A7"/>
<path d="M367.698 351.8C368.375 351.8 368.923 351.252 368.923 350.575C368.923 349.898 368.375 349.35 367.698 349.35C367.021 349.35 366.473 349.898 366.473 350.575C366.473 351.252 367.021 351.8 367.698 351.8Z" fill="#3D23A7"/>
<path opacity="0.6" d="M356.901 351.8C357.578 351.8 358.127 351.252 358.127 350.575C358.127 349.898 357.578 349.35 356.901 349.35C356.224 349.35 355.676 349.898 355.676 350.575C355.676 351.252 356.224 351.8 356.901 351.8Z" fill="#3D23A7"/>
<path opacity="0.2" d="M395.898 225.145H387.535C386.177 225.145 385.076 226.246 385.076 227.604V237.937C385.076 239.295 386.177 240.396 387.535 240.396H395.898C397.256 240.396 398.357 239.295 398.357 237.937V227.604C398.357 226.246 397.256 225.145 395.898 225.145Z" fill="black"/>
<path d="M297.654 186.611L307.018 190.676L301.645 196.944L293.82 193.549L297.654 186.611Z" fill="#CE7A63"/>
<path opacity="0.2" d="M297.655 186.611L307.019 190.684L304.014 194.195L295.502 190.502L297.655 186.611Z" fill="black"/>
<path d="M302.845 200.256L301.794 199.975C301.487 199.89 301.205 199.732 300.973 199.514C300.741 199.296 300.565 199.025 300.461 198.724L299.774 199.014C299.375 199.182 298.932 199.211 298.515 199.097L284.199 195.247C284.387 194.253 284.833 193.325 285.491 192.556C285.491 192.556 291.875 193.914 293.771 192.457C293.84 192.398 293.924 192.361 294.013 192.349C294.103 192.338 294.194 192.352 294.276 192.39C295.427 192.97 299.939 195.156 302.903 194.99C302.994 194.986 303.085 195.003 303.169 195.04C303.252 195.078 303.325 195.134 303.382 195.205C303.44 195.276 303.479 195.36 303.498 195.449C303.517 195.538 303.515 195.631 303.491 195.719C303.166 197.213 302.95 198.73 302.845 200.256Z" fill="#263238"/>
<path d="M381.791 157.135L377.784 165.531C371.864 177.95 357.275 184.168 345.633 179.292C338.836 176.435 331.409 170.416 326.358 167.659C322.036 177.122 313.938 187.571 307.753 194.841L295.234 188.532C299.912 177.768 307.19 161.043 311.794 150.163C312.616 148.23 313.968 146.568 315.694 145.37C317.419 144.171 319.449 143.485 321.548 143.39C342.363 142.836 381.791 157.135 381.791 157.135Z" fill="#FAAA4B"/>
<path d="M321.503 214.058L330.503 213.661L328.839 223.547L321.312 223.895L321.503 214.058Z" fill="#CE7A63"/>
<path opacity="0.2" d="M321.499 214.067L330.499 213.669L329.82 217.727L321.416 218.273L321.499 214.067Z" fill="black"/>
<path d="M332.287 224.002L331.252 224.325C330.948 224.42 330.624 224.439 330.311 224.38C329.998 224.321 329.704 224.185 329.455 223.986L329.033 224.599C328.785 224.955 328.427 225.219 328.015 225.352L313.873 229.79C313.494 228.851 313.371 227.828 313.517 226.826C313.517 226.826 319.627 224.541 320.455 222.28C320.484 222.194 320.537 222.119 320.607 222.061C320.677 222.004 320.763 221.968 320.853 221.957C322.128 221.833 327.112 221.245 329.521 219.515C329.598 219.464 329.684 219.432 329.775 219.42C329.866 219.409 329.958 219.418 330.044 219.448C330.13 219.477 330.209 219.526 330.273 219.591C330.338 219.656 330.386 219.735 330.416 219.821C330.934 221.26 331.56 222.657 332.287 224.002Z" fill="#263238"/>
<path d="M387.629 153.806L387.562 162.682C387.455 175.773 376.36 187.455 363.112 188.432C355.379 189.004 344.897 189.186 338.894 189.07C338.016 198.227 335.151 209.033 332.27 216.857L319.246 215.946C318.898 204.835 318.418 189.087 317.979 178.637C317.961 176.552 318.538 174.506 319.642 172.737C320.747 170.968 322.332 169.551 324.214 168.652C343.762 159.031 387.629 153.806 387.629 153.806Z" fill="#FAAA4B"/>
<path opacity="0.1" d="M329.496 216.973H329.405C329.328 216.948 329.264 216.895 329.226 216.824C329.187 216.753 329.177 216.67 329.198 216.592C331.169 210.109 334.721 189.898 334.878 180.625C334.878 180.58 334.888 180.537 334.907 180.497C334.925 180.457 334.952 180.421 334.986 180.393C335.019 180.365 335.057 180.344 335.098 180.331C335.14 180.318 335.183 180.314 335.226 180.318C354.269 182.852 367.145 181.974 372.485 177.834C381.883 170.523 381.75 158.7 379.366 152.531C379.351 152.493 379.344 152.453 379.346 152.412C379.347 152.371 379.356 152.331 379.373 152.294C379.39 152.257 379.414 152.224 379.444 152.196C379.474 152.169 379.509 152.148 379.548 152.134C379.585 152.119 379.625 152.112 379.666 152.113C379.706 152.113 379.746 152.122 379.782 152.138C379.819 152.154 379.853 152.178 379.881 152.207C379.909 152.236 379.93 152.27 379.945 152.308C382.429 158.65 382.537 170.805 372.866 178.323C367.335 182.62 354.758 183.514 335.474 180.981C335.234 190.444 331.732 210.341 329.778 216.766C329.757 216.824 329.719 216.875 329.668 216.912C329.618 216.949 329.558 216.97 329.496 216.973Z" fill="black"/>
<path opacity="0.2" d="M325.869 168.751C323.632 173.228 321.044 177.519 318.127 181.585C318.193 183.423 318.259 185.369 318.334 187.381C322.946 180.103 325.877 168.735 325.877 168.735L325.869 168.751Z" fill="black"/>
<path d="M359.552 112.043C359.196 113.327 358.873 114.444 358.484 115.612C358.095 116.779 357.714 117.922 357.308 119.073C356.48 121.358 355.603 123.635 354.593 125.887C353.582 128.139 352.547 130.391 351.281 132.627C350.022 134.972 348.588 137.22 346.992 139.35L346.462 140.054C346.129 140.488 345.698 140.838 345.203 141.072C344.295 141.511 343.357 141.884 342.396 142.19C341.453 142.494 340.49 142.735 339.515 142.91C338.541 143.083 337.556 143.185 336.567 143.217C336.071 143.217 335.566 143.217 335.069 143.217L334.299 143.159C334.026 143.159 333.802 143.084 333.471 143.059C332.705 143.015 331.988 142.668 331.477 142.095C330.966 141.522 330.704 140.77 330.747 140.004C330.763 139.722 330.815 139.444 330.904 139.176L332.005 136.137C332.098 135.989 332.212 135.855 332.345 135.74L332.759 135.343L333.587 134.573C334.141 134.059 334.696 133.579 335.243 133.082C335.789 132.585 336.294 132.114 336.791 131.658C337.288 131.203 337.76 130.714 338.232 130.275L336.443 132.006C337.425 130.251 338.315 128.447 339.109 126.599L339.739 125.125L340.335 123.618C340.74 122.617 341.163 121.59 341.519 120.563C342.28 118.493 343.034 116.423 343.754 114.287L345.882 108.019L345.932 107.87C346.542 106.14 347.796 104.712 349.433 103.884C351.07 103.056 352.964 102.892 354.719 103.426C356.474 103.96 357.956 105.15 358.855 106.75C359.753 108.349 360 110.233 359.544 112.01L359.552 112.043Z" fill="#CE7A63"/>
<path d="M352.722 100.394C348.938 101.478 343.854 105.651 342.107 115.098C344.641 119.031 356.523 116.001 356.523 116.001L352.722 100.394Z" fill="#35CB9B"/>
<path d="M334.982 136.237L335.362 140.327C334.22 144.467 329.119 142.091 329.119 142.091L326.205 141.925C325.69 141.866 325.214 141.625 324.862 141.245C324.509 140.866 324.304 140.373 324.284 139.855L323.994 136.999C323.899 136.415 324.036 135.817 324.374 135.331C324.713 134.846 325.227 134.512 325.808 134.399L328.349 134.125C329.086 134.045 329.831 134.148 330.519 134.423L334.982 136.237Z" fill="#CE7A63"/>
<path d="M354.551 99.8222C360.772 98.505 367.082 97.6471 373.429 97.2555C375.077 97.1632 376.726 97.4139 378.272 97.9915C379.818 98.5691 381.227 99.4612 382.411 100.611C383.594 101.761 384.526 103.145 385.148 104.673C385.77 106.202 386.067 107.843 386.023 109.493C385.493 130.341 388.432 152.266 388.01 156.29C388.01 156.29 344.036 162.624 337.296 149.551C334.464 131.012 343.613 133.372 344.35 112.085C344.541 106.512 349.095 100.99 354.551 99.8222Z" fill="#21B787"/>
<path d="M351.084 118.675L351.233 118.634V118.477C351.322 117.817 351.637 117.209 352.125 116.756C352.613 116.302 353.243 116.033 353.907 115.993H354.073L354.131 115.835C354.343 115.179 354.754 114.606 355.308 114.194C355.862 113.783 356.53 113.555 357.219 113.542C357.962 113.603 358.674 113.867 359.277 114.305C359.88 114.743 360.351 115.338 360.639 116.026L360.738 116.266L360.97 116.2C361.24 116.127 361.518 116.091 361.798 116.092H361.939C362.772 116.177 363.547 116.557 364.123 117.165C364.699 117.773 365.037 118.568 365.077 119.404C365.119 119.809 365.075 120.218 364.948 120.605C364.821 120.992 364.614 121.347 364.341 121.649C364.068 121.95 363.734 122.191 363.361 122.355C362.989 122.519 362.586 122.602 362.179 122.6L351.771 122.426C351.261 122.396 350.78 122.18 350.42 121.818C350.059 121.456 349.845 120.974 349.817 120.464C349.795 120.067 349.909 119.674 350.139 119.349C350.369 119.024 350.702 118.787 351.084 118.675Z" fill="white"/>
<path d="M385.555 104.335L385.961 105.229L386.308 106.057C386.54 106.595 386.739 107.133 386.954 107.713C387.368 108.789 387.724 109.874 388.08 110.967C388.788 113.168 389.371 115.407 389.827 117.673C390.059 118.824 390.266 119.984 390.44 121.159C390.614 122.335 390.713 123.536 390.796 124.753C390.982 127.279 390.91 129.817 390.581 132.329L390.506 132.933C390.398 133.717 390.115 134.467 389.678 135.127C388.892 136.298 387.96 137.364 386.904 138.298C386.029 139.081 385.109 139.811 384.147 140.484C382.401 141.682 380.566 142.745 378.658 143.664C376.811 144.541 374.965 145.32 373.094 145.99C371.212 146.668 369.294 147.237 367.348 147.696C366.554 147.878 365.723 147.785 364.989 147.433C364.255 147.08 363.663 146.489 363.309 145.756C362.955 145.023 362.86 144.192 363.04 143.398C363.221 142.604 363.665 141.895 364.301 141.387L364.458 141.271C365.841 140.161 367.348 139.052 368.763 137.959C370.179 136.866 371.595 135.748 372.903 134.647C374.212 133.546 375.478 132.395 376.563 131.335C377.059 130.828 377.523 130.292 377.954 129.729C378.252 129.363 378.494 128.956 378.674 128.52L377.764 131.319C377.727 129.634 377.567 127.954 377.283 126.293C376.977 124.537 376.563 122.741 376.083 120.936C375.603 119.131 375.04 117.301 374.427 115.488C374.129 114.585 373.798 113.683 373.483 112.78L372.539 110.238L372.398 109.857C371.732 108.122 371.771 106.196 372.507 104.489C373.243 102.783 374.618 101.432 376.337 100.726C378.057 100.021 379.984 100.017 381.707 100.714C383.43 101.412 384.811 102.756 385.555 104.459V104.335Z" fill="#CE7A63"/>
<path d="M375.737 97.355C378.776 97.6862 385.209 99.9714 389.44 108.69C385.3 116.895 374.445 120.025 374.445 120.025C374.445 120.025 366.903 101.718 375.737 97.355Z" fill="#35CB9B"/>
<path d="M350.909 156.199H315.173C313.616 156.199 313.285 155.843 314.436 155.371L330.739 149.186C332.331 148.666 333.991 148.387 335.666 148.358H371.409C372.966 148.358 373.297 148.723 372.146 149.186L355.835 155.413C354.241 155.92 352.581 156.185 350.909 156.199Z" fill="#3D23A7"/>
<path opacity="0.4" d="M350.909 156.199H315.173C313.616 156.199 313.285 155.843 314.436 155.371L330.739 149.186C332.331 148.666 333.991 148.387 335.666 148.358H371.409C372.966 148.358 373.297 148.723 372.146 149.186L355.835 155.413C354.241 155.92 352.581 156.185 350.909 156.199Z" fill="black"/>
<path d="M350.909 154.726H315.173C314.379 154.693 313.618 154.397 313.011 153.884C312.404 153.372 311.985 152.671 311.82 151.894L307.771 129.87C307.69 129.526 307.688 129.168 307.767 128.823C307.846 128.479 308.004 128.157 308.227 127.884C308.451 127.61 308.734 127.391 309.055 127.244C309.377 127.098 309.728 127.027 310.081 127.038H345.825C346.612 127.079 347.363 127.379 347.962 127.891C348.561 128.403 348.974 129.099 349.137 129.87L353.177 151.894C353.26 152.234 353.263 152.589 353.187 152.931C353.11 153.273 352.957 153.593 352.738 153.866C352.519 154.14 352.24 154.359 351.923 154.508C351.606 154.657 351.259 154.732 350.909 154.726Z" fill="#3D23A7"/>
<path opacity="0.3" d="M350.909 154.726H315.173C314.379 154.693 313.618 154.397 313.011 153.884C312.404 153.372 311.985 152.671 311.82 151.894L307.771 129.87C307.69 129.526 307.688 129.168 307.767 128.823C307.846 128.479 308.004 128.157 308.227 127.884C308.451 127.61 308.734 127.391 309.055 127.244C309.377 127.098 309.728 127.027 310.081 127.038H345.825C346.612 127.079 347.363 127.379 347.962 127.891C348.561 128.403 348.974 129.099 349.137 129.87L353.177 151.894C353.26 152.234 353.263 152.589 353.187 152.931C353.11 153.273 352.957 153.593 352.738 153.866C352.519 154.14 352.24 154.359 351.923 154.508C351.606 154.657 351.259 154.732 350.909 154.726Z" fill="black"/>
<path opacity="0.3" d="M350.073 154.726H315.173C314.379 154.693 313.618 154.397 313.011 153.884C312.404 153.372 311.985 152.671 311.82 151.894L307.771 129.87C307.69 129.526 307.688 129.168 307.767 128.823C307.846 128.479 308.004 128.157 308.227 127.884C308.451 127.61 308.734 127.391 309.055 127.244C309.377 127.098 309.728 127.027 310.081 127.038H344.989C345.776 127.076 346.529 127.375 347.128 127.888C347.728 128.4 348.14 129.097 348.301 129.87L352.349 151.894C352.432 152.235 352.435 152.591 352.358 152.933C352.282 153.276 352.127 153.596 351.907 153.87C351.687 154.143 351.408 154.363 351.09 154.511C350.771 154.659 350.423 154.733 350.073 154.726Z" fill="#3D23A7"/>
<path d="M366.316 142.736L368.105 144.616C369.761 148.598 364.296 149.873 364.296 149.873L361.903 151.529C361.461 151.798 360.938 151.902 360.427 151.821C359.917 151.741 359.451 151.482 359.113 151.091L357.117 149.021C356.68 148.621 356.417 148.067 356.383 147.476C356.349 146.885 356.547 146.305 356.935 145.858L358.757 144.078C359.287 143.557 359.939 143.175 360.653 142.968L363.816 142.049C364.255 141.922 364.721 141.919 365.163 142.04C365.604 142.162 366.003 142.403 366.316 142.736Z" fill="#CE7A63"/>
<path d="M356.943 101.991C357.302 100.751 358.069 99.6689 359.12 98.9196C359.332 97.712 359.118 96.4684 358.516 95.4006L368.385 87.1208C368.998 91.2607 370.447 96.7254 372.476 98.5138C370.215 100.6 366.059 104.359 360.884 105.245C355.709 106.131 356.504 103.962 356.943 101.991Z" fill="#CE7A63"/>
<path opacity="0.2" d="M358.699 95.7653L367.128 92.2546C366.068 96.5353 361.332 100.079 359.196 98.3817C359.258 97.4814 359.087 96.5803 358.699 95.7653Z" fill="black"/>
<path d="M358.214 82.5176C358.216 83.6056 357.895 84.6697 357.291 85.5751C356.688 86.4805 355.829 87.1864 354.824 87.6036C353.819 88.0207 352.713 88.1303 351.646 87.9184C350.579 87.7065 349.598 87.1828 348.829 86.4134C348.06 85.644 347.536 84.6636 347.324 83.5964C347.112 82.5292 347.222 81.4231 347.639 80.4181C348.056 79.4132 348.762 78.5547 349.667 77.9512C350.573 77.3477 351.637 77.0264 352.725 77.0281C354.181 77.0281 355.577 77.6064 356.606 78.6359C357.636 79.6654 358.214 81.0617 358.214 82.5176Z" fill="#263238"/>
<path d="M367.659 79.4292C368.951 85.7053 369.696 90.0025 366.831 93.5794C361.118 100.692 355.927 98.481 352.756 92.7018C349.916 87.502 348.276 78.1128 353.683 74.0639C354.879 73.1651 356.284 72.585 357.766 72.3778C359.248 72.1706 360.759 72.3433 362.156 72.8796C363.553 73.4159 364.79 74.2982 365.753 75.4438C366.716 76.5894 367.372 77.9608 367.659 79.4292Z" fill="#CE7A63"/>
<path d="M355.332 77.7731C354.065 79.2221 350.712 82.2525 345.835 79.5202C340.958 76.7878 342.946 70.2302 345.885 68.1355C347.096 67.2543 348.509 66.6898 349.994 66.4931C351.479 66.2965 352.989 66.4739 354.388 67.0094C354.388 67.0094 353.991 63.5236 358.893 63.3829C363.794 63.2421 363.546 66.6948 363.546 66.6948C363.546 66.6948 369.896 64.0535 372.927 68.9386C375.75 73.4842 371.544 77.0114 371.544 77.0114C371.544 77.0114 375.941 78.8992 374.492 83.4696C374.207 84.5435 373.588 85.4992 372.725 86.1986C371.862 86.8981 370.799 87.3052 369.689 87.3611C369.689 87.3611 364.995 87.6923 364.2 84.2728C363.717 82.2688 363.964 80.1584 364.895 78.3196C364.895 78.3196 357.336 81.292 355.332 77.7731Z" fill="#263238"/>
<path d="M362.543 85.1752L361.384 85.051C361.357 85.0503 361.33 85.0436 361.306 85.0315C361.281 85.0194 361.259 85.0022 361.242 84.981C361.225 84.9598 361.212 84.9351 361.205 84.9086C361.198 84.8821 361.197 84.8544 361.202 84.8275C361.204 84.8006 361.212 84.7744 361.224 84.7505C361.237 84.7265 361.254 84.7054 361.275 84.6884C361.296 84.6713 361.32 84.6587 361.346 84.6513C361.372 84.6439 361.399 84.6419 361.426 84.6453L362.543 84.753L368.397 83.3371C368.423 83.3297 368.451 83.3277 368.478 83.3313C368.505 83.3349 368.53 83.3439 368.554 83.3579C368.577 83.3719 368.597 83.3905 368.613 83.4125C368.629 83.4346 368.64 83.4596 368.646 83.4862C368.658 83.5388 368.65 83.5943 368.622 83.6408C368.594 83.6872 368.549 83.7209 368.497 83.7346L362.61 85.167L362.543 85.1752Z" fill="#263238"/>
<path d="M370.978 77.6903C370.787 77.6903 370.597 77.6903 370.398 77.6903C370.344 77.6843 370.291 77.6677 370.243 77.6414C370.195 77.615 370.153 77.5795 370.119 77.5368C370.085 77.4942 370.059 77.4452 370.044 77.3927C370.029 77.3401 370.024 77.2851 370.03 77.2308C370.036 77.1764 370.052 77.1238 370.079 77.0758C370.105 77.0279 370.141 76.9856 370.183 76.9514C370.226 76.9172 370.275 76.8917 370.327 76.8764C370.38 76.8611 370.435 76.8563 370.489 76.8623C371.025 76.9657 371.579 76.9208 372.091 76.7326C372.603 76.5444 373.054 76.2199 373.396 75.7942C373.607 75.4903 373.73 75.1345 373.754 74.7653C373.777 74.3961 373.699 74.0275 373.528 73.6994C373.502 73.6518 373.486 73.5994 373.481 73.5455C373.476 73.4915 373.482 73.4371 373.498 73.3854C373.514 73.3337 373.541 73.2857 373.576 73.2444C373.611 73.2031 373.654 73.1692 373.702 73.1447C373.8 73.0946 373.914 73.0847 374.019 73.1172C374.124 73.1497 374.212 73.2219 374.265 73.3186C374.501 73.7803 374.607 74.2971 374.574 74.8144C374.54 75.3317 374.368 75.8304 374.075 76.2579C373.718 76.7351 373.248 77.116 372.708 77.3661C372.167 77.6162 371.572 77.7276 370.978 77.6903Z" fill="#263238"/>
<path d="M348.231 81.7392C347.39 81.7322 346.554 81.6096 345.747 81.3749C344.652 81.1347 343.661 80.5532 342.917 79.7141C342.173 78.8749 341.714 77.8214 341.607 76.7051C341.334 74.2708 342.534 71.6958 344.389 70.7188C344.437 70.6887 344.491 70.6688 344.547 70.6604C344.603 70.6519 344.66 70.6551 344.715 70.6697C344.77 70.6844 344.821 70.7101 344.866 70.7454C344.91 70.7806 344.947 70.8247 344.974 70.8747C345.001 70.9248 345.017 70.9798 345.021 71.0364C345.026 71.093 345.019 71.1499 345 71.2036C344.982 71.2573 344.953 71.3066 344.915 71.3486C344.876 71.3905 344.83 71.4242 344.778 71.4474C343.205 72.2754 342.195 74.5027 342.427 76.614C342.509 77.5615 342.893 78.4576 343.522 79.1713C344.151 79.8849 344.991 80.3786 345.921 80.58C350.773 81.9131 353.224 78.7916 354.242 76.8045C354.295 76.7078 354.383 76.6356 354.488 76.6031C354.593 76.5706 354.707 76.5805 354.805 76.6306C354.901 76.6817 354.973 76.7685 355.006 76.8723C355.038 76.9761 355.029 77.0886 354.979 77.1853C354.027 79.0234 352.015 81.7392 348.231 81.7392Z" fill="#263238"/>
<path d="M357.416 91.2278C357.116 91.3542 356.806 91.4539 356.488 91.5258C356.445 91.5331 356.402 91.5233 356.366 91.4985C356.33 91.4737 356.306 91.436 356.298 91.3934C356.29 91.3475 356.299 91.3002 356.323 91.2606C356.348 91.2209 356.386 91.1916 356.43 91.1781C357.144 91.0155 357.813 90.6945 358.386 90.2388C358.959 89.783 359.423 89.2042 359.742 88.5451C359.75 88.5243 359.761 88.5051 359.776 88.4888C359.791 88.4725 359.809 88.4593 359.829 88.4501C359.849 88.4408 359.871 88.4356 359.893 88.4349C359.915 88.4342 359.937 88.4379 359.957 88.4458C359.979 88.4539 359.998 88.4662 360.014 88.4821C360.03 88.4979 360.043 88.5169 360.051 88.5378C360.06 88.5588 360.064 88.5812 360.064 88.6039C360.063 88.6265 360.058 88.6488 360.049 88.6693C359.513 89.8153 358.576 90.7254 357.416 91.2278Z" fill="#263238"/>
<path opacity="0.2" d="M359.877 82.8238C360.471 82.317 361.243 82.0668 362.021 82.1283C361.359 82.4983 360.63 82.7346 359.877 82.8238Z" fill="black"/>
<path opacity="0.2" d="M360.074 83.3204C360.386 83.1567 360.728 83.0609 361.079 83.0395C361.43 83.0181 361.782 83.0715 362.111 83.1962C361.449 83.3849 360.754 83.4273 360.074 83.3204Z" fill="black"/>
<path opacity="0.2" d="M351.401 85.2165C351.401 85.2165 350.689 84.8191 350.449 85.2745C350.604 85.3281 350.768 85.3505 350.931 85.3406C351.095 85.3306 351.254 85.2885 351.401 85.2165Z" fill="black"/>
<path opacity="0.2" d="M351.479 85.7134C351.479 85.7134 350.883 85.3408 350.816 85.9369C350.936 85.9742 351.065 85.9726 351.184 85.9325C351.303 85.8923 351.406 85.8156 351.479 85.7134Z" fill="black"/>
<path d="M371.544 86.2597C371.304 87.0184 370.917 87.7222 370.404 88.3304C369.891 88.9387 369.262 89.4393 368.555 89.8035C366.642 90.7722 365.243 89.1659 365.433 87.1539C365.582 85.3407 366.758 82.658 368.845 82.5338C369.3 82.5142 369.753 82.6078 370.164 82.8062C370.574 83.0046 370.929 83.3017 371.196 83.6709C371.464 84.04 371.635 84.4697 371.696 84.9215C371.757 85.3733 371.704 85.8331 371.544 86.2597Z" fill="#CE7A63"/>
<path d="M358.332 83.594C358.473 84.0991 358.332 84.5793 357.985 84.6621C357.637 84.7449 357.273 84.4137 357.157 83.9086C357.041 83.4036 357.157 82.9233 357.505 82.8406C357.852 82.7578 358.167 83.0889 358.332 83.594Z" fill="#263238"/>
<path d="M353.022 85.1092C353.154 85.6142 353.022 86.0862 352.666 86.1772C352.31 86.2683 351.962 85.9206 351.838 85.4238C351.714 84.927 351.838 84.4385 352.194 84.3557C352.55 84.2729 352.881 84.6041 353.022 85.1092Z" fill="#263238"/>
<path d="M349.96 88.8681C349.793 88.865 349.629 88.8193 349.484 88.7353C349.339 88.6512 349.218 88.5317 349.132 88.3879L348.304 86.8809C348.255 86.7964 348.226 86.7017 348.219 86.6042C348.211 86.5067 348.226 86.4088 348.263 86.3179C348.303 86.2351 348.362 86.1628 348.436 86.1068C348.509 86.0508 348.594 86.0125 348.685 85.995L352.99 85.0428C353.183 85.0087 353.381 85.0341 353.558 85.1154C353.736 85.1968 353.884 85.3303 353.984 85.4982L354.812 87.0051C354.861 87.0897 354.89 87.1844 354.897 87.2819C354.905 87.3794 354.89 87.4773 354.853 87.5682C354.813 87.6514 354.754 87.724 354.681 87.7801C354.607 87.8362 354.522 87.8742 354.431 87.8911L350.126 88.8515L349.96 88.8681ZM353.139 85.432H353.065L348.751 86.3924C348.725 86.3964 348.699 86.4068 348.678 86.4227C348.656 86.4385 348.639 86.4594 348.627 86.4835C348.612 86.5129 348.604 86.5456 348.604 86.5787C348.604 86.6119 348.612 86.6445 348.627 86.6739L349.455 88.1809C349.51 88.2712 349.59 88.3435 349.686 88.3891C349.781 88.4346 349.888 88.4515 349.993 88.4375L354.299 87.4854C354.326 87.4808 354.352 87.4702 354.375 87.4545C354.398 87.4388 354.417 87.4182 354.431 87.3943C354.446 87.3649 354.454 87.3322 354.454 87.2991C354.454 87.2659 354.446 87.2333 354.431 87.2039L353.603 85.6969C353.554 85.6178 353.486 85.5522 353.405 85.506C353.324 85.4597 353.233 85.4343 353.139 85.432Z" fill="#263238"/>
<path d="M354.784 85.1587L356.606 89.1413C355.875 89.7074 354.961 89.9818 354.039 89.9113C353.857 88.2889 354.115 86.6475 354.784 85.1587Z" fill="#BA4D3C"/>
<path d="M357.095 87.2867C356.927 87.2837 356.763 87.2379 356.619 87.1539C356.474 87.0699 356.353 86.9503 356.267 86.8065L355.439 85.2996C355.39 85.215 355.36 85.1204 355.353 85.0228C355.346 84.9253 355.361 84.8274 355.397 84.7366C355.437 84.6534 355.497 84.5807 355.57 84.5246C355.643 84.4685 355.729 84.4305 355.82 84.4136L360.125 83.4532C360.318 83.4199 360.517 83.4464 360.695 83.5293C360.872 83.6122 361.02 83.7474 361.119 83.9169L361.947 85.4238C361.998 85.5077 362.028 85.6024 362.035 85.7003C362.042 85.7982 362.026 85.8964 361.988 85.9868C361.948 86.0687 361.89 86.1403 361.819 86.1963C361.747 86.2523 361.663 86.2911 361.574 86.3097L357.26 87.2702L357.095 87.2867ZM360.274 83.8506H360.2L355.894 84.8028C355.867 84.8074 355.841 84.8179 355.818 84.8337C355.795 84.8494 355.776 84.87 355.762 84.8939C355.746 84.9233 355.739 84.9559 355.739 84.9891C355.739 85.0222 355.746 85.0549 355.762 85.0843L356.59 86.5912C356.645 86.6837 356.726 86.7581 356.823 86.8051C356.92 86.8522 357.029 86.8699 357.136 86.8562L361.442 85.8957C361.469 85.8906 361.495 85.8799 361.518 85.8642C361.54 85.8485 361.56 85.8282 361.574 85.8046C361.587 85.7746 361.594 85.7422 361.594 85.7094C361.594 85.6767 361.587 85.6443 361.574 85.6142L360.746 84.1073C360.696 84.0275 360.627 83.9619 360.544 83.917C360.461 83.872 360.368 83.8491 360.274 83.8506Z" fill="#263238"/>
<path d="M354.127 86.4256H354.061C354.036 86.418 354.013 86.4056 353.993 86.389C353.972 86.3724 353.956 86.352 353.943 86.3289C353.931 86.3059 353.923 86.2806 353.921 86.2545C353.918 86.2285 353.921 86.2022 353.929 86.1772C353.929 86.1772 354.227 85.2747 355.99 85.6308C356.017 85.6357 356.042 85.6458 356.064 85.6607C356.086 85.6756 356.106 85.6948 356.12 85.7172C356.135 85.7397 356.145 85.7648 356.15 85.7912C356.154 85.8177 356.154 85.8447 356.148 85.8709C356.144 85.898 356.134 85.924 356.12 85.9473C356.105 85.9706 356.086 85.9906 356.064 86.0061C356.041 86.0217 356.016 86.0324 355.989 86.0376C355.962 86.0429 355.934 86.0425 355.908 86.0365C354.55 85.7632 354.326 86.3014 354.318 86.3014C354.302 86.3385 354.275 86.3699 354.241 86.392C354.207 86.4141 354.168 86.4258 354.127 86.4256Z" fill="#263238"/>
<path d="M359.546 81.7721C359.595 81.7543 359.638 81.7227 359.67 81.681C359.718 81.6156 359.738 81.5343 359.727 81.4541C359.717 81.374 359.675 81.301 359.612 81.2505C359.236 80.9403 358.79 80.725 358.313 80.6227C357.837 80.5204 357.342 80.5341 356.871 80.6626C356.833 80.6747 356.797 80.6945 356.766 80.7209C356.735 80.7473 356.71 80.7797 356.692 80.8162C356.675 80.8526 356.664 80.8923 356.662 80.9328C356.66 80.9733 356.667 81.0138 356.681 81.0518C356.709 81.1273 356.765 81.1892 356.838 81.2246C356.91 81.2601 356.993 81.2664 357.07 81.2422C357.445 81.1455 357.837 81.1393 358.214 81.2243C358.591 81.3092 358.943 81.4828 359.24 81.7307C359.283 81.7634 359.334 81.7844 359.387 81.7916C359.441 81.7989 359.496 81.7922 359.546 81.7721Z" fill="#263238"/>
<path d="M349.706 84.3638C349.754 84.3508 349.799 84.3257 349.835 84.291C349.871 84.2562 349.898 84.2129 349.913 84.1651C350.012 83.788 350.201 83.4405 350.463 83.1521C350.726 82.8638 351.054 82.6432 351.42 82.5091C351.458 82.4986 351.494 82.4806 351.525 82.4561C351.557 82.4316 351.583 82.4011 351.602 82.3664C351.621 82.3317 351.633 82.2935 351.638 82.254C351.642 82.2145 351.638 82.1746 351.627 82.1365C351.604 82.0582 351.551 81.992 351.48 81.9519C351.409 81.9117 351.325 81.9007 351.246 81.9213C350.788 82.0797 350.374 82.3458 350.039 82.6974C349.705 83.0489 349.46 83.4756 349.325 83.9415C349.314 83.9801 349.31 84.0206 349.314 84.0606C349.318 84.1007 349.33 84.1395 349.35 84.1749C349.369 84.2102 349.395 84.2415 349.426 84.2668C349.458 84.2921 349.494 84.311 349.532 84.3224C349.585 84.3527 349.645 84.3671 349.706 84.3638Z" fill="#263238"/>
<path opacity="0.2" d="M289.26 304.383V358.831C289.277 361.68 290.417 364.408 292.432 366.423C294.446 368.437 297.174 369.577 300.023 369.594H313.271L308.535 309.508L289.26 304.383Z" fill="black"/>
<path d="M269.522 304.846L264.231 311.47C263.766 312.059 263.175 312.536 262.502 312.867C261.828 313.198 261.09 313.374 260.339 313.383H212.557C211.311 313.407 210.117 313.887 209.202 314.733C208.286 315.578 207.712 316.73 207.589 317.97L203.383 368.833C203.318 369.42 203.379 370.014 203.562 370.575C203.746 371.136 204.047 371.652 204.446 372.087C204.845 372.523 205.333 372.867 205.877 373.099C206.42 373.33 207.007 373.442 207.597 373.428H301.159C302.407 373.407 303.604 372.927 304.52 372.079C305.437 371.231 306.009 370.075 306.127 368.833L311.202 307.562C311.266 306.976 311.204 306.383 311.02 305.822C310.836 305.262 310.534 304.747 310.135 304.313C309.736 303.879 309.249 303.534 308.706 303.304C308.163 303.073 307.577 302.961 306.988 302.975H273.405C272.66 302.981 271.925 303.152 271.254 303.476C270.582 303.799 269.991 304.267 269.522 304.846Z" fill="#3D23A7"/>
<path opacity="0.3" d="M269.522 304.846L264.231 311.47C263.766 312.059 263.175 312.536 262.502 312.867C261.828 313.198 261.09 313.374 260.339 313.383H212.557C211.311 313.407 210.117 313.887 209.202 314.733C208.286 315.578 207.712 316.73 207.589 317.97L203.383 368.833C203.318 369.42 203.379 370.014 203.562 370.575C203.746 371.136 204.047 371.652 204.446 372.087C204.845 372.523 205.333 372.867 205.877 373.099C206.42 373.33 207.007 373.442 207.597 373.428H301.159C302.407 373.407 303.604 372.927 304.52 372.079C305.437 371.231 306.009 370.075 306.127 368.833L311.202 307.562C311.266 306.976 311.204 306.383 311.02 305.822C310.836 305.262 310.534 304.747 310.135 304.313C309.736 303.879 309.249 303.534 308.706 303.304C308.163 303.073 307.577 302.961 306.988 302.975H273.405C272.66 302.981 271.925 303.152 271.254 303.476C270.582 303.799 269.991 304.267 269.522 304.846Z" fill="black"/>
<path d="M250.627 308.464L246.338 314.724C245.93 315.294 245.39 315.756 244.764 316.071C244.138 316.385 243.445 316.543 242.744 316.529H203.44C202.867 316.51 202.296 316.61 201.763 316.823C201.231 317.036 200.748 317.358 200.347 317.767C199.945 318.177 199.633 318.665 199.43 319.202C199.227 319.739 199.138 320.311 199.168 320.884L202.678 369.064C202.814 370.268 203.391 371.379 204.298 372.182C205.205 372.985 206.377 373.423 207.588 373.411H301.15C301.723 373.43 302.293 373.33 302.825 373.118C303.357 372.905 303.839 372.584 304.24 372.175C304.642 371.767 304.954 371.279 305.158 370.744C305.361 370.208 305.451 369.636 305.422 369.064L301.191 311.006C301.054 309.803 300.477 308.694 299.57 307.891C298.664 307.088 297.492 306.65 296.281 306.66H254.22C253.52 306.646 252.826 306.803 252.2 307.118C251.574 307.432 251.034 307.894 250.627 308.464Z" fill="#3D23A7"/>
<rect x="52.4766" y="11.6616" width="120.782" height="29.1542" rx="14.5771" fill="#3D23A7" fill-opacity="0.35"/>
<path d="M104.789 11.6614C104.789 14.7894 102.253 17.3252 99.1248 17.3252C95.9967 17.3252 93.4609 14.7894 93.4609 11.6614C93.4609 8.53333 95.9967 5.99756 99.1248 5.99756C102.253 5.99756 104.789 8.53333 104.789 11.6614Z" stroke="#3D23A7" stroke-width="2"/>
<circle cx="91.2112" cy="111.202" r="4.41435" stroke="#3D23A7" stroke-width="2"/>
<path d="M37.3172 154.517C37.3172 155.575 36.4596 156.433 35.4017 156.433C34.3439 156.433 33.4863 155.575 33.4863 154.517C33.4863 153.459 34.3439 152.602 35.4017 152.602C36.4596 152.602 37.3172 153.459 37.3172 154.517Z" stroke="#3D23A7" stroke-width="2"/>
<rect x="163.264" y="34.1519" width="17.4925" height="1.66595" rx="0.832977" fill="#3D23A7"/>
<rect x="181.588" y="34.1519" width="7.49679" height="1.66595" rx="0.832977" fill="#3D23A7"/>
<rect x="49.1426" y="35.8179" width="23.3234" height="1.66595" rx="0.832977" fill="#3D23A7"/>
<rect x="43.3125" y="35.8179" width="4.16489" height="1.66595" rx="0.832977" fill="#3D23A7"/>
<rect x="114.113" y="124.947" width="16.6595" height="1.66595" rx="0.832977" fill="#3D23A7"/>
<rect x="108.285" y="124.947" width="4.16489" height="1.66595" rx="0.832977" fill="#3D23A7"/>
<rect x="131.609" y="52.4775" width="23.3234" height="1.66595" rx="0.832977" fill="#3D23A7"/>
<rect x="125.781" y="52.4775" width="4.16489" height="1.66595" rx="0.832977" fill="#3D23A7"/>
<rect x="144.938" y="8.32983" width="8.32977" height="1.66595" rx="0.832977" transform="rotate(-90 144.938 8.32983)" fill="#3D23A7"/>
<rect x="141.605" y="3.33179" width="8.32977" height="1.66595" rx="0.832977" fill="#3D23A7"/>
<rect x="113.281" y="39.1501" width="4.16489" height="0.832977" rx="0.416488" transform="rotate(-90 113.281 39.1501)" fill="#3D23A7"/>
<rect x="111.617" y="36.6509" width="4.16489" height="0.832977" rx="0.416488" fill="#3D23A7"/>
<rect x="122.447" y="52.4775" width="1.66595" height="1.66595" rx="0.832977" fill="#3D23A7"/>
<circle cx="128.691" cy="17.0759" r="1.24947" fill="#3D23A7"/>
<rect x="136.6" y="319.863" width="120.782" height="29.1542" rx="14.5771" transform="rotate(180 136.6 319.863)" fill="#3D23A7" fill-opacity="0.3"/>
<path d="M84.2935 319.863C84.2935 316.735 86.8292 314.199 89.9573 314.199C93.0853 314.199 95.6211 316.735 95.6211 319.863C95.6211 322.991 93.0853 325.527 89.9573 325.527C86.8292 325.527 84.2935 322.991 84.2935 319.863Z" stroke="#3D23A7" stroke-width="2"/>
<rect x="25.8145" y="297.373" width="17.4925" height="1.66595" rx="0.832977" transform="rotate(180 25.8145 297.373)" fill="#3D23A7"/>
<rect x="7.49023" y="297.373" width="7.49679" height="1.66595" rx="0.832977" transform="rotate(180 7.49023 297.373)" fill="#3D23A7"/>
<rect x="139.938" y="295.707" width="23.3234" height="1.66595" rx="0.832977" transform="rotate(180 139.938 295.707)" fill="#3D23A7"/>
<rect x="145.766" y="295.707" width="4.16488" height="1.66595" rx="0.832977" transform="rotate(180 145.766 295.707)" fill="#3D23A7"/>
<rect x="57.4727" y="279.047" width="23.3234" height="1.66595" rx="0.832977" transform="rotate(180 57.4727 279.047)" fill="#3D23A7"/>
<rect x="63.3027" y="279.047" width="4.16488" height="1.66595" rx="0.832977" transform="rotate(180 63.3027 279.047)" fill="#3D23A7"/>
<rect x="44.1426" y="323.195" width="8.32977" height="1.66595" rx="0.832977" transform="rotate(90 44.1426 323.195)" fill="#3D23A7"/>
<rect x="47.4727" y="328.193" width="8.32977" height="1.66595" rx="0.832977" transform="rotate(180 47.4727 328.193)" fill="#3D23A7"/>
<rect x="75.7988" y="292.375" width="4.16488" height="0.832977" rx="0.416488" transform="rotate(90 75.7988 292.375)" fill="#3D23A7"/>
<rect x="77.4629" y="294.874" width="4.16488" height="0.832977" rx="0.416488" transform="rotate(180 77.4629 294.874)" fill="#3D23A7"/>
<rect x="66.6348" y="279.047" width="1.66595" height="1.66595" rx="0.832977" transform="rotate(180 66.6348 279.047)" fill="#3D23A7"/>
<circle cx="60.3853" cy="314.449" r="1.24947" transform="rotate(180 60.3853 314.449)" fill="#3D23A7"/>
<circle cx="448.557" cy="166.179" r="4.41435" stroke="#3D23A7" stroke-width="2"/>
<rect x="471.465" y="179.923" width="16.6595" height="1.66595" rx="0.832977" fill="#3D23A7"/>
<rect x="465.633" y="179.923" width="4.16489" height="1.66595" rx="0.832977" fill="#3D23A7"/>
<rect x="287.373" y="17.4924" width="11.6617" height="1.66595" rx="0.832977" fill="#3D23A7"/>
<rect x="300.701" y="17.4924" width="4.99786" height="1.66595" rx="0.832977" fill="#3D23A7"/>
<rect x="259.055" y="30.8201" width="11.6617" height="1.66595" rx="0.832977" fill="#3D23A7"/>
<rect x="272.383" y="30.8201" width="4.99786" height="1.66595" rx="0.832977" fill="#3D23A7"/>
<ellipse cx="280.297" cy="27.0717" rx="15.4101" ry="15.4101" fill="#3D23A7" fill-opacity="0.25"/>
</svg>
