<svg width="19" height="18" viewBox="0 0 19 18" fill="none" xmlns="http://www.w3.org/2000/svg">
<g clip-path="url(#clip0_4057_1321)">
<path d="M9.87158 0C4.90106 0 0.871582 4.02948 0.871582 9C0.871582 13.2206 3.7775 16.7623 7.69754 17.735V11.7504H5.84174V9H7.69754V7.81488C7.69754 4.75164 9.0839 3.3318 12.0913 3.3318C12.6616 3.3318 13.6455 3.44376 14.0479 3.55536V6.04836C13.8355 6.02604 13.4665 6.01488 13.0083 6.01488C11.5326 6.01488 10.9624 6.57396 10.9624 8.02728V9H13.9021L13.3971 11.7504H10.9624V17.9341C15.4188 17.3959 18.8719 13.6015 18.8719 9C18.8716 4.02948 14.8421 0 9.87158 0Z" fill="white" fill-opacity="0.65"/>
</g>
<defs>
<clipPath id="clip0_4057_1321">
<rect width="18" height="18" fill="white" transform="translate(0.871582)"/>
</clipPath>
</defs>
</svg>
