<svg width="240" height="40" viewBox="0 0 240 40" fill="none" xmlns="http://www.w3.org/2000/svg">
<path fill-rule="evenodd" clip-rule="evenodd" d="M19.0452 0.0265182C23.6355 0.34095 25.0818 0.907096 27.2198 2.22765C28.6033 3.10802 30.2383 4.3657 30.8671 5.05742C31.4959 5.74915 32.6278 7.447 33.3196 8.83044C34.1999 10.4654 34.6401 12.5405 34.6401 14.8044C34.6401 16.8795 34.137 19.3949 33.3824 21.0927C32.6907 22.6648 30.8671 25.0544 29.3579 26.3749C27.8487 27.7584 25.7735 29.1418 24.7045 29.4562C23.5726 29.7707 23.0695 30.2108 23.4468 30.5253C23.8241 30.8397 27.0312 31.8458 30.6784 32.7262C34.3257 33.6694 39.1048 34.6127 41.3685 34.8641C43.9468 35.1787 46.2108 35.1157 47.4685 34.6756C48.6003 34.2983 49.7322 34.1725 49.9837 34.424C50.2352 34.7385 49.921 35.493 49.2291 36.2475C48.5373 36.9394 46.9654 38.1343 45.7705 38.8889C44.0098 39.895 42.9407 40.0834 40.1109 39.8319C38.2245 39.5804 34.2628 38.7 31.3073 37.757C28.3517 36.8136 23.2582 34.8641 19.9882 33.355C16.7183 31.8458 12.7566 30.2108 11.1845 29.6449C9.61242 29.0789 7.34861 27.8841 6.15381 26.878C4.95904 25.8719 3.26116 23.671 2.44367 21.9731C1.37465 19.8351 0.871582 17.8228 0.871582 15.4332C0.871582 13.0436 1.37465 11.0313 2.44367 8.89332C3.26116 7.19544 5.52521 3.79974 10.2413 1.59882C12.8396 0.386352 14.9578 -0.127228 19.0452 0.0265182ZM103.057 5.97395H104.944H107.271V8.516L107.27 8.86744C107.269 9.50774 107.267 10.7642 107.271 10.9056H109.723H112.176V12.6034V14.1488C111.892 14.1488 111.576 14.152 111.163 14.1561C110.375 14.1641 109.23 14.1755 107.271 14.1755V17.1939V17.1947C107.271 18.8296 107.271 21.03 107.334 22.036C107.348 22.154 107.357 22.2916 107.367 22.4425C107.439 23.5782 107.558 25.471 110.667 25.4946C111.232 25.4946 111.547 25.4946 112.176 25.4678V27.0667V27.1279L112.176 27.2593C112.177 27.6003 112.178 28.1687 112.171 28.2976H109.346C106.831 28.2976 105.573 28.2976 104.315 27.0399C103.057 25.4678 102.995 25.3059 103.057 15.6847V5.97395ZM36.9038 11.0942H41.9977C41.9977 13.2149 41.9632 15.0293 41.9336 16.581C41.781 24.6457 41.7625 25.6102 47.4054 25.5574C48.7156 25.5452 49.5165 25.5495 50.2843 25.5535C50.656 25.5555 51.0201 25.5574 51.4305 25.5574V11.0313H56.4609L56.4606 14.0498C56.4606 15.6847 56.5236 19.5835 56.7124 28.3872L49.7952 28.3243C48.1485 28.306 46.7951 28.3356 45.658 28.3605C42.887 28.4211 41.4044 28.4535 40.1112 27.6955C38.2248 26.4378 37.4765 24.583 37.2814 23.6081C36.9989 22.1948 36.97 20.5782 36.9216 17.8445C36.916 17.5374 36.9104 17.2162 36.9038 16.8795V11.0942ZM67.2767 11.0942C68.5974 11.0942 70.4838 11.5344 71.4899 12.0375C73.0548 12.7908 73.3377 12.8499 73.3722 12.2147C73.3753 12.1607 73.3764 11.0047 73.3764 11.0047H78.2183L77.9041 28.2976H75.6404H73.3764V27.7584C73.3764 27.0038 73.0621 27.0667 71.3642 28.0728C70.2323 28.7645 68.3459 29.3305 67.0879 29.3305C65.8934 29.3305 64.0697 28.7645 63.0005 28.1357C61.9944 27.5069 60.6741 25.9348 60.0449 24.6771C59.4161 23.4194 58.9131 21.5958 58.9131 20.5268C58.9131 15.4329 61.9317 12.9179 63.0005 12.2261C64.0697 11.5973 65.9561 11.0942 67.2767 11.0942ZM63.7551 20.2752C63.8181 22.7277 64.1327 23.6081 65.3273 24.4884C66.1449 25.1173 67.5913 25.6203 68.5344 25.6203C69.6035 25.5575 70.9869 24.9286 71.8672 23.9854C72.9991 22.8535 73.3764 21.7215 73.3764 19.8979C73.3764 18.221 72.9573 16.9634 72.1187 16.1249C71.3642 15.3703 70.0435 14.8672 68.7859 14.8672C67.591 14.8672 65.9561 15.3703 65.1388 16.062C63.9439 17.0053 63.6924 17.7599 63.7551 20.2752ZM80.2936 11.0942H86.8966C91.2982 11.0942 94.3168 11.4087 95.8887 12.0375C97.2094 12.5405 98.7185 13.7982 99.3473 14.8672C100.165 16.3136 100.228 17.7961 100.228 28.2976H94.8826L94.7568 21.7844C94.5053 15.559 94.3796 15.1817 92.8704 14.4271C92.0528 13.9869 90.1037 13.6096 85.9532 13.6096V28.2976H80.4193L80.2936 11.0942ZM28.1633 15.7473C28.1633 23.2142 23.3772 29.2673 17.4731 29.2673C11.5691 29.2673 6.78289 23.2142 6.78289 15.7473C6.78289 8.28044 11.5691 2.22734 17.4731 2.22734C23.3772 2.22734 28.1633 8.28044 28.1633 15.7473Z" fill="white"/>
<path fill-rule="evenodd" clip-rule="evenodd" d="M118.387 0.0267919L122.097 4.11421C123.588 5.73995 125.24 7.62515 126.426 8.97791C126.891 9.50872 127.285 9.95784 127.568 10.2768C128.512 11.3458 129.455 12.2891 129.769 12.2891C130.021 12.2891 131.341 10.9685 132.788 9.27068C135.24 6.4409 135.492 6.31514 138.447 6.37802C140.145 6.4409 141.591 6.50378 141.717 6.5667C141.78 6.5667 140.208 8.51607 138.259 10.8428C136.246 13.2323 134.045 16.0354 133.731 16.3498C133.102 16.9786 133.983 17.4817 135.303 19.1795C137.064 21.066 142.849 27.9832 143.164 28.2977C141.969 28.2977 141.591 28.2977 140.334 28.2977C139.076 28.2977 137.942 28.2977 136.875 28.2977C135.932 27.3544 133.947 25.223 129.706 20.7784L122.726 28.2977H118.01H113.86C114.045 28.1288 114.313 27.8756 114.671 27.5362C115.649 26.6111 117.304 25.0443 119.834 22.7906C123.292 19.7722 126.122 17.1311 126.122 16.8167C126.185 16.5652 122.475 12.8551 117.947 8.51607C113.231 3.98845 110.15 0.314418 110.15 0C110.21 0 110.348 0.000992512 110.569 0.00259553C111.5 0.00932122 113.919 0.0267919 118.387 0.0267919ZM150.598 11.0943C153.679 11.0943 157.138 11.283 158.332 11.5345C163.426 12.6068 165.187 16.8167 165.25 19.4578C165.25 21.0928 164.81 23.2937 164.307 24.2998C163.803 25.3689 162.231 26.7523 160.848 27.444C159.465 28.1357 156.509 28.9532 154.245 29.2048C151.981 29.4563 149.906 29.8697 149.906 30.1842V33.014C149.89 33.5203 149.897 33.9489 149.902 34.2665C149.904 34.3905 149.906 34.4978 149.906 34.586H144.687V23.671C144.636 18.7874 144.667 13.1462 144.681 11.0943C144.687 11.0943 144.687 11.2571 144.687 11.0943H150.598ZM177.701 11.1572C182.103 11.0943 182.228 11.1572 182.228 12.6664C182.228 14.1756 182.04 14.2385 178.958 14.2385C177.072 14.2385 175.06 14.6158 174.368 15.1189C173.299 15.8734 173.047 16.9425 172.481 29.0161H167.451L167.325 22.602C167.136 16.5023 167.325 13.0279 171.727 11.7231C172.481 11.4087 175.185 11.1572 177.701 11.1572ZM187.95 11.3654C185.125 12.1565 181.348 15.0921 181.348 19.4578C181.348 20.9041 181.914 23.1051 182.606 24.2998C183.36 25.6204 184.932 27.0667 186.63 27.9471C191.409 29.8697 197.069 28.2977 201.471 22.9525C201.156 22.6381 201.108 22.5488 200.528 22.0093C200.116 21.6277 200.213 21.6949 199.899 21.3805C199.158 22.3237 197.132 23.8597 196.189 24.4885C195.245 25.0544 193.673 25.5575 192.604 25.5575C191.598 25.5575 190.152 25.1173 189.46 24.5514C189.043 24.2102 188.58 23.8958 188.265 23.267C188.265 23.267 192.541 21.5959 195.623 20.5897C198.641 19.5207 201.093 18.3259 201.093 17.8857C201.093 17.4456 200.528 16.1879 199.836 15.0559C199.519 14.5377 199.057 13.9667 198.547 13.4516C195.512 9.80831 190.233 10.5355 187.95 11.3654ZM195.079 17.3999C195.117 17.4742 195.151 17.5464 195.182 17.616L186.999 20.7516C186.235 19.2884 185.559 16.0483 188.963 14.794C192.119 13.6314 194.205 15.7917 195.015 17.279C195.049 17.313 195.084 17.3476 195.119 17.3826L195.079 17.3999ZM230.02 11.1572C231.906 11.0943 234.485 11.4087 235.679 11.7231C236.874 12.1004 238.38 12.6378 239.515 13.2056C240.018 13.4571 239.018 14.7415 238.887 15.0559C238.756 15.3704 238.195 15.1817 237.314 14.8673C236.622 14.6158 233.416 14.0231 231.34 13.8344C228.951 13.6457 228.259 14.264 227.882 14.7042C227.442 15.2073 227.505 15.8105 228.196 16.3136C228.699 16.7538 230.712 17.4456 232.598 17.8228C234.485 18.263 236.748 19.3053 237.943 20.1228C239.83 21.4136 239.975 23.0331 239.83 24.2998C239.515 27.04 236.686 28.675 234.799 28.9265C232.409 29.2409 229.328 29.3038 226.938 28.6121C225.052 28.109 223.794 27.6688 222.285 27.0038C222.851 25.4679 223.166 24.839 223.166 24.839C223.813 25.0745 224.692 25.5165 226.247 25.9348C228.322 26.4379 231.969 26.5369 233.227 26.0967C234.17 25.7194 234.736 24.8029 234.736 24.2998C234.799 22.9525 233.71 21.6341 230.397 21.066C227.253 20.5268 224.423 19.4311 223.794 18.8651C222.851 17.9847 221.971 16.5384 222.222 14.7777C222.851 12.5767 223.745 12.1953 225.052 11.6335C226.161 11.1572 228.133 11.1572 230.02 11.1572ZM149.906 14.463V26.0964C150.239 26.0964 150.621 26.1139 151.035 26.1329C154.139 26.275 159.098 26.5019 159.653 20.1225C159.758 17.5023 158.081 13.52 149.906 14.463Z" fill="white"/>
<path d="M210.714 11.1573C212.601 11.0944 215.179 11.4088 216.374 11.7232C217.569 12.1005 219.074 12.6379 220.21 13.2056C220.713 13.4572 219.712 14.7416 219.581 15.056C219.45 15.3704 218.889 15.1818 218.009 14.8674C217.317 14.6158 214.11 14.0231 212.035 13.8345C209.645 13.6458 208.954 14.2641 208.576 14.7043C208.136 15.2073 208.199 15.8106 208.891 16.3137C209.394 16.7539 211.406 17.4456 213.293 17.8229C215.179 18.2631 217.443 19.3054 218.638 20.1228C220.524 21.4136 220.669 23.0332 220.524 24.2999C220.21 27.0401 217.38 28.675 215.494 28.9266C213.104 29.241 210.022 29.3039 207.633 28.6122C205.747 28.1091 204.489 27.6689 202.98 27.0039C203.546 25.468 203.86 24.8391 203.86 24.8391C204.507 25.0746 205.386 25.5166 206.941 25.9349C209.016 26.4379 212.664 26.537 213.921 26.0968C214.865 25.7195 215.431 24.803 215.431 24.2999C215.494 22.9526 214.404 21.6342 211.092 21.0661C207.948 20.5269 205.118 19.4311 204.489 18.8652C203.546 17.9848 202.665 16.5385 202.917 14.7777C203.545 12.5797 204.437 12.1963 205.741 11.6357L205.747 11.6336C206.855 11.1573 208.828 11.1573 210.714 11.1573Z" fill="white"/>
</svg>
