<svg width="567" height="40" viewBox="0 0 567 40" fill="none" xmlns="http://www.w3.org/2000/svg">
<rect x="0.972656" width="566" height="40" rx="20" fill="url(#paint0_linear_925_5566)"/>
<path d="M21.984 25.5V13.8636H29.8249V15.892H24.4442V18.6648H29.4215V20.6932H24.4442V23.4716H29.8477V25.5H21.984ZM34.1559 13.8636V25.5H31.7354V13.8636H34.1559ZM40.0721 25.6705C39.1744 25.6705 38.4016 25.4886 37.7539 25.125C37.11 24.7576 36.6138 24.2386 36.2653 23.5682C35.9168 22.8939 35.7425 22.0966 35.7425 21.1761C35.7425 20.2784 35.9168 19.4905 36.2653 18.8125C36.6138 18.1345 37.1043 17.6061 37.7369 17.2273C38.3732 16.8485 39.1194 16.6591 39.9755 16.6591C40.5513 16.6591 41.0872 16.7519 41.5835 16.9375C42.0835 17.1193 42.5191 17.3939 42.8903 17.7614C43.2653 18.1288 43.5569 18.5909 43.7653 19.1477C43.9736 19.7008 44.0778 20.3485 44.0778 21.0909V21.7557H36.7085V20.2557H41.7994C41.7994 19.9072 41.7236 19.5985 41.5721 19.3295C41.4206 19.0606 41.2103 18.8504 40.9414 18.6989C40.6763 18.5436 40.3675 18.4659 40.0153 18.4659C39.6478 18.4659 39.3221 18.5511 39.038 18.7216C38.7577 18.8883 38.538 19.1136 38.3789 19.3977C38.2198 19.678 38.1384 19.9905 38.1346 20.3352V21.7614C38.1346 22.1932 38.2141 22.5663 38.3732 22.8807C38.5361 23.1951 38.7653 23.4375 39.0607 23.608C39.3562 23.7784 39.7066 23.8636 40.1119 23.8636C40.3808 23.8636 40.627 23.8258 40.8505 23.75C41.074 23.6742 41.2653 23.5606 41.4244 23.4091C41.5835 23.2576 41.7047 23.072 41.788 22.8523L44.0266 23C43.913 23.5379 43.68 24.0076 43.3278 24.4091C42.9793 24.8068 42.5285 25.1174 41.9755 25.3409C41.4263 25.5606 40.7918 25.6705 40.0721 25.6705ZM49.6005 25.6705C48.7066 25.6705 47.9376 25.4811 47.2937 25.1023C46.6535 24.7197 46.1611 24.1894 45.8164 23.5114C45.4755 22.8333 45.305 22.053 45.305 21.1705C45.305 20.2765 45.4774 19.4924 45.8221 18.8182C46.1706 18.1402 46.6649 17.6117 47.305 17.233C47.9452 16.8504 48.7066 16.6591 49.5891 16.6591C50.3505 16.6591 51.0172 16.7973 51.5891 17.0739C52.1611 17.3504 52.6138 17.7386 52.9471 18.2386C53.2804 18.7386 53.4641 19.3258 53.4982 20H51.2141C51.1497 19.5644 50.9793 19.214 50.7028 18.9489C50.43 18.6799 50.0721 18.5455 49.6289 18.5455C49.2539 18.5455 48.9263 18.6477 48.646 18.8523C48.3694 19.053 48.1535 19.3466 47.9982 19.733C47.8429 20.1193 47.7653 20.5871 47.7653 21.1364C47.7653 21.6932 47.841 22.1667 47.9925 22.5568C48.1478 22.947 48.3656 23.2443 48.646 23.4489C48.9263 23.6534 49.2539 23.7557 49.6289 23.7557C49.9054 23.7557 50.1535 23.6989 50.3732 23.5852C50.5967 23.4716 50.7804 23.3068 50.9244 23.0909C51.0721 22.8712 51.1687 22.608 51.2141 22.3011H53.4982C53.4603 22.9678 53.2785 23.5549 52.9528 24.0625C52.6308 24.5663 52.1857 24.9602 51.6175 25.2443C51.0494 25.5284 50.377 25.6705 49.6005 25.6705ZM59.69 16.7727V18.5909H54.4343V16.7727H59.69ZM55.6275 14.6818H58.0479V22.8182C58.0479 23.0417 58.082 23.2159 58.1502 23.3409C58.2184 23.4621 58.3131 23.5473 58.4343 23.5966C58.5593 23.6458 58.7032 23.6705 58.8661 23.6705C58.9798 23.6705 59.0934 23.661 59.207 23.642C59.3207 23.6193 59.4078 23.6023 59.4684 23.5909L59.8491 25.392C59.7279 25.4299 59.5574 25.4735 59.3377 25.5227C59.118 25.5758 58.851 25.608 58.5366 25.6193C57.9532 25.642 57.4419 25.5644 57.0025 25.3864C56.5669 25.2083 56.2279 24.9318 55.9854 24.5568C55.743 24.1818 55.6237 23.7083 55.6275 23.1364V14.6818ZM61.2667 25.5V16.7727H63.6133V18.2955H63.7042C63.8633 17.7538 64.1303 17.3447 64.5053 17.0682C64.8803 16.7879 65.3121 16.6477 65.8008 16.6477C65.922 16.6477 66.0527 16.6553 66.1928 16.6705C66.333 16.6856 66.4561 16.7064 66.5621 16.733V18.8807C66.4485 18.8466 66.2913 18.8163 66.0906 18.7898C65.8898 18.7633 65.7061 18.75 65.5394 18.75C65.1834 18.75 64.8652 18.8277 64.5849 18.983C64.3084 19.1345 64.0887 19.3466 63.9258 19.6193C63.7667 19.892 63.6871 20.2064 63.6871 20.5625V25.5H61.2667ZM71.3505 25.6705C70.4679 25.6705 69.7047 25.483 69.0607 25.108C68.4206 24.7292 67.9263 24.2027 67.5778 23.5284C67.2293 22.8504 67.055 22.0644 67.055 21.1705C67.055 20.2689 67.2293 19.4811 67.5778 18.8068C67.9263 18.1288 68.4206 17.6023 69.0607 17.2273C69.7047 16.8485 70.4679 16.6591 71.3505 16.6591C72.2331 16.6591 72.9944 16.8485 73.6346 17.2273C74.2785 17.6023 74.7747 18.1288 75.1232 18.8068C75.4717 19.4811 75.646 20.2689 75.646 21.1705C75.646 22.0644 75.4717 22.8504 75.1232 23.5284C74.7747 24.2027 74.2785 24.7292 73.6346 25.108C72.9944 25.483 72.2331 25.6705 71.3505 25.6705ZM71.3619 23.7955C71.7634 23.7955 72.0986 23.6818 72.3675 23.4545C72.6365 23.2235 72.8391 22.9091 72.9755 22.5114C73.1156 22.1136 73.1857 21.661 73.1857 21.1534C73.1857 20.6458 73.1156 20.1932 72.9755 19.7955C72.8391 19.3977 72.6365 19.0833 72.3675 18.8523C72.0986 18.6212 71.7634 18.5057 71.3619 18.5057C70.9566 18.5057 70.6156 18.6212 70.3391 18.8523C70.0664 19.0833 69.86 19.3977 69.7198 19.7955C69.5835 20.1932 69.5153 20.6458 69.5153 21.1534C69.5153 21.661 69.5835 22.1136 69.7198 22.5114C69.86 22.9091 70.0664 23.2235 70.3391 23.4545C70.6156 23.6818 70.9566 23.7955 71.3619 23.7955ZM79.6403 20.4545V25.5H77.2198V16.7727H79.5266V18.3125H79.6289C79.8221 17.8049 80.146 17.4034 80.6005 17.108C81.055 16.8087 81.6062 16.6591 82.2539 16.6591C82.86 16.6591 83.3884 16.7917 83.8391 17.0568C84.2899 17.322 84.6403 17.7008 84.8903 18.1932C85.1403 18.6818 85.2653 19.2652 85.2653 19.9432V25.5H82.8448V20.375C82.8486 19.8409 82.7122 19.4242 82.4357 19.125C82.1592 18.822 81.7785 18.6705 81.2937 18.6705C80.9679 18.6705 80.68 18.7405 80.43 18.8807C80.1838 19.0208 79.9906 19.2254 79.8505 19.4943C79.7141 19.7595 79.6441 20.0795 79.6403 20.4545ZM87.1729 25.5V16.7727H89.5934V25.5H87.1729ZM88.3888 15.6477C88.029 15.6477 87.7203 15.5284 87.4627 15.2898C87.2089 15.0473 87.082 14.7576 87.082 14.4205C87.082 14.0871 87.2089 13.8011 87.4627 13.5625C87.7203 13.3201 88.029 13.1989 88.3888 13.1989C88.7487 13.1989 89.0555 13.3201 89.3093 13.5625C89.5669 13.8011 89.6957 14.0871 89.6957 14.4205C89.6957 14.7576 89.5669 15.0473 89.3093 15.2898C89.0555 15.5284 88.7487 15.6477 88.3888 15.6477ZM95.4755 25.6705C94.5816 25.6705 93.8126 25.4811 93.1687 25.1023C92.5285 24.7197 92.0361 24.1894 91.6914 23.5114C91.3505 22.8333 91.18 22.053 91.18 21.1705C91.18 20.2765 91.3524 19.4924 91.6971 18.8182C92.0456 18.1402 92.5399 17.6117 93.18 17.233C93.8202 16.8504 94.5816 16.6591 95.4641 16.6591C96.2255 16.6591 96.8922 16.7973 97.4641 17.0739C98.0361 17.3504 98.4888 17.7386 98.8221 18.2386C99.1554 18.7386 99.3391 19.3258 99.3732 20H97.0891C97.0247 19.5644 96.8543 19.214 96.5778 18.9489C96.305 18.6799 95.9471 18.5455 95.5039 18.5455C95.1289 18.5455 94.8013 18.6477 94.521 18.8523C94.2444 19.053 94.0285 19.3466 93.8732 19.733C93.7179 20.1193 93.6403 20.5871 93.6403 21.1364C93.6403 21.6932 93.716 22.1667 93.8675 22.5568C94.0228 22.947 94.2406 23.2443 94.521 23.4489C94.8013 23.6534 95.1289 23.7557 95.5039 23.7557C95.7804 23.7557 96.0285 23.6989 96.2482 23.5852C96.4717 23.4716 96.6554 23.3068 96.7994 23.0909C96.9471 22.8712 97.0437 22.608 97.0891 22.3011H99.3732C99.3353 22.9678 99.1535 23.5549 98.8278 24.0625C98.5058 24.5663 98.0607 24.9602 97.4925 25.2443C96.9244 25.5284 96.252 25.6705 95.4755 25.6705ZM104.228 15.892V13.8636H113.785V15.892H110.223V25.5H107.791V15.892H104.228ZM114.407 25.5V16.7727H116.754V18.2955H116.845C117.004 17.7538 117.271 17.3447 117.646 17.0682C118.021 16.7879 118.453 16.6477 118.941 16.6477C119.063 16.6477 119.193 16.6553 119.333 16.6705C119.474 16.6856 119.597 16.7064 119.703 16.733V18.8807C119.589 18.8466 119.432 18.8163 119.231 18.7898C119.03 18.7633 118.847 18.75 118.68 18.75C118.324 18.75 118.006 18.8277 117.725 18.983C117.449 19.1345 117.229 19.3466 117.066 19.6193C116.907 19.892 116.828 20.2064 116.828 20.5625V25.5H114.407ZM123.193 25.6648C122.636 25.6648 122.14 25.5682 121.704 25.375C121.269 25.178 120.924 24.8883 120.67 24.5057C120.42 24.1193 120.295 23.6383 120.295 23.0625C120.295 22.5777 120.384 22.1705 120.562 21.8409C120.74 21.5114 120.983 21.2462 121.289 21.0455C121.596 20.8447 121.945 20.6932 122.335 20.5909C122.729 20.4886 123.142 20.4167 123.574 20.375C124.081 20.322 124.49 20.2727 124.801 20.2273C125.111 20.178 125.337 20.1061 125.477 20.0114C125.617 19.9167 125.687 19.7765 125.687 19.5909V19.5568C125.687 19.197 125.574 18.9186 125.346 18.7216C125.123 18.5246 124.805 18.4261 124.392 18.4261C123.956 18.4261 123.609 18.5227 123.352 18.7159C123.094 18.9053 122.924 19.1439 122.841 19.4318L120.602 19.25C120.716 18.7197 120.939 18.2614 121.272 17.875C121.606 17.4848 122.036 17.1856 122.562 16.9773C123.092 16.7652 123.706 16.6591 124.403 16.6591C124.888 16.6591 125.352 16.7159 125.795 16.8295C126.242 16.9432 126.638 17.1193 126.983 17.358C127.331 17.5966 127.606 17.9034 127.806 18.2784C128.007 18.6496 128.108 19.0947 128.108 19.6136V25.5H125.812V24.2898H125.744C125.604 24.5625 125.416 24.803 125.181 25.0114C124.947 25.2159 124.664 25.3769 124.335 25.4943C124.005 25.608 123.625 25.6648 123.193 25.6648ZM123.886 23.9943C124.242 23.9943 124.556 23.9242 124.829 23.7841C125.102 23.6402 125.316 23.447 125.471 23.2045C125.627 22.9621 125.704 22.6875 125.704 22.3807V21.4545C125.628 21.5038 125.524 21.5492 125.392 21.5909C125.263 21.6288 125.117 21.6648 124.954 21.6989C124.791 21.7292 124.628 21.7576 124.466 21.7841C124.303 21.8068 124.155 21.8277 124.022 21.8466C123.738 21.8883 123.49 21.9545 123.278 22.0455C123.066 22.1364 122.901 22.2595 122.784 22.4148C122.666 22.5663 122.608 22.7557 122.608 22.983C122.608 23.3125 122.727 23.5644 122.966 23.7386C123.208 23.9091 123.515 23.9943 123.886 23.9943ZM133.201 25.642C132.538 25.642 131.938 25.4716 131.4 25.1307C130.866 24.786 130.442 24.2803 130.127 23.6136C129.817 22.9432 129.662 22.1212 129.662 21.1477C129.662 20.1477 129.823 19.3163 130.145 18.6534C130.467 17.9867 130.895 17.4886 131.429 17.1591C131.967 16.8258 132.556 16.6591 133.196 16.6591C133.684 16.6591 134.092 16.7424 134.417 16.9091C134.747 17.072 135.012 17.2765 135.213 17.5227C135.417 17.7652 135.573 18.0038 135.679 18.2386H135.752V13.8636H138.167V25.5H135.781V24.1023H135.679C135.565 24.3447 135.404 24.5852 135.196 24.8239C134.991 25.0587 134.724 25.2538 134.395 25.4091C134.069 25.5644 133.671 25.642 133.201 25.642ZM133.968 23.7159C134.359 23.7159 134.688 23.6098 134.957 23.3977C135.23 23.1818 135.438 22.8807 135.582 22.4943C135.73 22.108 135.804 21.6553 135.804 21.1364C135.804 20.6174 135.732 20.1667 135.588 19.7841C135.444 19.4015 135.235 19.1061 134.963 18.8977C134.69 18.6894 134.359 18.5852 133.968 18.5852C133.571 18.5852 133.235 18.6932 132.963 18.9091C132.69 19.125 132.484 19.4242 132.343 19.8068C132.203 20.1894 132.133 20.6326 132.133 21.1364C132.133 21.6439 132.203 22.0928 132.343 22.483C132.487 22.8693 132.694 23.1723 132.963 23.392C133.235 23.608 133.571 23.7159 133.968 23.7159ZM140.157 25.5V16.7727H142.578V25.5H140.157ZM141.373 15.6477C141.013 15.6477 140.705 15.5284 140.447 15.2898C140.193 15.0473 140.066 14.7576 140.066 14.4205C140.066 14.0871 140.193 13.8011 140.447 13.5625C140.705 13.3201 141.013 13.1989 141.373 13.1989C141.733 13.1989 142.04 13.3201 142.294 13.5625C142.551 13.8011 142.68 14.0871 142.68 14.4205C142.68 14.7576 142.551 15.0473 142.294 15.2898C142.04 15.5284 141.733 15.6477 141.373 15.6477ZM146.937 20.4545V25.5H144.517V16.7727H146.824V18.3125H146.926C147.119 17.8049 147.443 17.4034 147.897 17.108C148.352 16.8087 148.903 16.6591 149.551 16.6591C150.157 16.6591 150.685 16.7917 151.136 17.0568C151.587 17.322 151.937 17.7008 152.187 18.1932C152.437 18.6818 152.562 19.2652 152.562 19.9432V25.5H150.142V20.375C150.145 19.8409 150.009 19.4242 149.733 19.125C149.456 18.822 149.075 18.6705 148.591 18.6705C148.265 18.6705 147.977 18.7405 147.727 18.8807C147.481 19.0208 147.288 19.2254 147.147 19.4943C147.011 19.7595 146.941 20.0795 146.937 20.4545ZM158.402 28.9545C157.618 28.9545 156.945 28.8466 156.385 28.6307C155.828 28.4186 155.385 28.1288 155.055 27.7614C154.725 27.3939 154.511 26.9811 154.413 26.5227L156.652 26.2216C156.72 26.3958 156.828 26.5587 156.975 26.7102C157.123 26.8617 157.318 26.983 157.561 27.0739C157.807 27.1686 158.106 27.2159 158.458 27.2159C158.985 27.2159 159.419 27.0871 159.76 26.8295C160.104 26.5758 160.277 26.1496 160.277 25.5511V23.9545H160.174C160.068 24.197 159.909 24.4261 159.697 24.642C159.485 24.858 159.212 25.0341 158.879 25.1705C158.546 25.3068 158.148 25.375 157.686 25.375C157.03 25.375 156.434 25.2235 155.896 24.9205C155.362 24.6136 154.936 24.1458 154.618 23.517C154.303 22.8845 154.146 22.0852 154.146 21.1193C154.146 20.1307 154.307 19.3049 154.629 18.642C154.951 17.9792 155.379 17.483 155.913 17.1534C156.451 16.8239 157.04 16.6591 157.68 16.6591C158.169 16.6591 158.578 16.7424 158.907 16.9091C159.237 17.072 159.502 17.2765 159.703 17.5227C159.907 17.7652 160.065 18.0038 160.174 18.2386H160.265V16.7727H162.669V25.5852C162.669 26.3277 162.487 26.9489 162.123 27.4489C161.76 27.9489 161.256 28.3239 160.612 28.5739C159.972 28.8277 159.235 28.9545 158.402 28.9545ZM158.453 23.5568C158.843 23.5568 159.172 23.4602 159.441 23.267C159.714 23.0701 159.922 22.7898 160.066 22.4261C160.214 22.0587 160.288 21.6193 160.288 21.108C160.288 20.5966 160.216 20.1534 160.072 19.7784C159.928 19.3996 159.72 19.1061 159.447 18.8977C159.174 18.6894 158.843 18.5852 158.453 18.5852C158.055 18.5852 157.72 18.6932 157.447 18.9091C157.174 19.1212 156.968 19.4167 156.828 19.7955C156.688 20.1742 156.618 20.6117 156.618 21.108C156.618 21.6117 156.688 22.0473 156.828 22.4148C156.972 22.7784 157.178 23.0606 157.447 23.2614C157.72 23.4583 158.055 23.5568 158.453 23.5568ZM167.225 23.9091L167.163 24.5341C167.114 25.0341 167.019 25.5322 166.879 26.0284C166.743 26.5284 166.599 26.9811 166.447 27.3864C166.299 27.7917 166.18 28.1098 166.089 28.3409H164.521C164.578 28.1174 164.655 27.8049 164.754 27.4034C164.852 27.0057 164.945 26.5587 165.032 26.0625C165.119 25.5663 165.174 25.0606 165.197 24.5455L165.225 23.9091H167.225ZM172.64 13.8636H175.674L178.879 21.6818H179.015L182.22 13.8636H185.254V25.5H182.868V17.9261H182.771L179.76 25.4432H178.135L175.123 17.8977H175.027V25.5H172.64V13.8636ZM189.724 25.6648C189.167 25.6648 188.671 25.5682 188.235 25.375C187.8 25.178 187.455 24.8883 187.201 24.5057C186.951 24.1193 186.826 23.6383 186.826 23.0625C186.826 22.5777 186.915 22.1705 187.093 21.8409C187.271 21.5114 187.514 21.2462 187.821 21.0455C188.127 20.8447 188.476 20.6932 188.866 20.5909C189.26 20.4886 189.673 20.4167 190.105 20.375C190.612 20.322 191.021 20.2727 191.332 20.2273C191.643 20.178 191.868 20.1061 192.008 20.0114C192.148 19.9167 192.218 19.7765 192.218 19.5909V19.5568C192.218 19.197 192.105 18.9186 191.877 18.7216C191.654 18.5246 191.336 18.4261 190.923 18.4261C190.487 18.4261 190.141 18.5227 189.883 18.7159C189.626 18.9053 189.455 19.1439 189.372 19.4318L187.133 19.25C187.247 18.7197 187.47 18.2614 187.804 17.875C188.137 17.4848 188.567 17.1856 189.093 16.9773C189.624 16.7652 190.237 16.6591 190.934 16.6591C191.419 16.6591 191.883 16.7159 192.326 16.8295C192.773 16.9432 193.169 17.1193 193.514 17.358C193.862 17.5966 194.137 17.9034 194.338 18.2784C194.538 18.6496 194.639 19.0947 194.639 19.6136V25.5H192.343V24.2898H192.275C192.135 24.5625 191.948 24.803 191.713 25.0114C191.478 25.2159 191.196 25.3769 190.866 25.4943C190.537 25.608 190.156 25.6648 189.724 25.6648ZM190.417 23.9943C190.773 23.9943 191.088 23.9242 191.36 23.7841C191.633 23.6402 191.847 23.447 192.002 23.2045C192.158 22.9621 192.235 22.6875 192.235 22.3807V21.4545C192.16 21.5038 192.056 21.5492 191.923 21.5909C191.794 21.6288 191.648 21.6648 191.485 21.6989C191.323 21.7292 191.16 21.7576 190.997 21.7841C190.834 21.8068 190.686 21.8277 190.554 21.8466C190.27 21.8883 190.021 21.9545 189.809 22.0455C189.597 22.1364 189.432 22.2595 189.315 22.4148C189.198 22.5663 189.139 22.7557 189.139 22.983C189.139 23.3125 189.258 23.5644 189.497 23.7386C189.739 23.9091 190.046 23.9943 190.417 23.9943ZM196.517 25.5V16.7727H198.863V18.2955H198.954C199.113 17.7538 199.38 17.3447 199.755 17.0682C200.13 16.7879 200.562 16.6477 201.051 16.6477C201.172 16.6477 201.303 16.6553 201.443 16.6705C201.583 16.6856 201.706 16.7064 201.812 16.733V18.8807C201.699 18.8466 201.541 18.8163 201.341 18.7898C201.14 18.7633 200.956 18.75 200.789 18.75C200.433 18.75 200.115 18.8277 199.835 18.983C199.558 19.1345 199.339 19.3466 199.176 19.6193C199.017 19.892 198.937 20.2064 198.937 20.5625V25.5H196.517ZM205.257 22.9886L205.262 20.0852H205.615L208.41 16.7727H211.189L207.433 21.1591H206.859L205.257 22.9886ZM203.064 25.5V13.8636H205.484V25.5H203.064ZM208.518 25.5L205.95 21.6989L207.564 19.9886L211.353 25.5H208.518ZM215.994 25.6705C215.096 25.6705 214.324 25.4886 213.676 25.125C213.032 24.7576 212.536 24.2386 212.187 23.5682C211.839 22.8939 211.664 22.0966 211.664 21.1761C211.664 20.2784 211.839 19.4905 212.187 18.8125C212.536 18.1345 213.026 17.6061 213.659 17.2273C214.295 16.8485 215.041 16.6591 215.897 16.6591C216.473 16.6591 217.009 16.7519 217.505 16.9375C218.005 17.1193 218.441 17.3939 218.812 17.7614C219.187 18.1288 219.479 18.5909 219.687 19.1477C219.895 19.7008 220 20.3485 220 21.0909V21.7557H212.63V20.2557H217.721C217.721 19.9072 217.645 19.5985 217.494 19.3295C217.342 19.0606 217.132 18.8504 216.863 18.6989C216.598 18.5436 216.289 18.4659 215.937 18.4659C215.57 18.4659 215.244 18.5511 214.96 18.7216C214.68 18.8883 214.46 19.1136 214.301 19.3977C214.142 19.678 214.06 19.9905 214.056 20.3352V21.7614C214.056 22.1932 214.136 22.5663 214.295 22.8807C214.458 23.1951 214.687 23.4375 214.983 23.608C215.278 23.7784 215.628 23.8636 216.034 23.8636C216.303 23.8636 216.549 23.8258 216.772 23.75C216.996 23.6742 217.187 23.5606 217.346 23.4091C217.505 23.2576 217.627 23.072 217.71 22.8523L219.949 23C219.835 23.5379 219.602 24.0076 219.25 24.4091C218.901 24.8068 218.45 25.1174 217.897 25.3409C217.348 25.5606 216.714 25.6705 215.994 25.6705ZM226.221 16.7727V18.5909H220.966V16.7727H226.221ZM222.159 14.6818H224.579V22.8182C224.579 23.0417 224.613 23.2159 224.681 23.3409C224.75 23.4621 224.844 23.5473 224.966 23.5966C225.091 23.6458 225.234 23.6705 225.397 23.6705C225.511 23.6705 225.625 23.661 225.738 23.642C225.852 23.6193 225.939 23.6023 226 23.5909L226.38 25.392C226.259 25.4299 226.089 25.4735 225.869 25.5227C225.649 25.5758 225.382 25.608 225.068 25.6193C224.484 25.642 223.973 25.5644 223.534 25.3864C223.098 25.2083 222.759 24.9318 222.517 24.5568C222.274 24.1818 222.155 23.7083 222.159 23.1364V14.6818ZM235.672 25.5H231.547V13.8636H235.706C236.876 13.8636 237.884 14.0966 238.728 14.5625C239.573 15.0246 240.223 15.6894 240.677 16.5568C241.136 17.4242 241.365 18.4621 241.365 19.6705C241.365 20.8826 241.136 21.9242 240.677 22.7955C240.223 23.6667 239.569 24.3352 238.717 24.8011C237.868 25.267 236.853 25.5 235.672 25.5ZM234.007 23.392H235.569C236.297 23.392 236.908 23.2633 237.404 23.0057C237.904 22.7443 238.279 22.3409 238.529 21.7955C238.783 21.2462 238.91 20.5379 238.91 19.6705C238.91 18.8106 238.783 18.108 238.529 17.5625C238.279 17.017 237.906 16.6155 237.41 16.358C236.914 16.1004 236.302 15.9716 235.575 15.9716H234.007V23.392ZM245.63 25.6648C245.074 25.6648 244.577 25.5682 244.142 25.375C243.706 25.178 243.361 24.8883 243.108 24.5057C242.858 24.1193 242.733 23.6383 242.733 23.0625C242.733 22.5777 242.822 22.1705 243 21.8409C243.178 21.5114 243.42 21.2462 243.727 21.0455C244.034 20.8447 244.382 20.6932 244.772 20.5909C245.166 20.4886 245.579 20.4167 246.011 20.375C246.519 20.322 246.928 20.2727 247.238 20.2273C247.549 20.178 247.774 20.1061 247.914 20.0114C248.055 19.9167 248.125 19.7765 248.125 19.5909V19.5568C248.125 19.197 248.011 18.9186 247.784 18.7216C247.56 18.5246 247.242 18.4261 246.829 18.4261C246.394 18.4261 246.047 18.5227 245.789 18.7159C245.532 18.9053 245.361 19.1439 245.278 19.4318L243.039 19.25C243.153 18.7197 243.377 18.2614 243.71 17.875C244.043 17.4848 244.473 17.1856 245 16.9773C245.53 16.7652 246.144 16.6591 246.841 16.6591C247.325 16.6591 247.789 16.7159 248.233 16.8295C248.68 16.9432 249.075 17.1193 249.42 17.358C249.769 17.5966 250.043 17.9034 250.244 18.2784C250.445 18.6496 250.545 19.0947 250.545 19.6136V25.5H248.25V24.2898H248.181C248.041 24.5625 247.854 24.803 247.619 25.0114C247.384 25.2159 247.102 25.3769 246.772 25.4943C246.443 25.608 246.062 25.6648 245.63 25.6648ZM246.324 23.9943C246.68 23.9943 246.994 23.9242 247.267 23.7841C247.539 23.6402 247.753 23.447 247.909 23.2045C248.064 22.9621 248.142 22.6875 248.142 22.3807V21.4545C248.066 21.5038 247.962 21.5492 247.829 21.5909C247.7 21.6288 247.555 21.6648 247.392 21.6989C247.229 21.7292 247.066 21.7576 246.903 21.7841C246.74 21.8068 246.592 21.8277 246.46 21.8466C246.176 21.8883 245.928 21.9545 245.716 22.0455C245.503 22.1364 245.339 22.2595 245.221 22.4148C245.104 22.5663 245.045 22.7557 245.045 22.983C245.045 23.3125 245.164 23.5644 245.403 23.7386C245.645 23.9091 245.952 23.9943 246.324 23.9943ZM257.065 16.7727V18.5909H251.809V16.7727H257.065ZM253.002 14.6818H255.423V22.8182C255.423 23.0417 255.457 23.2159 255.525 23.3409C255.593 23.4621 255.688 23.5473 255.809 23.5966C255.934 23.6458 256.078 23.6705 256.241 23.6705C256.355 23.6705 256.468 23.661 256.582 23.642C256.696 23.6193 256.783 23.6023 256.843 23.5909L257.224 25.392C257.103 25.4299 256.932 25.4735 256.713 25.5227C256.493 25.5758 256.226 25.608 255.912 25.6193C255.328 25.642 254.817 25.5644 254.377 25.3864C253.942 25.2083 253.603 24.9318 253.36 24.5568C253.118 24.1818 252.999 23.7083 253.002 23.1364V14.6818ZM261.13 25.6648C260.574 25.6648 260.077 25.5682 259.642 25.375C259.206 25.178 258.861 24.8883 258.608 24.5057C258.358 24.1193 258.233 23.6383 258.233 23.0625C258.233 22.5777 258.322 22.1705 258.5 21.8409C258.678 21.5114 258.92 21.2462 259.227 21.0455C259.534 20.8447 259.882 20.6932 260.272 20.5909C260.666 20.4886 261.079 20.4167 261.511 20.375C262.019 20.322 262.428 20.2727 262.738 20.2273C263.049 20.178 263.274 20.1061 263.414 20.0114C263.555 19.9167 263.625 19.7765 263.625 19.5909V19.5568C263.625 19.197 263.511 18.9186 263.284 18.7216C263.06 18.5246 262.742 18.4261 262.329 18.4261C261.894 18.4261 261.547 18.5227 261.289 18.7159C261.032 18.9053 260.861 19.1439 260.778 19.4318L258.539 19.25C258.653 18.7197 258.877 18.2614 259.21 17.875C259.543 17.4848 259.973 17.1856 260.5 16.9773C261.03 16.7652 261.644 16.6591 262.341 16.6591C262.825 16.6591 263.289 16.7159 263.733 16.8295C264.18 16.9432 264.575 17.1193 264.92 17.358C265.269 17.5966 265.543 17.9034 265.744 18.2784C265.945 18.6496 266.045 19.0947 266.045 19.6136V25.5H263.75V24.2898H263.681C263.541 24.5625 263.354 24.803 263.119 25.0114C262.884 25.2159 262.602 25.3769 262.272 25.4943C261.943 25.608 261.562 25.6648 261.13 25.6648ZM261.824 23.9943C262.18 23.9943 262.494 23.9242 262.767 23.7841C263.039 23.6402 263.253 23.447 263.409 23.2045C263.564 22.9621 263.642 22.6875 263.642 22.3807V21.4545C263.566 21.5038 263.462 21.5492 263.329 21.5909C263.2 21.6288 263.055 21.6648 262.892 21.6989C262.729 21.7292 262.566 21.7576 262.403 21.7841C262.24 21.8068 262.092 21.8277 261.96 21.8466C261.676 21.8883 261.428 21.9545 261.216 22.0455C261.003 22.1364 260.839 22.2595 260.721 22.4148C260.604 22.5663 260.545 22.7557 260.545 22.983C260.545 23.3125 260.664 23.5644 260.903 23.7386C261.145 23.9091 261.452 23.9943 261.824 23.9943ZM277.984 17.2102C277.939 16.7519 277.743 16.3958 277.399 16.142C277.054 15.8883 276.586 15.7614 275.995 15.7614C275.594 15.7614 275.255 15.8182 274.978 15.9318C274.702 16.0417 274.49 16.1951 274.342 16.392C274.198 16.589 274.126 16.8125 274.126 17.0625C274.118 17.2708 274.162 17.4527 274.257 17.608C274.355 17.7633 274.49 17.8977 274.66 18.0114C274.831 18.1212 275.028 18.2178 275.251 18.3011C275.475 18.3807 275.713 18.4489 275.967 18.5057L277.012 18.7557C277.52 18.8693 277.986 19.0208 278.41 19.2102C278.834 19.3996 279.202 19.6326 279.512 19.9091C279.823 20.1856 280.064 20.5114 280.234 20.8864C280.408 21.2614 280.497 21.6913 280.501 22.1761C280.497 22.8883 280.315 23.5057 279.956 24.0284C279.6 24.5473 279.084 24.9508 278.41 25.2386C277.74 25.5227 276.931 25.6648 275.984 25.6648C275.045 25.6648 274.226 25.5208 273.529 25.233C272.836 24.9451 272.295 24.5189 271.904 23.9545C271.518 23.3864 271.315 22.6837 271.297 21.8466H273.677C273.704 22.2367 273.815 22.5625 274.012 22.8239C274.213 23.0814 274.48 23.2765 274.814 23.4091C275.151 23.5379 275.531 23.6023 275.956 23.6023C276.372 23.6023 276.734 23.5417 277.041 23.4205C277.351 23.2992 277.592 23.1307 277.762 22.9148C277.933 22.6989 278.018 22.4508 278.018 22.1705C278.018 21.9091 277.94 21.6894 277.785 21.5114C277.634 21.3333 277.41 21.1818 277.115 21.0568C276.823 20.9318 276.465 20.8182 276.041 20.7159L274.774 20.3977C273.793 20.1591 273.018 19.786 272.45 19.2784C271.882 18.7708 271.6 18.0871 271.603 17.2273C271.6 16.5227 271.787 15.9072 272.166 15.3807C272.548 14.8542 273.073 14.4432 273.74 14.1477C274.406 13.8523 275.164 13.7045 276.012 13.7045C276.876 13.7045 277.63 13.8523 278.274 14.1477C278.922 14.4432 279.425 14.8542 279.785 15.3807C280.145 15.9072 280.331 16.517 280.342 17.2102H277.984ZM286.054 25.6705C285.171 25.6705 284.408 25.483 283.764 25.108C283.124 24.7292 282.629 24.2027 282.281 23.5284C281.932 22.8504 281.758 22.0644 281.758 21.1705C281.758 20.2689 281.932 19.4811 282.281 18.8068C282.629 18.1288 283.124 17.6023 283.764 17.2273C284.408 16.8485 285.171 16.6591 286.054 16.6591C286.936 16.6591 287.698 16.8485 288.338 17.2273C288.982 17.6023 289.478 18.1288 289.826 18.8068C290.175 19.4811 290.349 20.2689 290.349 21.1705C290.349 22.0644 290.175 22.8504 289.826 23.5284C289.478 24.2027 288.982 24.7292 288.338 25.108C287.698 25.483 286.936 25.6705 286.054 25.6705ZM286.065 23.7955C286.467 23.7955 286.802 23.6818 287.071 23.4545C287.34 23.2235 287.542 22.9091 287.679 22.5114C287.819 22.1136 287.889 21.661 287.889 21.1534C287.889 20.6458 287.819 20.1932 287.679 19.7955C287.542 19.3977 287.34 19.0833 287.071 18.8523C286.802 18.6212 286.467 18.5057 286.065 18.5057C285.66 18.5057 285.319 18.6212 285.042 18.8523C284.77 19.0833 284.563 19.3977 284.423 19.7955C284.287 20.1932 284.218 20.6458 284.218 21.1534C284.218 21.661 284.287 22.1136 284.423 22.5114C284.563 22.9091 284.77 23.2235 285.042 23.4545C285.319 23.6818 285.66 23.7955 286.065 23.7955ZM294.343 13.8636V25.5H291.923V13.8636H294.343ZM301.879 21.7841V16.7727H304.299V25.5H301.975V23.9148H301.885C301.688 24.4261 301.36 24.8371 300.902 25.1477C300.447 25.4583 299.892 25.6136 299.237 25.6136C298.654 25.6136 298.14 25.4811 297.697 25.2159C297.254 24.9508 296.907 24.5739 296.657 24.0852C296.411 23.5966 296.286 23.0114 296.282 22.3295V16.7727H298.703V21.8977C298.707 22.4129 298.845 22.8201 299.118 23.1193C299.39 23.4186 299.756 23.5682 300.214 23.5682C300.506 23.5682 300.779 23.5019 301.032 23.3693C301.286 23.233 301.491 23.0322 301.646 22.767C301.805 22.5019 301.883 22.1742 301.879 21.7841ZM310.877 16.7727V18.5909H305.622V16.7727H310.877ZM306.815 14.6818H309.235V22.8182C309.235 23.0417 309.27 23.2159 309.338 23.3409C309.406 23.4621 309.501 23.5473 309.622 23.5966C309.747 23.6458 309.891 23.6705 310.054 23.6705C310.167 23.6705 310.281 23.661 310.395 23.642C310.508 23.6193 310.595 23.6023 310.656 23.5909L311.037 25.392C310.915 25.4299 310.745 25.4735 310.525 25.5227C310.306 25.5758 310.038 25.608 309.724 25.6193C309.141 25.642 308.629 25.5644 308.19 25.3864C307.754 25.2083 307.415 24.9318 307.173 24.5568C306.931 24.1818 306.811 23.7083 306.815 23.1364V14.6818ZM312.454 25.5V16.7727H314.875V25.5H312.454ZM313.67 15.6477C313.31 15.6477 313.002 15.5284 312.744 15.2898C312.49 15.0473 312.363 14.7576 312.363 14.4205C312.363 14.0871 312.49 13.8011 312.744 13.5625C313.002 13.3201 313.31 13.1989 313.67 13.1989C314.03 13.1989 314.337 13.3201 314.591 13.5625C314.848 13.8011 314.977 14.0871 314.977 14.4205C314.977 14.7576 314.848 15.0473 314.591 15.2898C314.337 15.5284 314.03 15.6477 313.67 15.6477ZM320.757 25.6705C319.874 25.6705 319.111 25.483 318.467 25.108C317.827 24.7292 317.333 24.2027 316.984 23.5284C316.636 22.8504 316.461 22.0644 316.461 21.1705C316.461 20.2689 316.636 19.4811 316.984 18.8068C317.333 18.1288 317.827 17.6023 318.467 17.2273C319.111 16.8485 319.874 16.6591 320.757 16.6591C321.639 16.6591 322.401 16.8485 323.041 17.2273C323.685 17.6023 324.181 18.1288 324.529 18.8068C324.878 19.4811 325.052 20.2689 325.052 21.1705C325.052 22.0644 324.878 22.8504 324.529 23.5284C324.181 24.2027 323.685 24.7292 323.041 25.108C322.401 25.483 321.639 25.6705 320.757 25.6705ZM320.768 23.7955C321.17 23.7955 321.505 23.6818 321.774 23.4545C322.043 23.2235 322.245 22.9091 322.382 22.5114C322.522 22.1136 322.592 21.661 322.592 21.1534C322.592 20.6458 322.522 20.1932 322.382 19.7955C322.245 19.3977 322.043 19.0833 321.774 18.8523C321.505 18.6212 321.17 18.5057 320.768 18.5057C320.363 18.5057 320.022 18.6212 319.745 18.8523C319.473 19.0833 319.266 19.3977 319.126 19.7955C318.99 20.1932 318.922 20.6458 318.922 21.1534C318.922 21.661 318.99 22.1136 319.126 22.5114C319.266 22.9091 319.473 23.2235 319.745 23.4545C320.022 23.6818 320.363 23.7955 320.768 23.7955ZM329.047 20.4545V25.5H326.626V16.7727H328.933V18.3125H329.035C329.228 17.8049 329.552 17.4034 330.007 17.108C330.461 16.8087 331.012 16.6591 331.66 16.6591C332.266 16.6591 332.795 16.7917 333.245 17.0568C333.696 17.322 334.047 17.7008 334.297 18.1932C334.547 18.6818 334.672 19.2652 334.672 19.9432V25.5H332.251V20.375C332.255 19.8409 332.118 19.4242 331.842 19.125C331.565 18.822 331.185 18.6705 330.7 18.6705C330.374 18.6705 330.086 18.7405 329.836 18.8807C329.59 19.0208 329.397 19.2254 329.257 19.4943C329.12 19.7595 329.05 20.0795 329.047 20.4545ZM339.21 23.9091L339.147 24.5341C339.098 25.0341 339.003 25.5322 338.863 26.0284C338.727 26.5284 338.583 26.9811 338.431 27.3864C338.284 27.7917 338.164 28.1098 338.074 28.3409H336.505C336.562 28.1174 336.64 27.8049 336.738 27.4034C336.837 27.0057 336.93 26.5587 337.017 26.0625C337.104 25.5663 337.159 25.0606 337.181 24.5455L337.21 23.9091H339.21ZM344.181 15.892V13.8636H353.738V15.892H350.176V25.5H347.744V15.892H344.181ZM354.36 25.5V16.7727H356.707V18.2955H356.798C356.957 17.7538 357.224 17.3447 357.599 17.0682C357.974 16.7879 358.406 16.6477 358.895 16.6477C359.016 16.6477 359.146 16.6553 359.287 16.6705C359.427 16.6856 359.55 16.7064 359.656 16.733V18.8807C359.542 18.8466 359.385 18.8163 359.184 18.7898C358.984 18.7633 358.8 18.75 358.633 18.75C358.277 18.75 357.959 18.8277 357.679 18.983C357.402 19.1345 357.182 19.3466 357.02 19.6193C356.86 19.892 356.781 20.2064 356.781 20.5625V25.5H354.36ZM363.146 25.6648C362.589 25.6648 362.093 25.5682 361.657 25.375C361.222 25.178 360.877 24.8883 360.623 24.5057C360.373 24.1193 360.248 23.6383 360.248 23.0625C360.248 22.5777 360.337 22.1705 360.515 21.8409C360.693 21.5114 360.936 21.2462 361.243 21.0455C361.549 20.8447 361.898 20.6932 362.288 20.5909C362.682 20.4886 363.095 20.4167 363.527 20.375C364.034 20.322 364.443 20.2727 364.754 20.2273C365.065 20.178 365.29 20.1061 365.43 20.0114C365.57 19.9167 365.64 19.7765 365.64 19.5909V19.5568C365.64 19.197 365.527 18.9186 365.299 18.7216C365.076 18.5246 364.758 18.4261 364.345 18.4261C363.909 18.4261 363.563 18.5227 363.305 18.7159C363.047 18.9053 362.877 19.1439 362.794 19.4318L360.555 19.25C360.669 18.7197 360.892 18.2614 361.225 17.875C361.559 17.4848 361.989 17.1856 362.515 16.9773C363.046 16.7652 363.659 16.6591 364.356 16.6591C364.841 16.6591 365.305 16.7159 365.748 16.8295C366.195 16.9432 366.591 17.1193 366.936 17.358C367.284 17.5966 367.559 17.9034 367.76 18.2784C367.96 18.6496 368.061 19.0947 368.061 19.6136V25.5H365.765V24.2898H365.697C365.557 24.5625 365.369 24.803 365.135 25.0114C364.9 25.2159 364.618 25.3769 364.288 25.4943C363.958 25.608 363.578 25.6648 363.146 25.6648ZM363.839 23.9943C364.195 23.9943 364.51 23.9242 364.782 23.7841C365.055 23.6402 365.269 23.447 365.424 23.2045C365.58 22.9621 365.657 22.6875 365.657 22.3807V21.4545C365.582 21.5038 365.477 21.5492 365.345 21.5909C365.216 21.6288 365.07 21.6648 364.907 21.6989C364.744 21.7292 364.582 21.7576 364.419 21.7841C364.256 21.8068 364.108 21.8277 363.975 21.8466C363.691 21.8883 363.443 21.9545 363.231 22.0455C363.019 22.1364 362.854 22.2595 362.737 22.4148C362.619 22.5663 362.561 22.7557 362.561 22.983C362.561 23.3125 362.68 23.5644 362.919 23.7386C363.161 23.9091 363.468 23.9943 363.839 23.9943ZM373.154 25.642C372.492 25.642 371.891 25.4716 371.353 25.1307C370.819 24.786 370.395 24.2803 370.081 23.6136C369.77 22.9432 369.615 22.1212 369.615 21.1477C369.615 20.1477 369.776 19.3163 370.098 18.6534C370.42 17.9867 370.848 17.4886 371.382 17.1591C371.92 16.8258 372.509 16.6591 373.149 16.6591C373.637 16.6591 374.045 16.7424 374.37 16.9091C374.7 17.072 374.965 17.2765 375.166 17.5227C375.37 17.7652 375.526 18.0038 375.632 18.2386H375.706V13.8636H378.12V25.5H375.734V24.1023H375.632C375.518 24.3447 375.357 24.5852 375.149 24.8239C374.944 25.0587 374.677 25.2538 374.348 25.4091C374.022 25.5644 373.624 25.642 373.154 25.642ZM373.922 23.7159C374.312 23.7159 374.641 23.6098 374.91 23.3977C375.183 23.1818 375.391 22.8807 375.535 22.4943C375.683 22.108 375.757 21.6553 375.757 21.1364C375.757 20.6174 375.685 20.1667 375.541 19.7841C375.397 19.4015 375.189 19.1061 374.916 18.8977C374.643 18.6894 374.312 18.5852 373.922 18.5852C373.524 18.5852 373.189 18.6932 372.916 18.9091C372.643 19.125 372.437 19.4242 372.297 19.8068C372.156 20.1894 372.086 20.6326 372.086 21.1364C372.086 21.6439 372.156 22.0928 372.297 22.483C372.44 22.8693 372.647 23.1723 372.916 23.392C373.189 23.608 373.524 23.7159 373.922 23.7159ZM380.11 25.5V16.7727H382.531V25.5H380.11ZM381.326 15.6477C380.967 15.6477 380.658 15.5284 380.4 15.2898C380.146 15.0473 380.02 14.7576 380.02 14.4205C380.02 14.0871 380.146 13.8011 380.4 13.5625C380.658 13.3201 380.967 13.1989 381.326 13.1989C381.686 13.1989 381.993 13.3201 382.247 13.5625C382.504 13.8011 382.633 14.0871 382.633 14.4205C382.633 14.7576 382.504 15.0473 382.247 15.2898C381.993 15.5284 381.686 15.6477 381.326 15.6477ZM386.89 20.4545V25.5H384.47V16.7727H386.777V18.3125H386.879C387.072 17.8049 387.396 17.4034 387.85 17.108C388.305 16.8087 388.856 16.6591 389.504 16.6591C390.11 16.6591 390.638 16.7917 391.089 17.0568C391.54 17.322 391.89 17.7008 392.14 18.1932C392.39 18.6818 392.515 19.2652 392.515 19.9432V25.5H390.095V20.375C390.099 19.8409 389.962 19.4242 389.686 19.125C389.409 18.822 389.029 18.6705 388.544 18.6705C388.218 18.6705 387.93 18.7405 387.68 18.8807C387.434 19.0208 387.241 19.2254 387.1 19.4943C386.964 19.7595 386.894 20.0795 386.89 20.4545ZM398.355 28.9545C397.571 28.9545 396.898 28.8466 396.338 28.6307C395.781 28.4186 395.338 28.1288 395.008 27.7614C394.679 27.3939 394.465 26.9811 394.366 26.5227L396.605 26.2216C396.673 26.3958 396.781 26.5587 396.929 26.7102C397.076 26.8617 397.271 26.983 397.514 27.0739C397.76 27.1686 398.059 27.2159 398.412 27.2159C398.938 27.2159 399.372 27.0871 399.713 26.8295C400.057 26.5758 400.23 26.1496 400.23 25.5511V23.9545H400.127C400.021 24.197 399.862 24.4261 399.65 24.642C399.438 24.858 399.165 25.0341 398.832 25.1705C398.499 25.3068 398.101 25.375 397.639 25.375C396.984 25.375 396.387 25.2235 395.849 24.9205C395.315 24.6136 394.889 24.1458 394.571 23.517C394.256 22.8845 394.099 22.0852 394.099 21.1193C394.099 20.1307 394.26 19.3049 394.582 18.642C394.904 17.9792 395.332 17.483 395.866 17.1534C396.404 16.8239 396.993 16.6591 397.633 16.6591C398.122 16.6591 398.531 16.7424 398.86 16.9091C399.19 17.072 399.455 17.2765 399.656 17.5227C399.86 17.7652 400.018 18.0038 400.127 18.2386H400.218V16.7727H402.622V25.5852C402.622 26.3277 402.44 26.9489 402.076 27.4489C401.713 27.9489 401.209 28.3239 400.565 28.5739C399.925 28.8277 399.188 28.9545 398.355 28.9545ZM398.406 23.5568C398.796 23.5568 399.126 23.4602 399.395 23.267C399.667 23.0701 399.876 22.7898 400.02 22.4261C400.167 22.0587 400.241 21.6193 400.241 21.108C400.241 20.5966 400.169 20.1534 400.025 19.7784C399.881 19.3996 399.673 19.1061 399.4 18.8977C399.127 18.6894 398.796 18.5852 398.406 18.5852C398.008 18.5852 397.673 18.6932 397.4 18.9091C397.127 19.1212 396.921 19.4167 396.781 19.7955C396.641 20.1742 396.571 20.6117 396.571 21.108C396.571 21.6117 396.641 22.0473 396.781 22.4148C396.925 22.7784 397.131 23.0606 397.4 23.2614C397.673 23.4583 398.008 23.5568 398.406 23.5568ZM408.297 25.5V13.8636H412.887C413.77 13.8636 414.522 14.0322 415.143 14.3693C415.764 14.7027 416.238 15.1667 416.564 15.7614C416.893 16.3523 417.058 17.0341 417.058 17.8068C417.058 18.5795 416.891 19.2614 416.558 19.8523C416.225 20.4432 415.742 20.9034 415.109 21.233C414.48 21.5625 413.719 21.7273 412.825 21.7273H409.899V19.7557H412.427C412.901 19.7557 413.291 19.6742 413.598 19.5114C413.908 19.3447 414.139 19.1155 414.291 18.8239C414.446 18.5284 414.524 18.1894 414.524 17.8068C414.524 17.4205 414.446 17.0833 414.291 16.7955C414.139 16.5038 413.908 16.2784 413.598 16.1193C413.287 15.9564 412.893 15.875 412.416 15.875H410.757V25.5H408.297ZM421.031 13.8636V25.5H418.61V13.8636H421.031ZM425.458 25.6648C424.902 25.6648 424.405 25.5682 423.97 25.375C423.534 25.178 423.19 24.8883 422.936 24.5057C422.686 24.1193 422.561 23.6383 422.561 23.0625C422.561 22.5777 422.65 22.1705 422.828 21.8409C423.006 21.5114 423.248 21.2462 423.555 21.0455C423.862 20.8447 424.21 20.6932 424.6 20.5909C424.994 20.4886 425.407 20.4167 425.839 20.375C426.347 20.322 426.756 20.2727 427.066 20.2273C427.377 20.178 427.602 20.1061 427.743 20.0114C427.883 19.9167 427.953 19.7765 427.953 19.5909V19.5568C427.953 19.197 427.839 18.9186 427.612 18.7216C427.388 18.5246 427.07 18.4261 426.657 18.4261C426.222 18.4261 425.875 18.5227 425.618 18.7159C425.36 18.9053 425.19 19.1439 425.106 19.4318L422.868 19.25C422.981 18.7197 423.205 18.2614 423.538 17.875C423.871 17.4848 424.301 17.1856 424.828 16.9773C425.358 16.7652 425.972 16.6591 426.669 16.6591C427.154 16.6591 427.618 16.7159 428.061 16.8295C428.508 16.9432 428.904 17.1193 429.248 17.358C429.597 17.5966 429.871 17.9034 430.072 18.2784C430.273 18.6496 430.373 19.0947 430.373 19.6136V25.5H428.078V24.2898H428.01C427.869 24.5625 427.682 24.803 427.447 25.0114C427.212 25.2159 426.93 25.3769 426.6 25.4943C426.271 25.608 425.89 25.6648 425.458 25.6648ZM426.152 23.9943C426.508 23.9943 426.822 23.9242 427.095 23.7841C427.368 23.6402 427.582 23.447 427.737 23.2045C427.892 22.9621 427.97 22.6875 427.97 22.3807V21.4545C427.894 21.5038 427.79 21.5492 427.657 21.5909C427.529 21.6288 427.383 21.6648 427.22 21.6989C427.057 21.7292 426.894 21.7576 426.731 21.7841C426.568 21.8068 426.421 21.8277 426.288 21.8466C426.004 21.8883 425.756 21.9545 425.544 22.0455C425.332 22.1364 425.167 22.2595 425.049 22.4148C424.932 22.5663 424.873 22.7557 424.873 22.983C424.873 23.3125 424.993 23.5644 425.231 23.7386C425.474 23.9091 425.78 23.9943 426.152 23.9943ZM436.893 16.7727V18.5909H431.637V16.7727H436.893ZM432.831 14.6818H435.251V22.8182C435.251 23.0417 435.285 23.2159 435.353 23.3409C435.422 23.4621 435.516 23.5473 435.637 23.5966C435.762 23.6458 435.906 23.6705 436.069 23.6705C436.183 23.6705 436.297 23.661 436.41 23.642C436.524 23.6193 436.611 23.6023 436.672 23.5909L437.052 25.392C436.931 25.4299 436.761 25.4735 436.541 25.5227C436.321 25.5758 436.054 25.608 435.74 25.6193C435.156 25.642 434.645 25.5644 434.206 25.3864C433.77 25.2083 433.431 24.9318 433.189 24.5568C432.946 24.1818 432.827 23.7083 432.831 23.1364V14.6818ZM443.163 16.7727V18.5909H437.777V16.7727H443.163ZM439.01 25.5V16.142C439.01 15.5095 439.133 14.9848 439.379 14.5682C439.629 14.1515 439.97 13.839 440.402 13.6307C440.833 13.4223 441.324 13.3182 441.873 13.3182C442.244 13.3182 442.583 13.3466 442.89 13.4034C443.201 13.4602 443.432 13.5114 443.583 13.5568L443.152 15.375C443.057 15.3447 442.94 15.3163 442.799 15.2898C442.663 15.2633 442.523 15.25 442.379 15.25C442.023 15.25 441.775 15.3333 441.635 15.5C441.494 15.6629 441.424 15.892 441.424 16.1875V25.5H439.01ZM448.272 25.6705C447.39 25.6705 446.627 25.483 445.983 25.108C445.342 24.7292 444.848 24.2027 444.5 23.5284C444.151 22.8504 443.977 22.0644 443.977 21.1705C443.977 20.2689 444.151 19.4811 444.5 18.8068C444.848 18.1288 445.342 17.6023 445.983 17.2273C446.627 16.8485 447.39 16.6591 448.272 16.6591C449.155 16.6591 449.916 16.8485 450.556 17.2273C451.2 17.6023 451.697 18.1288 452.045 18.8068C452.394 19.4811 452.568 20.2689 452.568 21.1705C452.568 22.0644 452.394 22.8504 452.045 23.5284C451.697 24.2027 451.2 24.7292 450.556 25.108C449.916 25.483 449.155 25.6705 448.272 25.6705ZM448.284 23.7955C448.685 23.7955 449.02 23.6818 449.289 23.4545C449.558 23.2235 449.761 22.9091 449.897 22.5114C450.038 22.1136 450.108 21.661 450.108 21.1534C450.108 20.6458 450.038 20.1932 449.897 19.7955C449.761 19.3977 449.558 19.0833 449.289 18.8523C449.02 18.6212 448.685 18.5057 448.284 18.5057C447.878 18.5057 447.538 18.6212 447.261 18.8523C446.988 19.0833 446.782 19.3977 446.642 19.7955C446.505 20.1932 446.437 20.6458 446.437 21.1534C446.437 21.661 446.505 22.1136 446.642 22.5114C446.782 22.9091 446.988 23.2235 447.261 23.4545C447.538 23.6818 447.878 23.7955 448.284 23.7955ZM454.142 25.5V16.7727H456.488V18.2955H456.579C456.738 17.7538 457.005 17.3447 457.38 17.0682C457.755 16.7879 458.187 16.6477 458.676 16.6477C458.797 16.6477 458.928 16.6553 459.068 16.6705C459.208 16.6856 459.331 16.7064 459.437 16.733V18.8807C459.324 18.8466 459.166 18.8163 458.966 18.7898C458.765 18.7633 458.581 18.75 458.414 18.75C458.058 18.75 457.74 18.8277 457.46 18.983C457.183 19.1345 456.964 19.3466 456.801 19.6193C456.642 19.892 456.562 20.2064 456.562 20.5625V25.5H454.142ZM460.689 25.5V16.7727H462.995V18.3125H463.098C463.279 17.8011 463.583 17.3977 464.007 17.1023C464.431 16.8068 464.939 16.6591 465.529 16.6591C466.128 16.6591 466.637 16.8087 467.058 17.108C467.478 17.4034 467.759 17.8049 467.899 18.3125H467.99C468.168 17.8125 468.49 17.4129 468.956 17.1136C469.425 16.8106 469.98 16.6591 470.62 16.6591C471.435 16.6591 472.096 16.9186 472.603 17.4375C473.115 17.9527 473.37 18.6837 473.37 19.6307V25.5H470.956V20.108C470.956 19.6231 470.827 19.2595 470.569 19.017C470.312 18.7746 469.99 18.6534 469.603 18.6534C469.164 18.6534 468.821 18.7936 468.575 19.0739C468.329 19.3504 468.206 19.7159 468.206 20.1705V25.5H465.859V20.0568C465.859 19.6288 465.736 19.2879 465.49 19.0341C465.247 18.7803 464.927 18.6534 464.529 18.6534C464.261 18.6534 464.018 18.7216 463.802 18.858C463.59 18.9905 463.422 19.178 463.297 19.4205C463.172 19.6591 463.109 19.9394 463.109 20.2614V25.5H460.689Z" fill="#202223"/>
<defs>
<linearGradient id="paint0_linear_925_5566" x1="473.077" y1="117.5" x2="534.031" y2="-19.6413" gradientUnits="userSpaceOnUse">
<stop stop-color="#F1EBFF" stop-opacity="0.35"/>
<stop offset="1" stop-color="#C8B1F8" stop-opacity="0.45"/>
</linearGradient>
</defs>
</svg>
