<svg width="36" height="36" viewBox="0 0 36 36" fill="none" xmlns="http://www.w3.org/2000/svg">
<path d="M27 31.5C29.4853 31.5 31.5 29.4853 31.5 27C31.5 24.5147 29.4853 22.5 27 22.5C24.5147 22.5 22.5 24.5147 22.5 27C22.5 29.4853 24.5147 31.5 27 31.5Z" stroke="#202223" stroke-width="1.25" stroke-linecap="round" stroke-linejoin="round"/>
<path d="M9 13.5C11.4853 13.5 13.5 11.4853 13.5 9C13.5 6.51472 11.4853 4.5 9 4.5C6.51472 4.5 4.5 6.51472 4.5 9C4.5 11.4853 6.51472 13.5 9 13.5Z" stroke="#202223" stroke-width="1.25" stroke-linecap="round" stroke-linejoin="round"/>
<path d="M19.5 9H24C24.7956 9 25.5587 9.31607 26.1213 9.87868C26.6839 10.4413 27 11.2044 27 12V22.5" stroke="#202223" stroke-width="1.25" stroke-linecap="round" stroke-linejoin="round"/>
<path d="M16.5 27H12C11.2044 27 10.4413 26.6839 9.87868 26.1213C9.31607 25.5587 9 24.7956 9 24V13.5" stroke="#202223" stroke-width="1.25" stroke-linecap="round" stroke-linejoin="round"/>
</svg>
