<svg width="36" height="36" viewBox="0 0 36 36" fill="none" xmlns="http://www.w3.org/2000/svg">
<path d="M12 7.5H9C7.34315 7.5 6 8.84315 6 10.5V25.5C6 27.1569 7.34315 28.5 9 28.5H12C13.6569 28.5 15 27.1569 15 25.5V10.5C15 8.84315 13.6569 7.5 12 7.5Z" stroke="#202223" stroke-width="1.25" stroke-linecap="round" stroke-linejoin="round"/>
<path d="M27 10.5H24C22.3431 10.5 21 11.8431 21 13.5V22.5C21 24.1569 22.3431 25.5 24 25.5H27C28.6569 25.5 30 24.1569 30 22.5V13.5C30 11.8431 28.6569 10.5 27 10.5Z" stroke="#202223" stroke-width="1.25" stroke-linecap="round" stroke-linejoin="round"/>
<path d="M25.5 33V25.5" stroke="#202223" stroke-width="1.25" stroke-linecap="round" stroke-linejoin="round"/>
<path d="M25.5 10.5V3" stroke="#202223" stroke-width="1.25" stroke-linecap="round" stroke-linejoin="round"/>
<path d="M10.5 33V28.5" stroke="#202223" stroke-width="1.25" stroke-linecap="round" stroke-linejoin="round"/>
<path d="M10.5 7.5V3" stroke="#202223" stroke-width="1.25" stroke-linecap="round" stroke-linejoin="round"/>
</svg>
