<svg width="19" height="18" viewBox="0 0 19 18" fill="none" xmlns="http://www.w3.org/2000/svg">
<g clip-path="url(#clip0_4057_1327)">
<path d="M9.87158 1.6207C12.2763 1.6207 12.561 1.63125 13.5067 1.67344C14.3856 1.71211 14.8603 1.85977 15.1767 1.98281C15.595 2.14453 15.8974 2.34141 16.2103 2.6543C16.5267 2.9707 16.72 3.26953 16.8817 3.68789C17.0048 4.0043 17.1524 4.48242 17.1911 5.35781C17.2333 6.30703 17.2438 6.5918 17.2438 8.99297C17.2438 11.3977 17.2333 11.6824 17.1911 12.6281C17.1524 13.507 17.0048 13.9816 16.8817 14.298C16.72 14.7164 16.5231 15.0187 16.2103 15.3316C15.8938 15.648 15.595 15.8414 15.1767 16.0031C14.8603 16.1262 14.3821 16.2738 13.5067 16.3125C12.5575 16.3547 12.2728 16.3652 9.87158 16.3652C7.4669 16.3652 7.18213 16.3547 6.23643 16.3125C5.35752 16.2738 4.88291 16.1262 4.5665 16.0031C4.14814 15.8414 3.8458 15.6445 3.53291 15.3316C3.2165 15.0152 3.02314 14.7164 2.86143 14.298C2.73838 13.9816 2.59072 13.5035 2.55205 12.6281C2.50986 11.6789 2.49932 11.3941 2.49932 8.99297C2.49932 6.58828 2.50986 6.30351 2.55205 5.35781C2.59072 4.47891 2.73838 4.0043 2.86143 3.68789C3.02314 3.26953 3.22002 2.96719 3.53291 2.6543C3.84932 2.33789 4.14814 2.14453 4.5665 1.98281C4.88291 1.85977 5.36104 1.71211 6.23643 1.67344C7.18213 1.63125 7.4669 1.6207 9.87158 1.6207ZM9.87158 0C7.42822 0 7.12236 0.0105469 6.1626 0.0527344C5.20635 0.0949219 4.54893 0.249609 3.97939 0.471094C3.38525 0.703125 2.88252 1.00898 2.3833 1.51172C1.88057 2.01094 1.57471 2.51367 1.34268 3.1043C1.12119 3.67734 0.966504 4.33125 0.924316 5.2875C0.882129 6.25078 0.871582 6.55664 0.871582 9C0.871582 11.4434 0.882129 11.7492 0.924316 12.709C0.966504 13.6652 1.12119 14.3227 1.34268 14.8922C1.57471 15.4863 1.88057 15.9891 2.3833 16.4883C2.88252 16.9875 3.38525 17.2969 3.97588 17.5254C4.54893 17.7469 5.20283 17.9016 6.15908 17.9437C7.11885 17.9859 7.42471 17.9965 9.86807 17.9965C12.3114 17.9965 12.6173 17.9859 13.5771 17.9437C14.5333 17.9016 15.1907 17.7469 15.7603 17.5254C16.3509 17.2969 16.8536 16.9875 17.3528 16.4883C17.8521 15.9891 18.1614 15.4863 18.3899 14.8957C18.6114 14.3227 18.7661 13.6687 18.8083 12.7125C18.8505 11.7527 18.861 11.4469 18.861 9.00352C18.861 6.56016 18.8505 6.2543 18.8083 5.29453C18.7661 4.33828 18.6114 3.68086 18.3899 3.11133C18.1685 2.51367 17.8626 2.01094 17.3599 1.51172C16.8606 1.0125 16.3579 0.703125 15.7673 0.474609C15.1942 0.253125 14.5403 0.0984375 13.5841 0.05625C12.6208 0.0105469 12.3149 0 9.87158 0Z" fill="white" fill-opacity="0.65"/>
<path d="M9.87158 4.37695C7.31924 4.37695 5.24854 6.44766 5.24854 9C5.24854 11.5523 7.31924 13.623 9.87158 13.623C12.4239 13.623 14.4946 11.5523 14.4946 9C14.4946 6.44766 12.4239 4.37695 9.87158 4.37695ZM9.87158 11.9988C8.21572 11.9988 6.87275 10.6559 6.87275 9C6.87275 7.34414 8.21572 6.00117 9.87158 6.00117C11.5274 6.00117 12.8704 7.34414 12.8704 9C12.8704 10.6559 11.5274 11.9988 9.87158 11.9988Z" fill="white" fill-opacity="0.65"/>
<path d="M15.7567 4.19417C15.7567 4.79182 15.2716 5.27346 14.6774 5.27346C14.0798 5.27346 13.5981 4.78831 13.5981 4.19417C13.5981 3.59651 14.0833 3.11487 14.6774 3.11487C15.2716 3.11487 15.7567 3.60003 15.7567 4.19417Z" fill="white" fill-opacity="0.65"/>
</g>
<defs>
<clipPath id="clip0_4057_1327">
<rect width="18" height="18" fill="white" transform="translate(0.871582)"/>
</clipPath>
</defs>
</svg>
