<svg width="55" height="55" viewBox="0 0 55 55" fill="none" xmlns="http://www.w3.org/2000/svg">
<rect width="55" height="55" rx="27.5" fill="white"/>
<rect x="0.5" y="0.5" width="54" height="54" rx="27" stroke="#202223" stroke-opacity="0.7"/>
<path d="M26.2071 22.2071C26.5976 21.8166 26.5976 21.1834 26.2071 20.7929C25.8166 20.4024 25.1834 20.4024 24.7929 20.7929L18.7929 26.7929C18.4024 27.1834 18.4024 27.8166 18.7929 28.2071L24.7929 34.2071C25.1834 34.5976 25.8166 34.5976 26.2071 34.2071C26.5976 33.8166 26.5976 33.1834 26.2071 32.7929L21.9142 28.5H35.5C36.0523 28.5 36.5 28.0523 36.5 27.5C36.5 26.9477 36.0523 26.5 35.5 26.5H21.9142L26.2071 22.2071Z" fill="#202223" fill-opacity="0.8"/>
</svg>
