<svg width="19" height="18" viewBox="0 0 19 18" fill="none" xmlns="http://www.w3.org/2000/svg">
<g clip-path="url(#clip0_4057_1331)">
<path d="M17.5392 0H2.20049C1.46572 0 0.871582 0.580078 0.871582 1.29727V16.6992C0.871582 17.4164 1.46572 18 2.20049 18H17.5392C18.2739 18 18.8716 17.4164 18.8716 16.7027V1.29727C18.8716 0.580078 18.2739 0 17.5392 0ZM6.21182 15.3387H3.53994V6.74648H6.21182V15.3387ZM4.87588 5.57578C4.01807 5.57578 3.32549 4.8832 3.32549 4.02891C3.32549 3.17461 4.01807 2.48203 4.87588 2.48203C5.73018 2.48203 6.42275 3.17461 6.42275 4.02891C6.42275 4.87969 5.73018 5.57578 4.87588 5.57578ZM16.2103 15.3387H13.5419V11.1621C13.5419 10.1672 13.5243 8.88398 12.1532 8.88398C10.7646 8.88398 10.5536 9.97031 10.5536 11.0918V15.3387H7.88877V6.74648H10.4481V7.9207H10.4833C10.8384 7.2457 11.7103 6.53203 13.0075 6.53203C15.711 6.53203 16.2103 8.31094 16.2103 10.6242V15.3387Z" fill="white" fill-opacity="0.65"/>
</g>
<defs>
<clipPath id="clip0_4057_1331">
<rect width="18" height="18" fill="white" transform="translate(0.871582)"/>
</clipPath>
</defs>
</svg>
