<svg width="150" height="26" viewBox="0 0 150 26" fill="none" xmlns="http://www.w3.org/2000/svg">
<path fill-rule="evenodd" clip-rule="evenodd" d="M11.3778 0.516602C14.2516 0.713455 15.1571 1.0679 16.4956 1.89464C17.3617 2.44581 18.3853 3.23319 18.779 3.66625C19.1727 4.09931 19.8813 5.16227 20.3144 6.02839C20.8656 7.05198 21.1412 8.35114 21.1412 9.76843C21.1412 11.0676 20.8262 12.6424 20.3538 13.7053C19.9207 14.6895 18.779 16.1856 17.8341 17.0123C16.8893 17.8784 15.5901 18.7446 14.9208 18.9414C14.2122 19.1382 13.8973 19.4138 14.1335 19.6107C14.3697 19.8075 16.3775 20.4374 18.6609 20.9886C20.9443 21.5791 23.9363 22.1696 25.3535 22.3271C26.9677 22.524 28.3851 22.4845 29.1725 22.209C29.8811 21.9728 30.5897 21.8941 30.7472 22.0515C30.9046 22.2484 30.7079 22.7207 30.2748 23.1932C29.8416 23.6263 28.8575 24.3744 28.1095 24.8468C27.0072 25.4767 26.3378 25.5947 24.5662 25.4372C23.3852 25.2797 20.9049 24.7286 19.0546 24.1382C17.2043 23.5476 14.0154 22.3271 11.9682 21.3823C9.92098 20.4374 7.44074 19.4138 6.45652 19.0595C5.4723 18.7052 4.05501 17.9572 3.30699 17.3273C2.559 16.6974 1.49602 15.3195 0.984225 14.2565C0.314952 12.918 0 11.6581 0 10.1621C0 8.6661 0.314952 7.40629 0.984225 6.06776C1.49602 5.00478 2.91345 2.87887 5.86599 1.50096C7.49271 0.74188 8.81881 0.420348 11.3778 0.516602ZM63.9746 4.24005H65.1558H66.6123V5.83153L66.6121 6.05155C66.6114 6.45242 66.6103 7.23907 66.6123 7.32755H68.1477H69.6831V8.39051V9.35803C69.5054 9.35803 69.3078 9.36001 69.0489 9.36261C68.5555 9.36756 67.8391 9.37473 66.6123 9.37473V11.2644V11.2649C66.6123 12.2885 66.6123 13.6661 66.6518 14.2959C66.6609 14.3697 66.6664 14.4559 66.6725 14.5503C66.7174 15.2614 66.7922 16.4464 68.7383 16.4611C69.0925 16.4611 69.2895 16.4611 69.6831 16.4444V17.4454V17.4837L69.6833 17.566C69.6838 17.7794 69.6844 18.1353 69.6801 18.216H67.9115C66.3368 18.216 65.5495 18.216 64.7619 17.4286C63.9746 16.4444 63.9353 16.343 63.9746 10.3196V4.24005ZM22.5584 7.44565H25.7474C25.7474 8.77332 25.7258 9.90928 25.7073 10.8807C25.6118 15.9297 25.6002 16.5335 29.133 16.5005C29.9533 16.4929 30.4547 16.4955 30.9354 16.4981C31.1681 16.4993 31.396 16.5005 31.6529 16.5005V7.40629H34.8023L34.8021 9.296C34.8021 10.3196 34.8416 12.7605 34.9598 18.2721L30.6292 18.2328C29.5982 18.2213 28.7509 18.2398 28.039 18.2554C26.3042 18.2933 25.376 18.3136 24.5664 17.8391C23.3854 17.0517 22.9169 15.8905 22.7948 15.2801C22.6179 14.3953 22.5998 13.3832 22.5695 11.6717C22.566 11.4795 22.5625 11.2784 22.5584 11.0676V7.44565ZM41.5737 7.44565C42.4005 7.44565 43.5815 7.72125 44.2114 8.0362C45.1911 8.50785 45.3682 8.54484 45.3898 8.14717C45.3917 8.11333 45.3924 7.38958 45.3924 7.38958H48.4238L48.2271 18.216H46.8098H45.3924V17.8784C45.3924 17.406 45.1957 17.4454 44.1326 18.0753C43.424 18.5083 42.243 18.8627 41.4555 18.8627C40.7076 18.8627 39.5658 18.5083 38.8965 18.1146C38.2666 17.721 37.44 16.7367 37.0461 15.9494C36.6525 15.162 36.3375 14.0203 36.3375 13.351C36.3375 10.1619 38.2274 8.58737 38.8965 8.15431C39.5658 7.76061 40.7469 7.44565 41.5737 7.44565ZM39.3689 13.1935C39.4084 14.7289 39.6053 15.2801 40.3532 15.8313C40.8651 16.2249 41.7706 16.5399 42.361 16.5399C43.0304 16.5005 43.8964 16.1068 44.4476 15.5163C45.1562 14.8077 45.3924 14.099 45.3924 12.9573C45.3924 11.9075 45.13 11.1201 44.6051 10.5952C44.1326 10.1228 43.3058 9.80779 42.5185 9.80779C41.7704 9.80779 40.7469 10.1228 40.2352 10.5558C39.4871 11.1463 39.3296 11.6188 39.3689 13.1935ZM49.723 7.44565H53.8569C56.6126 7.44565 58.5024 7.64251 59.4865 8.0362C60.3133 8.35114 61.2581 9.13853 61.6518 9.80779C62.1637 10.7133 62.2029 11.6414 62.2029 18.216H58.8566L58.7779 14.1384C58.6204 10.2409 58.5417 10.0047 57.5969 9.53222C57.085 9.25663 55.8647 9.02043 53.2663 9.02043V18.216H49.8017L49.723 7.44565ZM17.0863 10.3588C17.0863 15.0335 14.0899 18.8231 10.3936 18.8231C6.69728 18.8231 3.70084 15.0335 3.70084 10.3588C3.70084 5.68406 6.69728 1.89445 10.3936 1.89445C14.0899 1.89445 17.0863 5.68406 17.0863 10.3588Z" fill="#202223"/>
<path fill-rule="evenodd" clip-rule="evenodd" d="M73.572 0.516773L75.8948 3.07575C76.8278 4.09356 77.8625 5.27381 78.6047 6.12071C78.8961 6.45303 79.1425 6.73421 79.32 6.9339C79.9104 7.60319 80.5011 8.19372 80.698 8.19372C80.8555 8.19372 81.6821 7.36696 82.5876 6.30401C84.123 4.5324 84.2805 4.45366 86.1309 4.49303C87.1937 4.5324 88.0992 4.57176 88.178 4.61115C88.2175 4.61115 87.2332 5.83158 86.0127 7.28823C84.7529 8.78425 83.375 10.5391 83.1782 10.7359C82.7843 11.1296 83.3357 11.4446 84.1623 12.5075C85.2646 13.6886 88.8866 18.0192 89.0835 18.216C88.3355 18.216 88.0992 18.216 87.3119 18.216C86.5246 18.216 85.8146 18.216 85.1466 18.216C84.556 17.6255 83.3137 16.2911 80.6585 13.5085L76.2887 18.216H73.3358H70.7376C70.8538 18.1104 71.0213 17.9518 71.2457 17.7393C71.8575 17.1602 72.8939 16.1793 74.4776 14.7683C76.6429 12.8786 78.4145 11.2251 78.4145 11.0283C78.454 10.8708 76.1312 8.54804 73.2965 5.83158C70.3439 2.99701 68.4148 0.696845 68.4148 0.5C68.4527 0.5 68.5387 0.500621 68.6776 0.501625C69.2604 0.505836 70.7744 0.516773 73.572 0.516773ZM93.7378 7.4457C95.6669 7.4457 97.8322 7.56382 98.5801 7.72129C101.769 8.39262 102.871 11.0283 102.911 12.6818C102.911 13.7054 102.635 15.0833 102.32 15.7132C102.005 16.3825 101.021 17.2486 100.155 17.6816C99.2889 18.1147 97.4385 18.6265 96.0211 18.784C94.6039 18.9414 93.3046 19.2003 93.3046 19.3971V21.1687C93.2944 21.4858 93.299 21.7541 93.3023 21.9529C93.3036 22.0305 93.3046 22.0977 93.3046 22.153H90.0371V15.3195C90.0052 12.2621 90.0249 8.73033 90.0336 7.4457C90.0371 7.4457 90.0371 7.54762 90.0371 7.4457H93.7378ZM110.706 7.48506C113.462 7.4457 113.54 7.48506 113.54 8.42992C113.54 9.37477 113.422 9.41414 111.493 9.41414C110.312 9.41414 109.052 9.65037 108.619 9.96533C107.95 10.4377 107.792 11.107 107.438 18.6658H104.289L104.21 14.6502C104.092 10.8314 104.21 8.65624 106.966 7.83939C107.438 7.64255 109.131 7.48506 110.706 7.48506ZM117.123 7.6154C115.354 8.11073 112.989 9.94855 112.989 12.6818C112.989 13.5873 113.344 14.9652 113.777 15.7132C114.249 16.5399 115.233 17.4454 116.296 17.9966C119.288 19.2003 122.832 18.216 125.587 14.8697C125.391 14.6729 125.36 14.6169 124.997 14.2792C124.739 14.0403 124.8 14.0823 124.603 13.8855C124.14 14.476 122.871 15.4376 122.28 15.8313C121.69 16.1856 120.706 16.5006 120.036 16.5006C119.406 16.5006 118.501 16.225 118.068 15.8707C117.807 15.6571 117.517 15.4602 117.32 15.0665C117.32 15.0665 119.997 14.0203 121.926 13.3904C123.816 12.7211 125.351 11.9731 125.351 11.6975C125.351 11.422 124.997 10.6346 124.564 9.92594C124.365 9.60147 124.076 9.24398 123.757 8.92152C121.857 6.6406 118.552 7.09586 117.123 7.6154ZM121.586 11.3934C121.609 11.4399 121.631 11.4851 121.65 11.5287L116.527 13.4918C116.049 12.5757 115.626 10.5472 117.757 9.76197C119.732 9.0341 121.039 10.3866 121.546 11.3177C121.567 11.339 121.589 11.3606 121.611 11.3826L121.586 11.3934ZM143.461 7.48506C144.642 7.4457 146.256 7.64255 147.004 7.83939C147.752 8.07561 148.695 8.41203 149.406 8.7675C149.721 8.92496 149.094 9.7291 149.012 9.92594C148.93 10.1228 148.579 10.0047 148.028 9.80783C147.594 9.65037 145.587 9.27929 144.288 9.16119C142.791 9.04307 142.359 9.43013 142.122 9.70572C141.847 10.0207 141.886 10.3984 142.319 10.7133C142.634 10.9889 143.894 11.422 145.075 11.6582C146.256 11.9338 147.673 12.5863 148.421 13.0981C149.602 13.9062 149.693 14.9201 149.602 15.7132C149.406 17.4287 147.634 18.4523 146.453 18.6097C144.957 18.8066 143.028 18.846 141.532 18.4129C140.351 18.0979 139.563 17.8224 138.619 17.406C138.973 16.4444 139.17 16.0507 139.17 16.0507C139.575 16.1981 140.125 16.4749 141.099 16.7368C142.398 17.0517 144.681 17.1137 145.469 16.8381C146.059 16.6019 146.413 16.0281 146.413 15.7132C146.453 14.8697 145.771 14.0443 143.697 13.6886C141.729 13.351 139.957 12.665 139.563 12.3107C138.973 11.7595 138.422 10.854 138.579 9.75172C138.973 8.3738 139.532 8.135 140.351 7.78327C141.045 7.48506 142.28 7.48506 143.461 7.48506ZM93.3046 9.55471V16.838C93.5134 16.838 93.7522 16.8489 94.0117 16.8608C95.9548 16.9497 99.0597 17.0918 99.4069 13.0979C99.4725 11.4575 98.4226 8.96433 93.3046 9.55471Z" fill="url(#paint0_linear_4001_3132)"/>
<path d="M131.374 7.48505C132.555 7.44568 134.169 7.64252 134.918 7.83935C135.665 8.07558 136.608 8.41202 137.319 8.76746C137.634 8.92493 137.007 9.72906 136.925 9.92592C136.843 10.1228 136.492 10.0047 135.941 9.8078C135.508 9.65033 133.5 9.27925 132.201 9.16115C130.705 9.04305 130.272 9.43011 130.036 9.70568C129.76 10.0206 129.8 10.3983 130.233 10.7133C130.547 10.9889 131.807 11.4219 132.988 11.6581C134.169 11.9337 135.587 12.5862 136.335 13.098C137.516 13.9061 137.607 14.9201 137.516 15.7132C137.319 17.4286 135.547 18.4522 134.366 18.6097C132.87 18.8066 130.941 18.8459 129.445 18.4129C128.264 18.0979 127.477 17.8223 126.532 17.406C126.886 16.4444 127.083 16.0507 127.083 16.0507C127.488 16.1981 128.039 16.4748 129.012 16.7367C130.311 17.0517 132.595 17.1137 133.382 16.8381C133.973 16.6019 134.327 16.0281 134.327 15.7132C134.366 14.8697 133.684 14.0442 131.611 13.6886C129.642 13.351 127.871 12.665 127.477 12.3107C126.886 11.7595 126.335 10.854 126.493 9.75168C126.886 8.37555 127.444 8.13558 128.261 7.78459L128.264 7.78323C128.958 7.48505 130.193 7.48505 131.374 7.48505Z" fill="url(#paint1_linear_4001_3132)"/>
<defs>
<linearGradient id="paint0_linear_4001_3132" x1="78.0804" y1="8.02447" x2="142.093" y2="25.5816" gradientUnits="userSpaceOnUse">
<stop stop-color="#6978FF" stop-opacity="0.84"/>
<stop offset="0.231491" stop-color="#305EFF"/>
</linearGradient>
<linearGradient id="paint1_linear_4001_3132" x1="126.465" y1="13.1156" x2="137.542" y2="13.1156" gradientUnits="userSpaceOnUse">
<stop offset="0.105" stop-color="#305EFF"/>
</linearGradient>
</defs>
</svg>
