<svg width="431" height="41" viewBox="0 0 431 41" fill="none" xmlns="http://www.w3.org/2000/svg">
<rect y="0.5" width="431" height="40" rx="20" fill="url(#paint0_linear_919_17662)"/>
<path d="M21.0114 25.5V13.8636H23.4716V23.4716H28.4602V25.5H21.0114ZM33.9872 25.6705C33.1046 25.6705 32.3414 25.483 31.6974 25.108C31.0573 24.7292 30.563 24.2027 30.2145 23.5284C29.866 22.8504 29.6918 22.0644 29.6918 21.1705C29.6918 20.2689 29.866 19.4811 30.2145 18.8068C30.563 18.1288 31.0573 17.6023 31.6974 17.2273C32.3414 16.8485 33.1046 16.6591 33.9872 16.6591C34.8698 16.6591 35.6312 16.8485 36.2713 17.2273C36.9152 17.6023 37.4115 18.1288 37.7599 18.8068C38.1084 19.4811 38.2827 20.2689 38.2827 21.1705C38.2827 22.0644 38.1084 22.8504 37.7599 23.5284C37.4115 24.2027 36.9152 24.7292 36.2713 25.108C35.6312 25.483 34.8698 25.6705 33.9872 25.6705ZM33.9986 23.7955C34.4001 23.7955 34.7353 23.6818 35.0043 23.4545C35.2732 23.2235 35.4759 22.9091 35.6122 22.5114C35.7524 22.1136 35.8224 21.661 35.8224 21.1534C35.8224 20.6458 35.7524 20.1932 35.6122 19.7955C35.4759 19.3977 35.2732 19.0833 35.0043 18.8523C34.7353 18.6212 34.4001 18.5057 33.9986 18.5057C33.5933 18.5057 33.2524 18.6212 32.9759 18.8523C32.7031 19.0833 32.4967 19.3977 32.3565 19.7955C32.2202 20.1932 32.152 20.6458 32.152 21.1534C32.152 21.661 32.2202 22.1136 32.3565 22.5114C32.4967 22.9091 32.7031 23.2235 32.9759 23.4545C33.2524 23.6818 33.5933 23.7955 33.9986 23.7955ZM41.3594 25.5L38.9844 16.7727H41.4332L42.7855 22.6364H42.8651L44.2741 16.7727H46.6776L48.1094 22.6023H48.1832L49.5128 16.7727H51.956L49.5866 25.5H47.0241L45.5241 20.0114H45.4162L43.9162 25.5H41.3594ZM56.9957 25.5V13.8636H59.456V23.4716H64.4446V25.5H56.9957ZM68.517 25.6648C67.9602 25.6648 67.464 25.5682 67.0284 25.375C66.5928 25.178 66.2481 24.8883 65.9943 24.5057C65.7443 24.1193 65.6193 23.6383 65.6193 23.0625C65.6193 22.5777 65.7083 22.1705 65.8864 21.8409C66.0644 21.5114 66.3068 21.2462 66.6136 21.0455C66.9205 20.8447 67.2689 20.6932 67.6591 20.5909C68.053 20.4886 68.4659 20.4167 68.8977 20.375C69.4053 20.322 69.8144 20.2727 70.125 20.2273C70.4356 20.178 70.661 20.1061 70.8011 20.0114C70.9413 19.9167 71.0114 19.7765 71.0114 19.5909V19.5568C71.0114 19.197 70.8977 18.9186 70.6705 18.7216C70.447 18.5246 70.1288 18.4261 69.7159 18.4261C69.2803 18.4261 68.9337 18.5227 68.6761 18.7159C68.4186 18.9053 68.2481 19.1439 68.1648 19.4318L65.9261 19.25C66.0398 18.7197 66.2633 18.2614 66.5966 17.875C66.9299 17.4848 67.3598 17.1856 67.8864 16.9773C68.4167 16.7652 69.0303 16.6591 69.7273 16.6591C70.2121 16.6591 70.6761 16.7159 71.1193 16.8295C71.5663 16.9432 71.9621 17.1193 72.3068 17.358C72.6553 17.5966 72.9299 17.9034 73.1307 18.2784C73.3314 18.6496 73.4318 19.0947 73.4318 19.6136V25.5H71.1364V24.2898H71.0682C70.928 24.5625 70.7405 24.803 70.5057 25.0114C70.2708 25.2159 69.9886 25.3769 69.6591 25.4943C69.3295 25.608 68.9489 25.6648 68.517 25.6648ZM69.2102 23.9943C69.5663 23.9943 69.8807 23.9242 70.1534 23.7841C70.4261 23.6402 70.6402 23.447 70.7955 23.2045C70.9508 22.9621 71.0284 22.6875 71.0284 22.3807V21.4545C70.9527 21.5038 70.8485 21.5492 70.7159 21.5909C70.5871 21.6288 70.4413 21.6648 70.2784 21.6989C70.1155 21.7292 69.9527 21.7576 69.7898 21.7841C69.6269 21.8068 69.4792 21.8277 69.3466 21.8466C69.0625 21.8883 68.8144 21.9545 68.6023 22.0455C68.3902 22.1364 68.2254 22.2595 68.108 22.4148C67.9905 22.5663 67.9318 22.7557 67.9318 22.983C67.9318 23.3125 68.0511 23.5644 68.2898 23.7386C68.5322 23.9091 68.839 23.9943 69.2102 23.9943ZM79.9517 16.7727V18.5909H74.696V16.7727H79.9517ZM75.8892 14.6818H78.3097V22.8182C78.3097 23.0417 78.3438 23.2159 78.4119 23.3409C78.4801 23.4621 78.5748 23.5473 78.696 23.5966C78.821 23.6458 78.965 23.6705 79.1278 23.6705C79.2415 23.6705 79.3551 23.661 79.4688 23.642C79.5824 23.6193 79.6695 23.6023 79.7301 23.5909L80.1108 25.392C79.9896 25.4299 79.8191 25.4735 79.5994 25.5227C79.3797 25.5758 79.1127 25.608 78.7983 25.6193C78.215 25.642 77.7036 25.5644 77.2642 25.3864C76.8286 25.2083 76.4896 24.9318 76.2472 24.5568C76.0047 24.1818 75.8854 23.7083 75.8892 23.1364V14.6818ZM85.4119 25.6705C84.5142 25.6705 83.7415 25.4886 83.0938 25.125C82.4498 24.7576 81.9536 24.2386 81.6051 23.5682C81.2566 22.8939 81.0824 22.0966 81.0824 21.1761C81.0824 20.2784 81.2566 19.4905 81.6051 18.8125C81.9536 18.1345 82.4441 17.6061 83.0767 17.2273C83.7131 16.8485 84.4593 16.6591 85.3153 16.6591C85.8911 16.6591 86.4271 16.7519 86.9233 16.9375C87.4233 17.1193 87.8589 17.3939 88.2301 17.7614C88.6051 18.1288 88.8968 18.5909 89.1051 19.1477C89.3134 19.7008 89.4176 20.3485 89.4176 21.0909V21.7557H82.0483V20.2557H87.1392C87.1392 19.9072 87.0634 19.5985 86.9119 19.3295C86.7604 19.0606 86.5502 18.8504 86.2812 18.6989C86.0161 18.5436 85.7074 18.4659 85.3551 18.4659C84.9877 18.4659 84.6619 18.5511 84.3778 18.7216C84.0975 18.8883 83.8778 19.1136 83.7188 19.3977C83.5597 19.678 83.4782 19.9905 83.4744 20.3352V21.7614C83.4744 22.1932 83.554 22.5663 83.7131 22.8807C83.8759 23.1951 84.1051 23.4375 84.4006 23.608C84.696 23.7784 85.0464 23.8636 85.4517 23.8636C85.7206 23.8636 85.9669 23.8258 86.1903 23.75C86.4138 23.6742 86.6051 23.5606 86.7642 23.4091C86.9233 23.2576 87.0445 23.072 87.1278 22.8523L89.3665 23C89.2528 23.5379 89.0199 24.0076 88.6676 24.4091C88.3191 24.8068 87.8684 25.1174 87.3153 25.3409C86.7661 25.5606 86.1316 25.6705 85.4119 25.6705ZM93.4176 20.4545V25.5H90.9972V16.7727H93.304V18.3125H93.4062C93.5994 17.8049 93.9233 17.4034 94.3778 17.108C94.8324 16.8087 95.3835 16.6591 96.0312 16.6591C96.6373 16.6591 97.1657 16.7917 97.6165 17.0568C98.0672 17.322 98.4176 17.7008 98.6676 18.1932C98.9176 18.6818 99.0426 19.2652 99.0426 19.9432V25.5H96.6222V20.375C96.6259 19.8409 96.4896 19.4242 96.2131 19.125C95.9366 18.822 95.5559 18.6705 95.071 18.6705C94.7453 18.6705 94.4574 18.7405 94.2074 18.8807C93.9612 19.0208 93.768 19.2254 93.6278 19.4943C93.4915 19.7595 93.4214 20.0795 93.4176 20.4545ZM104.893 25.6705C104 25.6705 103.231 25.4811 102.587 25.1023C101.946 24.7197 101.454 24.1894 101.109 23.5114C100.768 22.8333 100.598 22.053 100.598 21.1705C100.598 20.2765 100.77 19.4924 101.115 18.8182C101.464 18.1402 101.958 17.6117 102.598 17.233C103.238 16.8504 104 16.6591 104.882 16.6591C105.643 16.6591 106.31 16.7973 106.882 17.0739C107.454 17.3504 107.907 17.7386 108.24 18.2386C108.573 18.7386 108.757 19.3258 108.791 20H106.507C106.443 19.5644 106.272 19.214 105.996 18.9489C105.723 18.6799 105.365 18.5455 104.922 18.5455C104.547 18.5455 104.219 18.6477 103.939 18.8523C103.662 19.053 103.446 19.3466 103.291 19.733C103.136 20.1193 103.058 20.5871 103.058 21.1364C103.058 21.6932 103.134 22.1667 103.286 22.5568C103.441 22.947 103.659 23.2443 103.939 23.4489C104.219 23.6534 104.547 23.7557 104.922 23.7557C105.198 23.7557 105.446 23.6989 105.666 23.5852C105.89 23.4716 106.073 23.3068 106.217 23.0909C106.365 22.8712 106.462 22.608 106.507 22.3011H108.791C108.753 22.9678 108.571 23.5549 108.246 24.0625C107.924 24.5663 107.479 24.9602 106.911 25.2443C106.342 25.5284 105.67 25.6705 104.893 25.6705ZM111.835 28.7727C111.528 28.7727 111.241 28.7481 110.972 28.6989C110.706 28.6534 110.487 28.5947 110.312 28.5227L110.858 26.7159C111.142 26.803 111.398 26.8504 111.625 26.858C111.856 26.8655 112.055 26.8125 112.222 26.6989C112.392 26.5852 112.53 26.392 112.636 26.1193L112.778 25.75L109.648 16.7727H112.193L114 23.1818H114.091L115.915 16.7727H118.477L115.085 26.4432C114.922 26.9129 114.701 27.322 114.42 27.6705C114.144 28.0227 113.794 28.2936 113.369 28.483C112.945 28.6761 112.434 28.7727 111.835 28.7727ZM127.396 25.6705C126.499 25.6705 125.726 25.4886 125.078 25.125C124.434 24.7576 123.938 24.2386 123.589 23.5682C123.241 22.8939 123.067 22.0966 123.067 21.1761C123.067 20.2784 123.241 19.4905 123.589 18.8125C123.938 18.1345 124.429 17.6061 125.061 17.2273C125.697 16.8485 126.444 16.6591 127.3 16.6591C127.875 16.6591 128.411 16.7519 128.908 16.9375C129.408 17.1193 129.843 17.3939 130.214 17.7614C130.589 18.1288 130.881 18.5909 131.089 19.1477C131.298 19.7008 131.402 20.3485 131.402 21.0909V21.7557H124.033V20.2557H129.124C129.124 19.9072 129.048 19.5985 128.896 19.3295C128.745 19.0606 128.535 18.8504 128.266 18.6989C128 18.5436 127.692 18.4659 127.339 18.4659C126.972 18.4659 126.646 18.5511 126.362 18.7216C126.082 18.8883 125.862 19.1136 125.703 19.3977C125.544 19.678 125.463 19.9905 125.459 20.3352V21.7614C125.459 22.1932 125.538 22.5663 125.697 22.8807C125.86 23.1951 126.089 23.4375 126.385 23.608C126.68 23.7784 127.031 23.8636 127.436 23.8636C127.705 23.8636 127.951 23.8258 128.175 23.75C128.398 23.6742 128.589 23.5606 128.749 23.4091C128.908 23.2576 129.029 23.072 129.112 22.8523L131.351 23C131.237 23.5379 131.004 24.0076 130.652 24.4091C130.304 24.8068 129.853 25.1174 129.3 25.3409C128.75 25.5606 128.116 25.6705 127.396 25.6705ZM134.848 16.7727L136.45 19.8239L138.092 16.7727H140.575L138.047 21.1364L140.643 25.5H138.172L136.45 22.483L134.757 25.5H132.257L134.848 21.1364L132.348 16.7727H134.848ZM145.643 25.6705C144.75 25.6705 143.981 25.4811 143.337 25.1023C142.696 24.7197 142.204 24.1894 141.859 23.5114C141.518 22.8333 141.348 22.053 141.348 21.1705C141.348 20.2765 141.52 19.4924 141.865 18.8182C142.214 18.1402 142.708 17.6117 143.348 17.233C143.988 16.8504 144.75 16.6591 145.632 16.6591C146.393 16.6591 147.06 16.7973 147.632 17.0739C148.204 17.3504 148.657 17.7386 148.99 18.2386C149.323 18.7386 149.507 19.3258 149.541 20H147.257C147.193 19.5644 147.022 19.214 146.746 18.9489C146.473 18.6799 146.115 18.5455 145.672 18.5455C145.297 18.5455 144.969 18.6477 144.689 18.8523C144.412 19.053 144.196 19.3466 144.041 19.733C143.886 20.1193 143.808 20.5871 143.808 21.1364C143.808 21.6932 143.884 22.1667 144.036 22.5568C144.191 22.947 144.409 23.2443 144.689 23.4489C144.969 23.6534 145.297 23.7557 145.672 23.7557C145.948 23.7557 146.196 23.6989 146.416 23.5852C146.64 23.4716 146.823 23.3068 146.967 23.0909C147.115 22.8712 147.212 22.608 147.257 22.3011H149.541C149.503 22.9678 149.321 23.5549 148.996 24.0625C148.674 24.5663 148.229 24.9602 147.661 25.2443C147.092 25.5284 146.42 25.6705 145.643 25.6705ZM153.511 20.4545V25.5H151.091V13.8636H153.443V18.3125H153.545C153.742 17.7973 154.061 17.3939 154.5 17.1023C154.939 16.8068 155.491 16.6591 156.153 16.6591C156.759 16.6591 157.288 16.7917 157.739 17.0568C158.193 17.3182 158.545 17.6951 158.795 18.1875C159.049 18.6761 159.174 19.2614 159.17 19.9432V25.5H156.75V20.375C156.754 19.8371 156.617 19.4186 156.341 19.1193C156.068 18.8201 155.686 18.6705 155.193 18.6705C154.864 18.6705 154.572 18.7405 154.318 18.8807C154.068 19.0208 153.871 19.2254 153.727 19.4943C153.587 19.7595 153.515 20.0795 153.511 20.4545ZM163.564 25.6648C163.007 25.6648 162.511 25.5682 162.075 25.375C161.64 25.178 161.295 24.8883 161.041 24.5057C160.791 24.1193 160.666 23.6383 160.666 23.0625C160.666 22.5777 160.755 22.1705 160.933 21.8409C161.111 21.5114 161.354 21.2462 161.661 21.0455C161.967 20.8447 162.316 20.6932 162.706 20.5909C163.1 20.4886 163.513 20.4167 163.945 20.375C164.452 20.322 164.861 20.2727 165.172 20.2273C165.482 20.178 165.708 20.1061 165.848 20.0114C165.988 19.9167 166.058 19.7765 166.058 19.5909V19.5568C166.058 19.197 165.945 18.9186 165.717 18.7216C165.494 18.5246 165.176 18.4261 164.763 18.4261C164.327 18.4261 163.981 18.5227 163.723 18.7159C163.465 18.9053 163.295 19.1439 163.212 19.4318L160.973 19.25C161.087 18.7197 161.31 18.2614 161.643 17.875C161.977 17.4848 162.407 17.1856 162.933 16.9773C163.464 16.7652 164.077 16.6591 164.774 16.6591C165.259 16.6591 165.723 16.7159 166.166 16.8295C166.613 16.9432 167.009 17.1193 167.354 17.358C167.702 17.5966 167.977 17.9034 168.178 18.2784C168.378 18.6496 168.479 19.0947 168.479 19.6136V25.5H166.183V24.2898H166.115C165.975 24.5625 165.787 24.803 165.553 25.0114C165.318 25.2159 165.036 25.3769 164.706 25.4943C164.376 25.608 163.996 25.6648 163.564 25.6648ZM164.257 23.9943C164.613 23.9943 164.928 23.9242 165.2 23.7841C165.473 23.6402 165.687 23.447 165.842 23.2045C165.998 22.9621 166.075 22.6875 166.075 22.3807V21.4545C166 21.5038 165.895 21.5492 165.763 21.5909C165.634 21.6288 165.488 21.6648 165.325 21.6989C165.162 21.7292 165 21.7576 164.837 21.7841C164.674 21.8068 164.526 21.8277 164.393 21.8466C164.109 21.8883 163.861 21.9545 163.649 22.0455C163.437 22.1364 163.272 22.2595 163.155 22.4148C163.037 22.5663 162.979 22.7557 162.979 22.983C162.979 23.3125 163.098 23.5644 163.337 23.7386C163.579 23.9091 163.886 23.9943 164.257 23.9943ZM172.777 20.4545V25.5H170.357V16.7727H172.663V18.3125H172.766C172.959 17.8049 173.283 17.4034 173.737 17.108C174.192 16.8087 174.743 16.6591 175.391 16.6591C175.997 16.6591 176.525 16.7917 176.976 17.0568C177.427 17.322 177.777 17.7008 178.027 18.1932C178.277 18.6818 178.402 19.2652 178.402 19.9432V25.5H175.982V20.375C175.985 19.8409 175.849 19.4242 175.572 19.125C175.296 18.822 174.915 18.6705 174.43 18.6705C174.105 18.6705 173.817 18.7405 173.567 18.8807C173.321 19.0208 173.127 19.2254 172.987 19.4943C172.851 19.7595 172.781 20.0795 172.777 20.4545ZM184.241 28.9545C183.457 28.9545 182.785 28.8466 182.224 28.6307C181.668 28.4186 181.224 28.1288 180.895 27.7614C180.565 27.3939 180.351 26.9811 180.253 26.5227L182.491 26.2216C182.56 26.3958 182.668 26.5587 182.815 26.7102C182.963 26.8617 183.158 26.983 183.401 27.0739C183.647 27.1686 183.946 27.2159 184.298 27.2159C184.825 27.2159 185.259 27.0871 185.599 26.8295C185.944 26.5758 186.116 26.1496 186.116 25.5511V23.9545H186.014C185.908 24.197 185.749 24.4261 185.537 24.642C185.325 24.858 185.052 25.0341 184.719 25.1705C184.385 25.3068 183.988 25.375 183.526 25.375C182.87 25.375 182.274 25.2235 181.736 24.9205C181.202 24.6136 180.776 24.1458 180.457 23.517C180.143 22.8845 179.986 22.0852 179.986 21.1193C179.986 20.1307 180.147 19.3049 180.469 18.642C180.791 17.9792 181.219 17.483 181.753 17.1534C182.291 16.8239 182.88 16.6591 183.52 16.6591C184.009 16.6591 184.418 16.7424 184.747 16.9091C185.077 17.072 185.342 17.2765 185.543 17.5227C185.747 17.7652 185.904 18.0038 186.014 18.2386H186.105V16.7727H188.509V25.5852C188.509 26.3277 188.327 26.9489 187.963 27.4489C187.599 27.9489 187.096 28.3239 186.452 28.5739C185.812 28.8277 185.075 28.9545 184.241 28.9545ZM184.293 23.5568C184.683 23.5568 185.012 23.4602 185.281 23.267C185.554 23.0701 185.762 22.7898 185.906 22.4261C186.054 22.0587 186.128 21.6193 186.128 21.108C186.128 20.5966 186.056 20.1534 185.912 19.7784C185.768 19.3996 185.56 19.1061 185.287 18.8977C185.014 18.6894 184.683 18.5852 184.293 18.5852C183.895 18.5852 183.56 18.6932 183.287 18.9091C183.014 19.1212 182.808 19.4167 182.668 19.7955C182.527 20.1742 182.457 20.6117 182.457 21.108C182.457 21.6117 182.527 22.0473 182.668 22.4148C182.812 22.7784 183.018 23.0606 183.287 23.2614C183.56 23.4583 183.895 23.5568 184.293 23.5568ZM194.412 25.6705C193.514 25.6705 192.741 25.4886 192.094 25.125C191.45 24.7576 190.954 24.2386 190.605 23.5682C190.257 22.8939 190.082 22.0966 190.082 21.1761C190.082 20.2784 190.257 19.4905 190.605 18.8125C190.954 18.1345 191.444 17.6061 192.077 17.2273C192.713 16.8485 193.459 16.6591 194.315 16.6591C194.891 16.6591 195.427 16.7519 195.923 16.9375C196.423 17.1193 196.859 17.3939 197.23 17.7614C197.605 18.1288 197.897 18.5909 198.105 19.1477C198.313 19.7008 198.418 20.3485 198.418 21.0909V21.7557H191.048V20.2557H196.139C196.139 19.9072 196.063 19.5985 195.912 19.3295C195.76 19.0606 195.55 18.8504 195.281 18.6989C195.016 18.5436 194.707 18.4659 194.355 18.4659C193.988 18.4659 193.662 18.5511 193.378 18.7216C193.098 18.8883 192.878 19.1136 192.719 19.3977C192.56 19.678 192.478 19.9905 192.474 20.3352V21.7614C192.474 22.1932 192.554 22.5663 192.713 22.8807C192.876 23.1951 193.105 23.4375 193.401 23.608C193.696 23.7784 194.046 23.8636 194.452 23.8636C194.721 23.8636 194.967 23.8258 195.19 23.75C195.414 23.6742 195.605 23.5606 195.764 23.4091C195.923 23.2576 196.045 23.072 196.128 22.8523L198.366 23C198.253 23.5379 198.02 24.0076 197.668 24.4091C197.319 24.8068 196.868 25.1174 196.315 25.3409C195.766 25.5606 195.132 25.6705 194.412 25.6705ZM207.643 25.6705C206.75 25.6705 205.981 25.4811 205.337 25.1023C204.696 24.7197 204.204 24.1894 203.859 23.5114C203.518 22.8333 203.348 22.053 203.348 21.1705C203.348 20.2765 203.52 19.4924 203.865 18.8182C204.214 18.1402 204.708 17.6117 205.348 17.233C205.988 16.8504 206.75 16.6591 207.632 16.6591C208.393 16.6591 209.06 16.7973 209.632 17.0739C210.204 17.3504 210.657 17.7386 210.99 18.2386C211.323 18.7386 211.507 19.3258 211.541 20H209.257C209.193 19.5644 209.022 19.214 208.746 18.9489C208.473 18.6799 208.115 18.5455 207.672 18.5455C207.297 18.5455 206.969 18.6477 206.689 18.8523C206.412 19.053 206.196 19.3466 206.041 19.733C205.886 20.1193 205.808 20.5871 205.808 21.1364C205.808 21.6932 205.884 22.1667 206.036 22.5568C206.191 22.947 206.409 23.2443 206.689 23.4489C206.969 23.6534 207.297 23.7557 207.672 23.7557C207.948 23.7557 208.196 23.6989 208.416 23.5852C208.64 23.4716 208.823 23.3068 208.967 23.0909C209.115 22.8712 209.212 22.608 209.257 22.3011H211.541C211.503 22.9678 211.321 23.5549 210.996 24.0625C210.674 24.5663 210.229 24.9602 209.661 25.2443C209.092 25.5284 208.42 25.6705 207.643 25.6705ZM217.034 25.6705C216.152 25.6705 215.388 25.483 214.744 25.108C214.104 24.7292 213.61 24.2027 213.261 23.5284C212.913 22.8504 212.739 22.0644 212.739 21.1705C212.739 20.2689 212.913 19.4811 213.261 18.8068C213.61 18.1288 214.104 17.6023 214.744 17.2273C215.388 16.8485 216.152 16.6591 217.034 16.6591C217.917 16.6591 218.678 16.8485 219.318 17.2273C219.962 17.6023 220.458 18.1288 220.807 18.8068C221.155 19.4811 221.33 20.2689 221.33 21.1705C221.33 22.0644 221.155 22.8504 220.807 23.5284C220.458 24.2027 219.962 24.7292 219.318 25.108C218.678 25.483 217.917 25.6705 217.034 25.6705ZM217.045 23.7955C217.447 23.7955 217.782 23.6818 218.051 23.4545C218.32 23.2235 218.523 22.9091 218.659 22.5114C218.799 22.1136 218.869 21.661 218.869 21.1534C218.869 20.6458 218.799 20.1932 218.659 19.7955C218.523 19.3977 218.32 19.0833 218.051 18.8523C217.782 18.6212 217.447 18.5057 217.045 18.5057C216.64 18.5057 216.299 18.6212 216.023 18.8523C215.75 19.0833 215.544 19.3977 215.403 19.7955C215.267 20.1932 215.199 20.6458 215.199 21.1534C215.199 21.661 215.267 22.1136 215.403 22.5114C215.544 22.9091 215.75 23.2235 216.023 23.4545C216.299 23.6818 216.64 23.7955 217.045 23.7955ZM225.324 20.4545V25.5H222.903V16.7727H225.21V18.3125H225.312C225.506 17.8049 225.83 17.4034 226.284 17.108C226.739 16.8087 227.29 16.6591 227.938 16.6591C228.544 16.6591 229.072 16.7917 229.523 17.0568C229.973 17.322 230.324 17.7008 230.574 18.1932C230.824 18.6818 230.949 19.2652 230.949 19.9432V25.5H228.528V20.375C228.532 19.8409 228.396 19.4242 228.119 19.125C227.843 18.822 227.462 18.6705 226.977 18.6705C226.652 18.6705 226.364 18.7405 226.114 18.8807C225.867 19.0208 225.674 19.2254 225.534 19.4943C225.398 19.7595 225.328 20.0795 225.324 20.4545ZM235.277 20.4545V25.5H232.857V16.7727H235.163V18.3125H235.266C235.459 17.8049 235.783 17.4034 236.237 17.108C236.692 16.8087 237.243 16.6591 237.891 16.6591C238.497 16.6591 239.025 16.7917 239.476 17.0568C239.927 17.322 240.277 17.7008 240.527 18.1932C240.777 18.6818 240.902 19.2652 240.902 19.9432V25.5H238.482V20.375C238.485 19.8409 238.349 19.4242 238.072 19.125C237.796 18.822 237.415 18.6705 236.93 18.6705C236.605 18.6705 236.317 18.7405 236.067 18.8807C235.821 19.0208 235.627 19.2254 235.487 19.4943C235.351 19.7595 235.281 20.0795 235.277 20.4545ZM246.787 25.6705C245.889 25.6705 245.116 25.4886 244.469 25.125C243.825 24.7576 243.329 24.2386 242.98 23.5682C242.632 22.8939 242.457 22.0966 242.457 21.1761C242.457 20.2784 242.632 19.4905 242.98 18.8125C243.329 18.1345 243.819 17.6061 244.452 17.2273C245.088 16.8485 245.834 16.6591 246.69 16.6591C247.266 16.6591 247.802 16.7519 248.298 16.9375C248.798 17.1193 249.234 17.3939 249.605 17.7614C249.98 18.1288 250.272 18.5909 250.48 19.1477C250.688 19.7008 250.793 20.3485 250.793 21.0909V21.7557H243.423V20.2557H248.514C248.514 19.9072 248.438 19.5985 248.287 19.3295C248.135 19.0606 247.925 18.8504 247.656 18.6989C247.391 18.5436 247.082 18.4659 246.73 18.4659C246.363 18.4659 246.037 18.5511 245.753 18.7216C245.473 18.8883 245.253 19.1136 245.094 19.3977C244.935 19.678 244.853 19.9905 244.849 20.3352V21.7614C244.849 22.1932 244.929 22.5663 245.088 22.8807C245.251 23.1951 245.48 23.4375 245.776 23.608C246.071 23.7784 246.421 23.8636 246.827 23.8636C247.096 23.8636 247.342 23.8258 247.565 23.75C247.789 23.6742 247.98 23.5606 248.139 23.4091C248.298 23.2576 248.42 23.072 248.503 22.8523L250.741 23C250.628 23.5379 250.395 24.0076 250.043 24.4091C249.694 24.8068 249.243 25.1174 248.69 25.3409C248.141 25.5606 247.507 25.6705 246.787 25.6705ZM256.315 25.6705C255.421 25.6705 254.652 25.4811 254.009 25.1023C253.368 24.7197 252.876 24.1894 252.531 23.5114C252.19 22.8333 252.02 22.053 252.02 21.1705C252.02 20.2765 252.192 19.4924 252.537 18.8182C252.885 18.1402 253.38 17.6117 254.02 17.233C254.66 16.8504 255.421 16.6591 256.304 16.6591C257.065 16.6591 257.732 16.7973 258.304 17.0739C258.876 17.3504 259.329 17.7386 259.662 18.2386C259.995 18.7386 260.179 19.3258 260.213 20H257.929C257.865 19.5644 257.694 19.214 257.418 18.9489C257.145 18.6799 256.787 18.5455 256.344 18.5455C255.969 18.5455 255.641 18.6477 255.361 18.8523C255.084 19.053 254.868 19.3466 254.713 19.733C254.558 20.1193 254.48 20.5871 254.48 21.1364C254.48 21.6932 254.556 22.1667 254.707 22.5568C254.863 22.947 255.08 23.2443 255.361 23.4489C255.641 23.6534 255.969 23.7557 256.344 23.7557C256.62 23.7557 256.868 23.6989 257.088 23.5852C257.312 23.4716 257.495 23.3068 257.639 23.0909C257.787 22.8712 257.884 22.608 257.929 22.3011H260.213C260.175 22.9678 259.993 23.5549 259.668 24.0625C259.346 24.5663 258.901 24.9602 258.332 25.2443C257.764 25.5284 257.092 25.6705 256.315 25.6705ZM266.405 16.7727V18.5909H261.149V16.7727H266.405ZM262.342 14.6818H264.763V22.8182C264.763 23.0417 264.797 23.2159 264.865 23.3409C264.933 23.4621 265.028 23.5473 265.149 23.5966C265.274 23.6458 265.418 23.6705 265.581 23.6705C265.695 23.6705 265.808 23.661 265.922 23.642C266.036 23.6193 266.123 23.6023 266.183 23.5909L266.564 25.392C266.443 25.4299 266.272 25.4735 266.053 25.5227C265.833 25.5758 265.566 25.608 265.251 25.6193C264.668 25.642 264.157 25.5644 263.717 25.3864C263.282 25.2083 262.943 24.9318 262.7 24.5568C262.458 24.1818 262.339 23.7083 262.342 23.1364V14.6818ZM267.982 25.5V16.7727H270.402V25.5H267.982ZM269.197 15.6477C268.838 15.6477 268.529 15.5284 268.271 15.2898C268.018 15.0473 267.891 14.7576 267.891 14.4205C267.891 14.0871 268.018 13.8011 268.271 13.5625C268.529 13.3201 268.838 13.1989 269.197 13.1989C269.557 13.1989 269.864 13.3201 270.118 13.5625C270.375 13.8011 270.504 14.0871 270.504 14.4205C270.504 14.7576 270.375 15.0473 270.118 15.2898C269.864 15.5284 269.557 15.6477 269.197 15.6477ZM280.477 16.7727L277.426 25.5H274.699L271.648 16.7727H274.205L276.017 23.017H276.108L277.915 16.7727H280.477ZM281.716 25.5V16.7727H284.136V25.5H281.716ZM282.932 15.6477C282.572 15.6477 282.263 15.5284 282.006 15.2898C281.752 15.0473 281.625 14.7576 281.625 14.4205C281.625 14.0871 281.752 13.8011 282.006 13.5625C282.263 13.3201 282.572 13.1989 282.932 13.1989C283.292 13.1989 283.598 13.3201 283.852 13.5625C284.11 13.8011 284.239 14.0871 284.239 14.4205C284.239 14.7576 284.11 15.0473 283.852 15.2898C283.598 15.5284 283.292 15.6477 282.932 15.6477ZM290.717 16.7727V18.5909H285.462V16.7727H290.717ZM286.655 14.6818H289.075V22.8182C289.075 23.0417 289.109 23.2159 289.178 23.3409C289.246 23.4621 289.34 23.5473 289.462 23.5966C289.587 23.6458 289.731 23.6705 289.893 23.6705C290.007 23.6705 290.121 23.661 290.234 23.642C290.348 23.6193 290.435 23.6023 290.496 23.5909L290.876 25.392C290.755 25.4299 290.585 25.4735 290.365 25.5227C290.145 25.5758 289.878 25.608 289.564 25.6193C288.981 25.642 288.469 25.5644 288.03 25.3864C287.594 25.2083 287.255 24.9318 287.013 24.5568C286.77 24.1818 286.651 23.7083 286.655 23.1364V14.6818ZM293.788 28.7727C293.482 28.7727 293.194 28.7481 292.925 28.6989C292.66 28.6534 292.44 28.5947 292.266 28.5227L292.811 26.7159C293.095 26.803 293.351 26.8504 293.578 26.858C293.809 26.8655 294.008 26.8125 294.175 26.6989C294.345 26.5852 294.483 26.392 294.589 26.1193L294.732 25.75L291.601 16.7727H294.146L295.953 23.1818H296.044L297.868 16.7727H300.43L297.038 26.4432C296.875 26.9129 296.654 27.322 296.374 27.6705C296.097 28.0227 295.747 28.2936 295.322 28.483C294.898 28.6761 294.387 28.7727 293.788 28.7727Z" fill="#202223"/>
<defs>
<linearGradient id="paint0_linear_919_17662" x1="359.5" y1="118" x2="431" y2="-4.5" gradientUnits="userSpaceOnUse">
<stop stop-color="#F1EBFF" stop-opacity="0.35"/>
<stop offset="1" stop-color="#C8B1F8" stop-opacity="0.45"/>
</linearGradient>
</defs>
</svg>
