<svg width="178" height="50" viewBox="0 0 178 50" fill="none" xmlns="http://www.w3.org/2000/svg">
<g clip-path="url(#clip0_2109_2595)">
<path d="M4.12192 23.0754C7.91014 17.0282 19.2572 9.67275 26.1948 5.87156C33.6771 1.77192 39.3952 0.894333 41.451 0.353333C45.0379 -0.175677 51.5299 -0.824848 52.8121 4.24856C54.4104 10.5741 53.1529 23.8448 52.1629 30.5411C51.0802 37.8636 46.9854 49.1636 35.2835 49.6928C25.9026 50.1167 24.2635 48.8392 19.5802 47.8181L17.4469 47.2161C15.0381 46.6603 -8.44683 38.3342 4.12192 23.0754Z" fill="url(#paint0_radial_2109_2595)"/>
<path d="M15.3498 16.9537C15.3498 16.482 15.5801 16.2461 16.0406 16.2461H22.8635C23.8519 16.2461 24.8627 16.3303 25.896 16.4988C26.9405 16.6673 27.9008 16.9705 28.7769 17.4085C29.6641 17.8353 30.3772 18.4418 30.9163 19.228C31.4666 20.003 31.7419 20.9969 31.7419 22.2099C31.7419 23.3105 31.5061 24.2764 31.0344 25.1075C30.5738 25.9274 29.8944 26.6406 28.9958 27.2471C28.9622 27.2696 28.9227 27.2977 28.8777 27.3313C28.833 27.3538 28.8105 27.3931 28.8105 27.4493C28.8105 27.4942 28.833 27.5335 28.8777 27.5672C28.9341 27.6009 28.9788 27.629 29.0127 27.6514C30.1583 28.2243 31.1186 28.9318 31.8936 29.7741C32.6683 30.6166 33.0558 31.7227 33.0558 33.093C33.0558 34.3846 32.7863 35.4682 32.2472 36.3443C31.708 37.2091 30.9894 37.8999 30.0908 38.4166C29.2036 38.9332 28.2152 39.3038 27.1258 39.5285C26.0476 39.753 24.9638 39.8655 23.8743 39.8655H16.0237C15.5632 39.8655 15.333 39.6296 15.333 39.158C15.333 38.5288 15.3442 37.8999 15.3667 37.271C15.3891 36.6307 15.406 35.9963 15.4172 35.3674C15.4509 32.8402 15.4678 30.3132 15.4678 27.7863C15.4678 25.4276 15.4509 23.0691 15.4172 20.7105C15.406 20.0816 15.3891 19.4526 15.3667 18.8237C15.3555 18.1947 15.3498 17.5714 15.3498 16.9537ZM19.6795 26.1183H23.6048C24.2225 26.1183 24.8178 26.0173 25.3906 25.8151C25.9746 25.6017 26.4519 25.2704 26.8225 24.8211C27.1932 24.3719 27.3785 23.7991 27.3785 23.1028C27.3785 22.3278 27.1483 21.7438 26.6878 21.3507C26.2273 20.9464 25.6657 20.6712 25.0031 20.5252C24.3405 20.3792 23.7003 20.3062 23.0825 20.3062H19.6626C19.6739 21.2721 19.6795 22.2436 19.6795 23.2207C19.6795 24.1866 19.6795 25.1525 19.6795 26.1183ZM19.6626 35.9402H23.7733C24.245 35.9402 24.7616 35.9007 25.3232 35.8221C25.8847 35.7435 26.4182 35.5974 26.9236 35.3841C27.4403 35.1707 27.8614 34.8732 28.1871 34.4913C28.5241 34.0982 28.6925 33.5982 28.6925 32.9918C28.6925 32.363 28.5072 31.8632 28.1366 31.4924C27.766 31.1107 27.2943 30.8243 26.7215 30.6332C26.1599 30.4424 25.5759 30.3188 24.9694 30.2627C24.3629 30.1952 23.8294 30.1616 23.369 30.1616H19.6795C19.6795 31.1163 19.6795 32.0766 19.6795 33.0424C19.6795 34.0082 19.6739 34.9741 19.6626 35.9402Z" fill="white"/>
<path d="M31.7833 16.9537C31.7833 16.482 32.0136 16.2461 32.4739 16.2461H46.7602C47.2205 16.2461 47.4508 16.482 47.4508 16.9537C47.4508 17.3917 47.4508 17.8409 47.4508 18.3014C47.4622 18.7507 47.4508 19.1943 47.4172 19.6323C47.3836 20.0816 47.1533 20.3062 46.7264 20.3062H41.8408C41.7061 20.3062 41.6386 20.3736 41.6386 20.5083C41.6386 21.6989 41.633 22.8894 41.6219 24.0799C41.6219 25.2592 41.6219 26.4441 41.6219 27.6346C41.6219 29.5552 41.6275 31.4813 41.6386 33.413C41.65 35.3335 41.6555 37.2541 41.6555 39.1746C41.6555 39.6352 41.4252 39.8655 40.9647 39.8655H38.0502C37.5897 39.8655 37.3597 39.6352 37.3597 39.1746C37.3597 37.198 37.3652 35.2213 37.3764 33.2446C37.3989 31.268 37.4102 29.2968 37.4102 27.3313L37.3933 20.5083C37.3933 20.3736 37.3202 20.3062 37.1741 20.3062H32.5077C32.0808 20.3062 31.8505 20.0816 31.8169 19.6323C31.7833 19.1943 31.7664 18.7507 31.7664 18.3014C31.7777 17.8409 31.7833 17.3917 31.7833 16.9537Z" fill="white"/>
</g>
<path d="M72.9901 32V17.4545H78.5583C79.6094 17.4545 80.483 17.6203 81.179 17.9517C81.8798 18.2784 82.403 18.7259 82.7486 19.294C83.099 19.8622 83.2742 20.5062 83.2742 21.2259C83.2742 21.8177 83.1605 22.3243 82.9333 22.7457C82.706 23.1624 82.4006 23.5009 82.0171 23.7614C81.6335 24.0218 81.205 24.2088 80.7316 24.3224V24.4645C81.2477 24.4929 81.7424 24.6515 82.2159 24.9403C82.6942 25.2244 83.0848 25.6269 83.3878 26.1477C83.6908 26.6686 83.8424 27.2983 83.8424 28.0369C83.8424 28.7898 83.6601 29.4669 83.2955 30.0682C82.9309 30.6648 82.3817 31.1359 81.6477 31.4815C80.9138 31.8272 79.9906 32 78.8779 32H72.9901ZM75.625 29.7983H78.4588C79.4153 29.7983 80.1042 29.616 80.5256 29.2514C80.9517 28.8821 81.1648 28.4086 81.1648 27.831C81.1648 27.4001 81.0583 27.0118 80.8452 26.6662C80.6321 26.3158 80.3291 26.0412 79.9361 25.8423C79.5431 25.6387 79.0744 25.5369 78.5299 25.5369H75.625V29.7983ZM75.625 23.6406H78.2316C78.6861 23.6406 79.0957 23.5578 79.4602 23.392C79.8248 23.2216 80.1113 22.9825 80.3196 22.6747C80.5327 22.3622 80.6392 21.9929 80.6392 21.5668C80.6392 21.0033 80.4404 20.5393 80.0426 20.1747C79.6496 19.8101 79.0649 19.6278 78.2884 19.6278H75.625V23.6406ZM88.592 17.4545V32H86.021V17.4545H88.592ZM91.2358 32V21.0909H93.8068V32H91.2358ZM92.5284 19.5426C92.1212 19.5426 91.7709 19.4077 91.4773 19.1378C91.1837 18.8632 91.037 18.5341 91.037 18.1506C91.037 17.7623 91.1837 17.4332 91.4773 17.1634C91.7709 16.8887 92.1212 16.7514 92.5284 16.7514C92.9404 16.7514 93.2907 16.8887 93.5796 17.1634C93.8731 17.4332 94.0199 17.7623 94.0199 18.1506C94.0199 18.5341 93.8731 18.8632 93.5796 19.1378C93.2907 19.4077 92.9404 19.5426 92.5284 19.5426ZM101.898 21.0909V23.0795H95.6268V21.0909H101.898ZM97.1751 18.4773H99.7461V28.7188C99.7461 29.0644 99.7982 29.3295 99.9024 29.5142C100.011 29.6941 100.153 29.8172 100.329 29.8835C100.504 29.9498 100.698 29.983 100.911 29.983C101.072 29.983 101.219 29.9711 101.351 29.9474C101.489 29.9238 101.593 29.9025 101.664 29.8835L102.097 31.8935C101.96 31.9408 101.763 31.9929 101.507 32.0497C101.257 32.1065 100.949 32.1397 100.584 32.1491C99.9402 32.1681 99.3602 32.071 98.8441 31.858C98.328 31.6402 97.9185 31.304 97.6154 30.8494C97.3171 30.3949 97.1704 29.8267 97.1751 29.1449V18.4773ZM103.906 32V30.3665L109.531 23.3139V23.2216H104.091V21.0909H112.678V22.8452L107.322 29.777V29.8693H112.862V32H103.906ZM114.07 19.6634V17.4545H125.675V19.6634H121.179V32H118.565V19.6634H114.07ZM126.666 32V21.0909H129.158V22.9091H129.272C129.471 22.2794 129.812 21.794 130.295 21.4531C130.782 21.1075 131.339 20.9347 131.964 20.9347C132.106 20.9347 132.264 20.9418 132.44 20.956C132.62 20.9654 132.769 20.982 132.887 21.0057V23.3707C132.778 23.3329 132.605 23.2997 132.369 23.2713C132.137 23.2382 131.912 23.2216 131.694 23.2216C131.225 23.2216 130.804 23.3234 130.43 23.527C130.06 23.7259 129.769 24.0028 129.556 24.358C129.343 24.7131 129.237 25.1226 129.237 25.5866V32H126.666ZM137.539 32.2202C136.848 32.2202 136.225 32.0971 135.671 31.8509C135.122 31.5999 134.686 31.2306 134.364 30.7429C134.047 30.2552 133.889 29.6539 133.889 28.9389C133.889 28.3234 134.002 27.8144 134.229 27.4119C134.457 27.0095 134.767 26.6875 135.16 26.446C135.553 26.2045 135.996 26.0223 136.488 25.8991C136.985 25.7713 137.499 25.679 138.029 25.6222C138.668 25.5559 139.187 25.4967 139.585 25.4446C139.982 25.3878 140.271 25.3026 140.451 25.1889C140.636 25.0705 140.728 24.8883 140.728 24.642V24.5994C140.728 24.0644 140.569 23.6501 140.252 23.3565C139.935 23.063 139.478 22.9162 138.881 22.9162C138.252 22.9162 137.752 23.0535 137.383 23.3281C137.018 23.6027 136.772 23.9271 136.644 24.3011L134.244 23.9602C134.433 23.2973 134.746 22.7434 135.181 22.2983C135.617 21.8485 136.149 21.5123 136.779 21.2898C137.409 21.0625 138.105 20.9489 138.867 20.9489C139.393 20.9489 139.916 21.0104 140.437 21.1335C140.958 21.2566 141.433 21.4602 141.864 21.7443C142.295 22.0237 142.641 22.4048 142.901 22.8878C143.166 23.3707 143.299 23.9744 143.299 24.6989V32H140.827V30.5014H140.742C140.586 30.8045 140.366 31.0885 140.082 31.3537C139.802 31.6141 139.45 31.8248 139.023 31.9858C138.602 32.142 138.107 32.2202 137.539 32.2202ZM138.207 30.331C138.723 30.331 139.17 30.2292 139.549 30.0256C139.928 29.8172 140.219 29.5426 140.423 29.2017C140.631 28.8608 140.735 28.4891 140.735 28.0866V26.8011C140.655 26.8674 140.517 26.929 140.323 26.9858C140.134 27.0426 139.921 27.0923 139.684 27.1349C139.447 27.1776 139.213 27.2154 138.981 27.2486C138.749 27.2817 138.548 27.3101 138.377 27.3338C137.994 27.3859 137.65 27.4711 137.347 27.5895C137.044 27.7079 136.805 27.8736 136.63 28.0866C136.455 28.295 136.367 28.5649 136.367 28.8963C136.367 29.3698 136.54 29.7273 136.886 29.9688C137.231 30.2102 137.672 30.331 138.207 30.331ZM149.933 32.1918C149.076 32.1918 148.308 31.9716 147.631 31.5312C146.954 31.0909 146.419 30.4517 146.026 29.6136C145.633 28.7756 145.437 27.7576 145.437 26.5597C145.437 25.3475 145.636 24.3248 146.033 23.4915C146.436 22.6534 146.978 22.0213 147.66 21.5952C148.342 21.1643 149.102 20.9489 149.94 20.9489C150.579 20.9489 151.104 21.0578 151.516 21.2756C151.928 21.4886 152.255 21.7467 152.496 22.0497C152.738 22.348 152.925 22.6297 153.058 22.8949H153.164V17.4545H155.742V32H153.214V30.2812H153.058C152.925 30.5464 152.733 30.8281 152.482 31.1264C152.231 31.42 151.9 31.6709 151.488 31.8793C151.076 32.0876 150.558 32.1918 149.933 32.1918ZM150.65 30.0824C151.194 30.0824 151.658 29.9356 152.042 29.642C152.425 29.3437 152.717 28.9295 152.916 28.3991C153.114 27.8688 153.214 27.2509 153.214 26.5455C153.214 25.84 153.114 25.2268 152.916 24.706C152.721 24.1851 152.433 23.7803 152.049 23.4915C151.67 23.2027 151.204 23.0582 150.65 23.0582C150.077 23.0582 149.599 23.2074 149.215 23.5057C148.832 23.804 148.543 24.2159 148.349 24.7415C148.155 25.267 148.058 25.8684 148.058 26.5455C148.058 27.2273 148.155 27.8357 148.349 28.3707C148.548 28.901 148.839 29.3201 149.222 29.6278C149.611 29.9309 150.086 30.0824 150.65 30.0824ZM163.311 32.2131C162.218 32.2131 161.273 31.9858 160.478 31.5312C159.687 31.072 159.079 30.4233 158.652 29.5852C158.226 28.7424 158.013 27.7505 158.013 26.6094C158.013 25.4872 158.226 24.5024 158.652 23.6548C159.083 22.8026 159.685 22.1397 160.456 21.6662C161.228 21.188 162.135 20.9489 163.177 20.9489C163.849 20.9489 164.483 21.0578 165.08 21.2756C165.681 21.4886 166.212 21.8201 166.671 22.2699C167.135 22.7197 167.499 23.2926 167.765 23.9886C168.03 24.6799 168.162 25.5038 168.162 26.4602V27.2486H159.221V25.5156H165.698C165.693 25.0232 165.587 24.5852 165.378 24.2017C165.17 23.8134 164.879 23.508 164.505 23.2855C164.135 23.063 163.704 22.9517 163.212 22.9517C162.686 22.9517 162.225 23.0795 161.827 23.3352C161.429 23.5862 161.119 23.9176 160.897 24.3295C160.679 24.7367 160.568 25.1842 160.563 25.6719V27.1847C160.563 27.8191 160.679 28.3636 160.911 28.8182C161.143 29.268 161.467 29.6136 161.884 29.8551C162.301 30.0919 162.788 30.2102 163.347 30.2102C163.721 30.2102 164.06 30.1581 164.363 30.054C164.666 29.9451 164.928 29.7865 165.151 29.5781C165.373 29.3698 165.542 29.1117 165.655 28.804L168.056 29.0739C167.904 29.7083 167.615 30.2623 167.189 30.7358C166.768 31.2045 166.228 31.5691 165.57 31.8295C164.912 32.0852 164.159 32.2131 163.311 32.2131ZM170.337 32V21.0909H172.83V22.9091H172.944C173.143 22.2794 173.484 21.794 173.967 21.4531C174.454 21.1075 175.011 20.9347 175.636 20.9347C175.778 20.9347 175.936 20.9418 176.112 20.956C176.291 20.9654 176.441 20.982 176.559 21.0057V23.3707C176.45 23.3329 176.277 23.2997 176.041 23.2713C175.808 23.2382 175.584 23.2216 175.366 23.2216C174.897 23.2216 174.476 23.3234 174.102 23.527C173.732 23.7259 173.441 24.0028 173.228 24.358C173.015 24.7131 172.908 25.1226 172.908 25.5866V32H170.337Z" fill="white"/>
<defs>
<radialGradient id="paint0_radial_2109_2595" cx="0" cy="0" r="1" gradientUnits="userSpaceOnUse" gradientTransform="translate(27.0096 24.8881) rotate(8.90008) scale(33.6544 35.9225)">
<stop stop-color="#24A2E7"/>
<stop offset="1" stop-color="#305EFF"/>
</radialGradient>
<clipPath id="clip0_2109_2595">
<rect width="71.1111" height="50" fill="white" transform="translate(0.444336)"/>
</clipPath>
</defs>
</svg>
