<?xml version="1.0" encoding="utf-8"?>
<!-- Generator: Adobe Illustrator 26.0.1, SVG Export Plug-In . SVG Version: 6.00 Build 0)  -->
<svg version="1.1" id="Layer_1" xmlns="http://www.w3.org/2000/svg" xmlns:xlink="http://www.w3.org/1999/xlink" x="0px" y="0px"
	 viewBox="0 0 888 544.4" style="enable-background:new 0 0 888 544.4;" xml:space="preserve">
<style type="text/css">
	.st0{fill:#FFB6B6;}
	.st1{fill:#2F2E41;}
	.st2{fill:#464EB8;}
	.st3{fill:#F2F2F2;}
	.st4{fill:#CCCCCC;}
	.st5{fill:#3F3D56;}
	.st6{fill:#FFFFFF;}
	.st7{fill-rule:evenodd;clip-rule:evenodd;fill:#FFFFFF;}
	.st8{fill:#FFFFFF;fill-opacity:0;}
</style>
<g id="Layer_1_00000027564302001408922110000016688150106779275919_">
	<g>
		<path class="st0" d="M403.1,253.3c-6.3,5.9-14.4,7.5-18.2,3.5c-3.8-4-1.7-12,4.5-17.9c2.7-2.6,5.8-4.3,8.8-5.2l26.9-24.7
			l11.3,12.9l-27.7,23C407.8,247.7,406,250.7,403.1,253.3z"/>
		<g>
			<polygon class="st0" points="544.7,507.6 531.8,507.6 525.5,457.6 544.7,457.6 			"/>
			<path class="st1" d="M500.2,507.3L500.2,507.3c-0.4,0.7-0.6,2.9-0.6,3.7l0,0c0,2.4,2,4.4,4.4,4.4h40.2c1.7,0,3-1.3,3-3v-1.7
				c0,0,2-5-2.1-11.2c0,0-5.1,4.8-12.7-2.7l-2.2-4.1L514,504.6l-9,1.1C503,505.9,501.2,505.6,500.2,507.3L500.2,507.3z"/>
		</g>
		<g>
			<polygon class="st0" points="635.7,500.2 622.9,502.6 607.8,454.5 626.5,451.1 			"/>
			<path class="st1" d="M591.9,508.1L591.9,508.1c-0.3,0.7-0.1,2.9,0.1,3.7l0,0c0.4,2.4,2.7,4,5.1,3.5l39.5-7.3
				c1.6-0.3,2.7-1.9,2.4-3.5l-0.3-1.6c0,0,1-5.3-4.1-10.6c0,0-4.1,5.7-13-0.4l-2.9-3.6L605,502.9l-8.6,2.7
				C594.3,506.2,592.7,506.2,591.9,508.1z"/>
		</g>
		<path class="st1" d="M603.8,260.4l31.9,213.9l-29.7,3.9l-51.7-169.4l-6.5,174.5h-27.7c0,0-23.9-192.6-16.9-215.9
			C510.4,244.2,603.8,260.4,603.8,260.4z"/>
		<path class="st2" d="M534.9,89h31l4.5,11c0,0,18.1,10.3,18.1,14.2c0,3.9,11,101.5,11,101.5l5.8,53.6c0,0-67.9,34.3-101.5-0.6
			l6.5-59.5c0,0-5.2-93.1-2.6-97s22-12.9,22-12.9L534.9,89z"/>
		<path class="st2" d="M525.2,105.7L525.2,105.7c0,0,9.5,14.3,6.5,20.2c-3,5.9-49.5,62.3-49.5,62.3L426,234.5l-16.5-14.6l52.9-50.5
			l34.2-50.5C502.1,108.5,513.8,103.1,525.2,105.7L525.2,105.7z"/>
		<g>
			<path class="st0" d="M631.9,291.4c1.4,8.5-1.9,16.1-7.4,17c-5.4,0.9-10.9-5.3-12.3-13.9c-0.6-3.7-0.3-7.3,0.7-10.2l-5.3-36.1
				l17-2.1l3.4,35.9C629.9,284.4,631.3,287.7,631.9,291.4z"/>
			<path class="st2" d="M565.8,107.1c0,0,26.8-6,31.6,8.8c4.8,14.8,34.1,155.6,34.1,155.6l-22.2,2.5l-16.7-96.4L565.8,107.1
				L565.8,107.1z"/>
		</g>
		<circle class="st0" cx="551.5" cy="55.2" r="26.7"/>
		<path class="st1" d="M567.2,77.8c-1.7,0.1-4-0.2-4.3-1.9c-0.2-1.2,0.8-2.2,1.7-3c1.3-1,2.7-2,3.8-3.3c1.1-1.2,2-2.8,2-4.5
			c0-1.7-1-3.4-2.6-3.9s-3.6,0.7-3.6,2.4c-1.6-2.4-1.8-5.3-1.8-8.2c0-1.7-0.1-3.3-0.1-5c0-2.3,0.1-4.5,0.1-6.8
			c-1.1-0.1-10.1,3.3-11.4,3.3c-1.1,0-10-1.8-9.4-4.3c-0.2,1.6-8.7,4.6-8.9,3.7c-0.2-0.9-0.8-1.7-1.7-1.7c-0.9,0.1-1.4,1.1-1.7,1.9
			c-0.7,1.9-2.4,5.3-4.1,4.3c-13.5-7.5-2.6-9.9-1-12.9c2-3.8,4.1-7.7,7.6-10.1c3.5-2.4,6.3-5.3,9-2c6.9-5,13.8-3.8,21.9-1
			c8.1,2.9,14.5,9.9,16.7,18.2c1,3.8,3.7,5.5,1.7,8.9c2.2,2.9,1,1.3,1.4,4.9c0.3,2.9,0.1,5.9-1.4,8.4c-1.5,2.7-4.2,4.5-7.1,5.7
			c-2.9,1.2-3.4,6.7-6.4,7.2"/>
	</g>
	<path class="st3" d="M699.7,495c2.7,0.2,4.1-3.2,2.1-5.1l-0.2-0.8c0-0.1,0.1-0.1,0.1-0.2c2.7-6.4,11.9-6.4,14.5,0.1
		c2.4,5.7,5.4,11.5,6.1,17.5c0.3,2.7,0.2,5.4-0.4,8c5.6-12.2,8.5-25.4,8.5-38.8c0-3.4-0.2-6.7-0.6-10.1c-0.3-2.7-0.7-5.5-1.3-8.2
		c-3-14.6-9.4-28.5-18.7-40.1c-4.5-2.4-8.2-6.3-10.5-10.9c-0.8-1.7-1.4-3.4-1.7-5.2c0.5,0.1,1.9-7.7,1.5-8.2c0.7-1.1,2-1.6,2.8-2.7
		c3.9-5.2,9.2-4.3,11.9,2.8c5.9,3,6,7.9,2.3,12.7c-2.3,3-2.6,7.1-4.7,10.4c0.2,0.3,0.4,0.5,0.6,0.8c3.8,4.9,7.1,10.2,9.9,15.7
		c-0.8-6.2,0.4-13.6,2.4-18.4c2.3-5.5,6.5-10,10.2-14.8c4.5-5.7,13.7-3.2,14.5,4c0,0.1,0,0.1,0,0.2c-0.6,0.3-1.1,0.6-1.6,1
		c-3,2-2,6.7,1.6,7.2h0.1c-0.2,2-0.5,4-1,5.9c4.8,18.5-5.5,25.2-20.3,25.6c-0.3,0.2-0.6,0.3-1,0.5c1.5,4.2,2.7,8.5,3.6,12.9
		c0.8,3.9,1.3,7.8,1.7,11.7c0.4,5,0.4,9.9-0.1,14.9v-0.2c1.1-5.4,4-10.5,8.3-14.1c6.4-5.3,15.4-7.2,22.3-11.4c3.3-2,7.6,0.6,7,4.4
		v0.2c-1,0.4-2,0.9-3,1.4c-0.6,0.3-1.1,0.6-1.6,1c-3,2-2,6.7,1.6,7.2h0.1c0.1,0,0.1,0,0.2,0c-1.8,4.2-4.2,8.1-7.3,11.4
		c-3,16.2-15.8,17.7-29.6,13l0,0c-1.5,6.5-3.7,12.9-6.5,19h-23.3c-0.1-0.3-0.2-0.5-0.2-0.8c2.2,0.1,4.3,0,6.4-0.4
		c-1.7-2.1-3.5-4.3-5.2-6.4l-0.1-0.1c-0.9-1.1-1.8-2.2-2.6-3.2l0,0C698.4,501.6,698.8,498.2,699.7,495L699.7,495L699.7,495z"/>
	<path class="st4" d="M110.3,508.4c0,0.9,0.7,1.6,1.6,1.6h659.5c0.9,0,1.6-0.7,1.6-1.6s-0.7-1.6-1.6-1.6H111.9
		C111,506.7,110.3,507.5,110.3,508.4z"/>
	<path class="st5" d="M295.2,376.4l-0.2-2.6c5-0.3,10.1-1,15-2.1l0.5,2.5C305.5,375.3,300.5,376,295.2,376.4z M279.8,376.2
		c-5.2-0.5-10.4-1.2-15.3-2.2l0.5-2.5c4.9,1,9.9,1.7,15,2.2C280,373.6,279.8,376.2,279.8,376.2z M325.5,370.1l-0.9-2.4
		c4.8-1.7,9.4-3.7,13.9-6.1l1.2,2.3C335.2,366.3,330.5,368.4,325.5,370.1z M249.3,369.9c-5-1.7-9.8-3.6-14.4-5.9l1.1-2.3
		c4.5,2.2,9.2,4.1,14,5.8L249.3,369.9z M221.6,356.2c-4.3-2.9-8.4-6.2-12.1-9.7l1.8-1.9c3.7,3.4,7.7,6.6,11.8,9.5L221.6,356.2z
		 M353,355.8l-1.5-2.1c4.1-2.9,8.1-6.1,11.8-9.6l1.8,1.9C361.3,349.6,357.2,352.9,353,355.8z M198.9,335.1c-3.2-4-6.2-8.3-8.8-12.8
		l2.2-1.3c2.6,4.4,5.5,8.6,8.6,12.5L198.9,335.1z M375.6,334.7l-2-1.6c3.2-3.9,6.1-8.1,8.8-12.4l2.2,1.3
		C382,326.4,379,330.7,375.6,334.7z M183.2,308.4c-2-4.7-3.6-9.7-5-14.7l2.5-0.7c1.3,4.9,2.9,9.7,4.8,14.4
		C185.5,307.4,183.2,308.4,183.2,308.4z M391.8,308.2l-2.4-1c2-4.6,3.7-9.4,5.1-14.3l2.5,0.7C395.6,298.6,393.8,303.5,391.8,308.2z
		 M175.2,278.5c-0.7-5.1-1-10.3-1-15.5h2.6c0,5.1,0.3,10.2,1,15.2L175.2,278.5z M400.1,278.4l-2.6-0.3c0.7-5,1-10.1,1-15.1v-0.2h2.6
		v0.2C401.1,268.1,400.8,273.3,400.1,278.4z M177.8,247.8l-2.6-0.3c0.7-5.1,1.7-10.3,3-15.2l2.5,0.7
		C179.4,237.8,178.4,242.8,177.8,247.8z M397.5,247.5c-0.7-5-1.7-10-3.1-14.8l2.5-0.7c1.4,5,2.5,10.1,3.2,15.2L397.5,247.5z
		 M185.5,218.5l-2.4-1c2-4.8,4.3-9.5,6.9-13.9l2.2,1.3C189.8,209.3,187.4,213.9,185.5,218.5z M389.3,218.4c-2-4.6-4.4-9.1-7-13.4
		l2.2-1.3c2.7,4.4,5.1,9,7.2,13.8L389.3,218.4z M373.5,192.6c-3.2-3.9-6.7-7.6-10.4-11.1l1.8-1.9c3.8,3.5,7.4,7.3,10.6,11.3
		L373.5,192.6z M200.8,192.5l-2-1.6c3.2-4,6.8-7.9,10.6-11.4l1.8,1.9C207.4,184.8,203.9,188.5,200.8,192.5z M351.3,172
		c-4.1-2.9-8.5-5.6-13-7.9l1.2-2.3c4.6,2.4,9,5.1,13.3,8.1L351.3,172L351.3,172z M222.9,171.8l-1.5-2.1c4.2-2.9,8.7-5.6,13.4-7.9
		l1.1,2.3C231.4,166.4,227,169,222.9,171.8z M249.9,158.4l-0.8-2.4c4.8-1.6,9.8-3,15-4l0.5,2.5C259.6,155.5,254.6,156.8,249.9,158.4
		z M324.5,158.1c-4.8-1.7-9.7-3-14.6-4.1l0.5-2.5c5.1,1,10.1,2.4,15,4.2L324.5,158.1L324.5,158.1z M279.8,152.2l-0.2-2.6
		c2.6-0.2,5.2-0.4,7.9-0.5c2.5,0,5.1,0.1,7.6,0.2l-0.2,2.6c-2.5-0.2-4.9-0.2-7.4-0.2C284.8,151.8,282.2,152,279.8,152.2z"/>
	<g>
		<circle class="st2" cx="201.3" cy="333.8" r="34.9"/>
		<path class="st6" d="M187.8,322.1c0-1.1,0.9-2,2-2H213c1.1,0,2,0.9,2,2v23.4c0,1.1-0.9,2-2,2h-23.3c-1.1,0-2-0.9-2-2V322.1z
			 M196.1,343v-12.4H192v12.3h4.1V343z M194.1,329c1.4,0,2.3-0.9,2.3-2.1s-0.9-2.1-2.3-2.1s-2.3,0.9-2.3,2.1
			C191.8,328,192.6,329,194.1,329C194,329,194.1,329,194.1,329z M202.4,343v-6.9c0-0.4,0-0.7,0.1-1c0.3-0.7,1-1.5,2.1-1.5
			c1.5,0,2.1,1.1,2.1,2.8v6.6h4.1v-7.1c0-3.8-2-5.6-4.7-5.6c-2.2,0-3.2,1.2-3.7,2l0,0l0,0l0,0v-1.7h-4.1c0.1,1.2,0,12.3,0,12.3
			L202.4,343z"/>
	</g>
	<circle class="st2" cx="304.5" cy="151" r="34.9"/>
	<path class="st7" d="M304.8,144.7c1.9-2.6,4-4.6,6.7-4.6c5.1,0,9.3,6.5,9.3,14.2c0,4.7-2,7.7-5.7,7.7c-3.2,0-4.9-1.8-8.1-7
		l-1.4-2.3l-0.2-0.4c-0.4-0.6-0.7-1.2-1.1-1.8l-2.4,4.3c-3.4,6-5.4,7.3-8.1,7.3c-3.7,0-6-2.9-6-7.5c0-7.4,4.1-14.3,9.5-14.3
		c0.7,0,1.3,0.1,1.9,0.3c0.6,0.2,1.3,0.5,1.9,0.8C302.5,141.9,303.5,143.1,304.8,144.7z M308,149.3c-0.5-0.8-1-1.6-1.5-2.3l0,0
		c1.7-2.7,3.2-4,4.9-4c3.5,0,6.4,5.2,6.4,11.6c0,2.4-0.8,3.9-2.5,3.9c-1.6,0-2.3-1-5.4-5.9L308,149.3L308,149.3z M298,143.7
		c1.5,0.2,2.8,1.3,4.8,4.1c-1.1,1.7-2.3,3.5-3.4,5.2c-2.8,4.4-3.8,5.4-5.3,5.4c-1.6,0-2.6-1.4-2.6-3.9c0-5.4,2.7-10.8,5.9-10.8
		C297.5,143.7,297.8,143.7,298,143.7L298,143.7z"/>
	<g>
		<circle class="st2" cx="192.1" cy="206.2" r="34.9"/>
		<path class="st6" d="M186.4,218.5c11.4,0,17.7-9.5,17.7-17.7c0-0.3,0-0.5,0-0.8c1.2-0.9,2.3-2,3.1-3.2c-1.1,0.5-2.3,0.8-3.6,1
			c1.3-0.8,2.3-2,2.7-3.4c-1.2,0.7-2.6,1.2-4,1.5c-2.4-2.5-6.3-2.6-8.8-0.3c-1.6,1.5-2.3,3.8-1.8,5.9c-5-0.3-9.7-2.6-12.8-6.5
			c-1.6,2.8-0.8,6.5,1.9,8.3c-1,0-1.9-0.3-2.8-0.8v0.1c0,3,2.1,5.5,5,6.1c-0.5,0.1-1.1,0.2-1.6,0.2c-0.4,0-0.8,0-1.2-0.1
			c0.8,2.5,3.1,4.3,5.8,4.3c-2.2,1.7-4.9,2.7-7.7,2.7c-0.5,0-1,0-1.5-0.1C179.8,217.6,183.1,218.5,186.4,218.5L186.4,218.5z"/>
	</g>
	<circle class="st2" cx="317.8" cy="372.1" r="34.9"/>
	<path class="st6" d="M317.8,357.2c-4,0-4.5,0-6.1,0.1s-2.7,0.3-3.6,0.7c-1,0.4-1.9,1-2.6,1.7c-0.8,0.7-1.3,1.6-1.7,2.6
		c-0.4,0.9-0.6,2-0.7,3.6c-0.1,1.6-0.1,2.1-0.1,6.1s0,4.5,0.1,6.1c0.1,1.6,0.3,2.7,0.7,3.6c0.4,1,0.9,1.8,1.7,2.6
		c0.8,0.8,1.7,1.3,2.6,1.7c0.9,0.4,2,0.6,3.6,0.7s2.1,0.1,6.1,0.1s4.5,0,6.1-0.1c1.6-0.1,2.7-0.3,3.6-0.7c1-0.4,1.9-1,2.6-1.7
		c0.8-0.8,1.3-1.7,1.7-2.6c0.4-0.9,0.6-2,0.7-3.6s0.1-2.1,0.1-6.1s0-4.5-0.1-6.1s-0.3-2.7-0.7-3.6c-0.4-1-1-1.9-1.7-2.6
		c-0.7-0.8-1.6-1.3-2.6-1.7c-0.9-0.4-2-0.6-3.6-0.7C322.3,357.2,321.8,357.2,317.8,357.2L317.8,357.2z M316.5,359.9h1.3
		c4,0,4.4,0,6,0.1c1.5,0.1,2.2,0.3,2.8,0.5c0.7,0.3,1.2,0.6,1.7,1.1s0.8,1,1.1,1.7c0.2,0.5,0.4,1.3,0.5,2.8c0.1,1.6,0.1,2,0.1,6
		s0,4.4-0.1,6c-0.1,1.5-0.3,2.2-0.5,2.8c-0.2,0.6-0.6,1.2-1.1,1.7s-1,0.8-1.7,1.1c-0.5,0.2-1.3,0.4-2.8,0.5c-1.6,0.1-2,0.1-6,0.1
		s-4.4,0-6-0.1c-1.5-0.1-2.2-0.3-2.8-0.5c-0.6-0.2-1.2-0.6-1.7-1.1s-0.9-1.1-1.1-1.7c-0.2-0.5-0.4-1.3-0.5-2.8c-0.1-1.6-0.1-2-0.1-6
		s0-4.4,0.1-6c0.1-1.5,0.3-2.2,0.5-2.8c0.3-0.7,0.6-1.2,1.1-1.7s1-0.8,1.7-1.1c0.5-0.2,1.3-0.4,2.8-0.5
		C313.1,359.9,313.6,359.9,316.5,359.9L316.5,359.9L316.5,359.9z M325.8,362.4c-1,0-1.8,0.8-1.8,1.8s0.8,1.8,1.8,1.8l0,0
		c1,0,1.8-0.8,1.8-1.8S326.8,362.4,325.8,362.4z M317.8,364.5c-4.2-0.1-7.7,3.3-7.8,7.5s3.3,7.7,7.5,7.8c0.1,0,0.2,0,0.2,0
		c4.2-0.1,7.6-3.5,7.5-7.8C325.2,367.9,322,364.5,317.8,364.5z M317.8,367.2c2.7,0,5,2.2,5,5c0,2.7-2.2,5-5,5l0,0c-2.7,0-5-2.2-5-5
		S315,367.2,317.8,367.2z"/>
</g>
<g id="Layer_2_00000157269628490889502380000010940765213194284931_">
	<rect x="-7.6" y="5.1" class="st8" width="888" height="544.4"/>
</g>
</svg>
