<?xml version="1.0" encoding="utf-8"?>
<!-- Generator: Adobe Illustrator 26.0.1, SVG Export Plug-In . SVG Version: 6.00 Build 0)  -->
<svg version="1.1" xmlns="http://www.w3.org/2000/svg" xmlns:xlink="http://www.w3.org/1999/xlink" x="0px" y="0px"
	 viewBox="0 0 841.6 589" style="enable-background:new 0 0 841.6 589;" xml:space="preserve">
<style type="text/css">
	.st0{opacity:0;fill:#FFFFFF;stroke:#000000;stroke-miterlimit:10;}
	.st1{fill:#FFB8B8;}
	.st2{fill:#2F2E41;}
	.st3{opacity:0.28;enable-background:new    ;}
	.st4{fill:#CCCCCC;}
	.st5{fill:#FFFFFF;}
	.st6{fill:#3F3D56;}
	.st7{fill:#E6E6E6;}
	.st8{fill:#575A89;}
	.st9{fill:#464EB8;}
</style>
<g id="Layer_2">
	<rect x="-22.5" y="22.3" class="st0" width="888" height="544.4"/>
</g>
<g id="Layer_1">
	<polygon class="st1" points="709.1,544.6 696.5,544.6 690.5,496 709.1,496 	"/>
	<path class="st2" d="M712.3,556.8l-40.6,0v-0.5c0-8.7,7.1-15.8,15.8-15.8h0l24.8,0L712.3,556.8z"/>
	<polygon class="st1" points="764.7,513.6 756.5,523.2 715.7,496.3 727.7,482.1 	"/>
	<path class="st2" d="M776,519.1L749.7,550l-0.4-0.3c-6.6-5.7-7.4-15.6-1.8-22.3l0,0l16.1-18.9L776,519.1z"/>
	<polygon class="st2" points="619.7,305.8 615.8,341.9 774.2,339.7 705.1,227.1 648.7,225.1 	"/>
	<polygon class="st3" points="619.7,305.8 615.8,341.9 774.2,339.7 705.1,227.1 648.7,225.1 	"/>
	<path class="st2" d="M650.9,312l-5.6,33.1v29.6l45.1,14.7c0,0-5.3,114.8,1.8,122.1l-0.2,17.7l19.7,0.9l0.2-12.4l8.3-92.9l4.9-68.2
		l-8-51.7L650.9,312z"/>
	<path class="st2" d="M685.8,340.5l-40.5,34.2c0,0-2.4,61.6,3.7,68.9c5.2,6.2,72.5,59.8,72.5,59.8s12,11,18.7,11.1
		c6.7,0.2,14.5-13.9,14.5-13.9L739,488.7c0,0-40.2-37.5-52.2-52.5c-4.8-6-4.8-6.6-4.8-6.6l1.6-25.1l16.6-46.5L685.8,340.5z"/>
	<polygon class="st2" points="642.8,176.8 625.3,175.2 609.4,177.8 575.9,177.8 573,202.2 603.6,209 611.1,205.4 642.2,217.2 	"/>
	<path class="st4" d="M663.6,176.7c0,0,37.1-3.5,45.5,3.2c8.4,6.6,26.5,137.9,26.5,137.9l-72,4.1l-12.9-8.9l3.7-65.6L663.6,176.7z"
		/>
	<polygon class="st2" points="674.9,175.9 634,176.8 595.9,349.2 626,355.8 	"/>
	<polygon class="st2" points="704,174.5 736.3,184.5 734.4,255.4 774.2,340 727.4,344.9 690.5,253.5 	"/>
	<path class="st1" d="M757.2,348.6c4.3-3.8,4.7-10.3,0.9-14.5c-0.4-0.5-0.8-0.9-1.3-1.3l6.5-22.6l-12.8-7.3l-8.7,32.1
		c-3.3,4.7-2.1,11.1,2.6,14.4C748.3,352.1,753.6,351.8,757.2,348.6L757.2,348.6z"/>
	<path class="st2" d="M717.6,186.5l19.1-1.7c0,0,17.1,17.9,21,31.8c3.9,13.9,8.1,57.2,8.1,57.2l-1.8,63.4l-22.3-15.1l-1.5-54.6
		L717.6,186.5z"/>
	<ellipse transform="matrix(0.4797 -0.8775 0.8775 0.4797 234.3542 678.5094)" class="st1" cx="689.3" cy="141.7" rx="27" ry="27"/>
	<path class="st2" d="M686.3,130.4c-3.5-0.8-7.2,0.1-10.8,0.7c-3.6,0.6-7.5,0.8-10.6-1.2c-2.2-1.5-3.6-3.9-4.9-6.3
		c-0.5-0.8-0.9-1.8-1.1-2.8c-0.2-1.7,1-3.3,2.1-4.6c5.5-6,13.5-9.3,21.5-10.3c6.6-1,13.4-0.2,19.6,2.4c6.1,2.7,11.4,7.6,13.8,13.8
		c1.1,3.2,1.8,6.5,2.1,9.9c0.4,2.5,0.4,5,0.1,7.5c-0.3,1.8-0.8,3.7-1.4,5.4l-4,12c-0.3,1.1-0.8,2.2-1.6,3.1
		c-0.8,0.9-2.1,1.2-3.2,0.7c0.3-1.3,0.4-2.7,0.1-4c-0.3-1.4-1.3-2.4-2.7-2.7c-1.5-0.2-2.7,1-4.1,1.5c-2.7,0.8-5.5-0.7-6.3-3.4
		c0-0.1-0.1-0.3-0.1-0.4c-0.2-1.4,0.1-2.8-0.4-4.1c-0.6-1.5-2.2-2.3-3.4-3.4c-2.3-2.1-3.1-5.3-2.2-8.2c0.3-1,1.2-1.5,1.1-2.6
		C689.8,131.7,687.5,130.7,686.3,130.4z"/>
	<path class="st5" d="M385.8,244.6H44.5V31.2h341.2V244.6z"/>
	<path class="st6" d="M385.8,244.6H44.5V31.2h341.2V244.6z M46.1,243.1h338.1V32.7H46.1V243.1z"/>
	<path class="st5" d="M344.1,540.3H149.3V326.8h194.8V540.3z"/>
	<path class="st6" d="M344.1,540.3H149.3V326.8h194.8V540.3z M150.9,538.7h191.7V328.4H150.9V538.7z"/>
	<rect x="277.1" y="520.1" class="st6" width="40.5" height="1.6"/>
	<rect x="277.1" y="525.1" class="st6" width="40.5" height="1.6"/>
	<rect x="277.1" y="530" class="st6" width="40.5" height="1.6"/>
	<path class="st7" d="M246.7,365v17.1c28.4,0,51.4,23,51.4,51.4c0,13.6-5.4,26.7-15.1,36.4l12.1,12.1c26.8-26.8,26.8-70.2,0-97
		C282.3,372.2,264.9,365,246.7,365z"/>
	<path class="st8" d="M295.2,482l-12.1-12.1c-18.2,18.2-47,20.1-67.5,4.6l-10.4,13.6C232.5,508.9,270.9,506.3,295.2,482z"/>
	<path class="st9" d="M195.3,433.6c0-28.4,23-51.4,51.4-51.4l0,0V365c-37.9,0-68.6,30.7-68.6,68.6c0,21.4,10,41.6,27.1,54.6
		l10.4-13.6C202.8,464.8,195.3,449.6,195.3,433.6z"/>
	<path class="st5" d="M632.3,407.8H437.6V194.4h194.8V407.8z"/>
	<path class="st6" d="M632.3,407.8H437.6V194.4h194.8V407.8z M439.1,406.3h191.7V195.9H439.1V406.3z"/>
	<rect x="465.6" y="324.9" class="st8" width="35.1" height="56.1"/>
	<rect x="516.3" y="286.7" class="st7" width="35.1" height="94.3"/>
	<rect x="566.9" y="242.3" class="st9" width="35.1" height="138.7"/>
	<polygon class="st6" points="613.6,382.5 456.3,382.5 456.3,219.7 457.8,219.7 457.8,381 613.6,381 	"/>
	<circle class="st1" cx="575.7" cy="189.3" r="10.7"/>
	<path class="st4" d="M796.2,557.8H629c-0.5,0-0.9-0.4-0.9-0.9c0-0.5,0.4-0.9,0.9-0.9h167.2c0.5,0,0.9,0.4,0.9,0.9
		C797.1,557.4,796.7,557.8,796.2,557.8z"/>
	<path class="st6" d="M338.4,200H91.9c-0.4,0-0.8-0.3-0.8-0.8V81.1c0-0.4,0.3-0.8,0.8-0.8c0.4,0,0.8,0.3,0.8,0.8v117.4h245.7
		c0.4,0,0.8,0.3,0.8,0.8C339.1,199.6,338.8,200,338.4,200C338.4,200,338.4,200,338.4,200L338.4,200z"/>
	<path class="st9" d="M144.6,191.5h-22.4c-1.3,0-2.3-1-2.3-2.3v-30.9c0-1.3,1-2.3,2.3-2.3h22.4c1.3,0,2.3,1,2.3,2.3v30.9
		C146.9,190.5,145.8,191.5,144.6,191.5z"/>
	<path class="st9" d="M185.4,191.5H163c-1.3,0-2.3-1-2.3-2.3V129c0-1.3,1-2.3,2.3-2.3h22.4c1.3,0,2.3,1,2.3,2.3v60.2
		C187.7,190.5,186.7,191.5,185.4,191.5z"/>
	<path class="st9" d="M226.3,191.5h-22.4c-1.3,0-2.3-1-2.3-2.3v-30.9c0-1.3,1-2.3,2.3-2.3h22.4c1.3,0,2.3,1,2.3,2.3v30.9
		C228.6,190.5,227.6,191.5,226.3,191.5z"/>
	<path class="st9" d="M267.2,191.5h-22.4c-1.2,0-2.3-1-2.3-2.2v-72c0-1.2,1.1-2.2,2.3-2.2h22.4c1.2,0,2.3,1,2.3,2.2v72
		C269.5,190.5,268.4,191.5,267.2,191.5z"/>
	<path class="st9" d="M308.1,191.5h-22.4c-1.3,0-2.3-1-2.3-2.3V96.6c0-1.3,1-2.3,2.3-2.3h22.4c1.3,0,2.3,1,2.3,2.3v92.6
		C310.4,190.5,309.3,191.5,308.1,191.5z"/>
	<circle class="st6" cx="133.4" cy="142.1" r="4.6"/>
	<circle class="st6" cx="174.2" cy="112.1" r="4.6"/>
	<circle class="st6" cx="215.1" cy="142.1" r="4.6"/>
	<circle class="st6" cx="256" cy="97.4" r="4.6"/>
	<circle class="st6" cx="296.9" cy="80.4" r="4.6"/>
	<polygon class="st6" points="215.2,143.2 174.2,112.5 133.8,142.8 132.9,141.5 174.2,110.6 215,141.1 255.5,96.8 255.7,96.7 
		296.6,80.2 297.2,81.6 256.4,98.1 	"/>
</g>
</svg>
