<?xml version="1.0" encoding="utf-8"?>
<!-- Generator: Adobe Illustrator 26.0.1, SVG Export Plug-In . SVG Version: 6.00 Build 0)  -->
<svg version="1.1" xmlns="http://www.w3.org/2000/svg" xmlns:xlink="http://www.w3.org/1999/xlink" x="0px" y="0px"
	 viewBox="0 0 782.4 665.6" style="enable-background:new 0 0 782.4 665.6;" xml:space="preserve">
<style type="text/css">
	.st0{opacity:0;}
	.st1{opacity:0.63;fill:#FFFFFF;stroke:#000000;stroke-miterlimit:10;}
	.st2{fill:#F1F1F1;}
	.st3{fill:#FFB7B7;}
	.st4{fill:#2F2E41;}
	.st5{fill:#FFB9B9;}
	.st6{fill:#3F3D56;}
	.st7{fill:#CBCBCB;}
	.st8{fill:#FFFFFF;}
	.st9{fill:#464EB8;}
</style>
<g id="Layer_2" class="st0">
	<rect x="-52.5" y="60.3" class="st1" width="888" height="544.4"/>
</g>
<g id="Layer_1">
	<path class="st2" d="M631.2,557.3c6.2,12.1,19.9,17.6,19.9,17.6s3.5-14.3-2.7-26.4c-6.2-12.1-19.9-17.6-19.9-17.6
		S625,545.2,631.2,557.3z"/>
	<path class="st2" d="M635.7,553.5c11.6,7.3,15.8,21.3,15.8,21.3s-14.5,2.3-26.1-5c-11.6-7.3-15.8-21.3-15.8-21.3
		S624.2,546.2,635.7,553.5z"/>
	<polygon class="st3" points="473.3,566.5 465.2,566.5 461.4,535.2 473.4,535.2 	"/>
	<path class="st4" d="M475.4,574.3l-26.1,0V574c0-5.6,4.6-10.2,10.2-10.2h0l16,0L475.4,574.3z"/>
	<polygon class="st3" points="523.6,566.5 515.5,566.5 511.6,535.2 523.6,535.2 	"/>
	<path class="st4" d="M525.7,574.3l-26.1,0V574c0-5.6,4.6-10.2,10.2-10.2h0l16,0L525.7,574.3z"/>
	<path class="st3" d="M500.1,390.4l-15.9-32.1l4.1-26.6l-19.2-5.3l-2,35.7l24.9,33.8c-0.5,3.6,2,7,5.6,7.5c3.6,0.5,7-2,7.5-5.6
		C505.5,394.4,503.3,391.2,500.1,390.4L500.1,390.4z"/>
	<path class="st3" d="M534.6,390.4l15.9-32.1l-4.1-26.6l19.2-5.3l2,35.7l-24.9,33.8c0.5,3.6-2,7-5.6,7.5c-3.6,0.5-7-2-7.5-5.6
		C529.1,394.4,531.3,391.2,534.6,390.4L534.6,390.4z"/>
	<circle class="st5" cx="523.9" cy="263.3" r="17.4"/>
	<path class="st4" d="M506.6,263.2c0,0-1.9-2.8-1.2-5.9c0.4-1.7,0.6-3.5,0.5-5.3c0.8-2.6,1.8-5.2,3.1-7.7c1.5-2.8,0.8-3.9,5.6-4.8
		c4.8-0.9,2.8-7.1,15.5-0.4c0.9,1.2,2.4,1.8,3.9,1.5c2.6-0.5,3.6,3.1,3.6,3.1s1.7-1,2.4,0.4c0.7,1.5,5.3-0.9,5.3,9
		c0,9.8-5.3,18.6-5.3,18.6s-3.7,11.8-12.4,10.1c-8.7-1.7-9.9-0.7-15.9-11.9C510.5,273.4,508.6,260.1,506.6,263.2z"/>
	<path class="st4" d="M485.6,376l-2,7.9c0,0-9.5,4.6-13.3,45.9l-5.1,62l-7.8,64.9l16.3,1.3l11.3-41.1l24.4-86.5l4.6,65.4l-5.1,59.3
		l17.2,0.7l11.9-66.1c0,0,18.2-96.8,6.5-99.6l-1.2-10.1L485.6,376z"/>
	<path class="st6" d="M481.8,301.5l28.1-15.5l23.8,1.3l28.4,16.8l-11.9,74c0,0,6.8,7.6-13.7,5.4c-20.5-2.2-53.7-4-53.7-4
		s-2.7-5.3,3-6c5.7-0.7,0.9-0.6,0.9-0.6s-3.4-11.1,0-13.2l1.7-22.7L481.8,301.5z"/>
	<polygon class="st6" points="489.5,302.6 481.8,301.5 465.4,330.7 492,342.5 	"/>
	<polygon class="st6" points="553,307.9 562.1,304.1 571.2,345.3 546.6,349.9 	"/>
	<path class="st7" d="M342.6,575.4h356.9c0.4,0,0.7-0.3,0.7-0.7s-0.3-0.7-0.7-0.7H342.6c-0.4,0-0.7,0.3-0.7,0.7
		S342.2,575.4,342.6,575.4z"/>
	<rect x="211.6" y="379.8" class="st8" width="92.7" height="46.7"/>
	<rect x="222.6" y="391.8" class="st9" width="70.8" height="2.4"/>
	<rect x="222.6" y="402" class="st9" width="70.8" height="2.4"/>
	<rect x="222.6" y="412.2" class="st9" width="70.8" height="2.4"/>
	<path class="st6" d="M305.1,427.2h-94.2v-48.2h94.2V427.2z M212.4,425.8h91.2v-45.3h-91.2V425.8z"/>
	<path class="st9" d="M237.7,321.8c-19.6,0-38.9-5.4-55.6-15.8l-0.4-0.3l0.3-0.4l55.4-89.7h106v0.5
		C343.4,274.4,296,321.8,237.7,321.8z"/>
	<path class="st2" d="M169.7,283.7l-0.3-0.2c-38.9-24-51.7-74.5-29.1-114.2l0.2-0.3l74,42.3L169.7,283.7z"/>
	<path class="st9" d="M343.4,201.4H237.1L260,97.6l0.5,0.1c48.4,10.7,82.9,53.6,82.9,103.2V201.4z"/>
	<path class="st2" d="M220.2,185.1l-72-41.2l0.2-0.3c17.9-31.3,54.1-47.3,89.3-39.6l0.4,0.1L220.2,185.1z"/>
	<rect x="397" y="90.3" class="st8" width="92.7" height="46.7"/>
	<rect x="408" y="102.3" class="st9" width="70.8" height="2.4"/>
	<rect x="408" y="112.5" class="st9" width="70.8" height="2.4"/>
	<rect x="408" y="122.7" class="st9" width="70.8" height="2.4"/>
	<path class="st6" d="M490.4,137.8h-94.2V89.6h94.2V137.8z M397.8,136.3H489V91.1h-91.2V136.3z"/>
	<rect x="257.4" y="258.9" class="st6" width="1.5" height="120.2"/>
	
		<rect x="282" y="138.5" transform="matrix(0.9111 -0.4121 0.4121 0.9111 -26.951 153.3812)" class="st6" width="120.3" height="1.5"/>
</g>
</svg>
