<svg width="55" height="55" viewBox="0 0 55 55" fill="none" xmlns="http://www.w3.org/2000/svg">
<rect width="55" height="55" rx="27.5" fill="white"/>
<rect x="0.5" y="0.5" width="54" height="54" rx="27" stroke="#202223" stroke-opacity="0.7"/>
<path d="M28.7929 22.2071C28.4024 21.8166 28.4024 21.1834 28.7929 20.7929C29.1834 20.4024 29.8166 20.4024 30.2071 20.7929L36.2071 26.7929C36.5976 27.1834 36.5976 27.8166 36.2071 28.2071L30.2071 34.2071C29.8166 34.5976 29.1834 34.5976 28.7929 34.2071C28.4024 33.8166 28.4024 33.1834 28.7929 32.7929L33.0858 28.5H19.5C18.9477 28.5 18.5 28.0523 18.5 27.5C18.5 26.9477 18.9477 26.5 19.5 26.5H33.0858L28.7929 22.2071Z" fill="#202223" fill-opacity="0.8"/>
</svg>
