<svg width="19" height="18" viewBox="0 0 19 18" fill="none" xmlns="http://www.w3.org/2000/svg">
<g clip-path="url(#clip0_4057_1325)">
<path d="M18.6923 5.39998C18.6923 5.39998 18.5165 4.15896 17.9751 3.61404C17.2896 2.89685 16.5231 2.89333 16.1716 2.85115C13.6544 2.66833 9.8751 2.66833 9.8751 2.66833H9.86807C9.86807 2.66833 6.08877 2.66833 3.57158 2.85115C3.22002 2.89333 2.45361 2.89685 1.76807 3.61404C1.22666 4.15896 1.05439 5.39998 1.05439 5.39998C1.05439 5.39998 0.871582 6.85896 0.871582 8.31443V9.67849C0.871582 11.134 1.05088 12.5929 1.05088 12.5929C1.05088 12.5929 1.22666 13.834 1.76455 14.3789C2.4501 15.0961 3.3501 15.0715 3.75088 15.1488C5.19229 15.2859 9.87158 15.3281 9.87158 15.3281C9.87158 15.3281 13.6544 15.3211 16.1716 15.1418C16.5231 15.0996 17.2896 15.0961 17.9751 14.3789C18.5165 13.834 18.6923 12.5929 18.6923 12.5929C18.6923 12.5929 18.8716 11.1375 18.8716 9.67849V8.31443C18.8716 6.85896 18.6923 5.39998 18.6923 5.39998ZM8.01182 11.3344V6.27537L12.8739 8.81365L8.01182 11.3344Z" fill="white" fill-opacity="0.65"/>
</g>
<defs>
<clipPath id="clip0_4057_1325">
<rect width="18" height="18" fill="white" transform="translate(0.871582)"/>
</clipPath>
</defs>
</svg>
